<svg width="550" height="550" viewBox="0 0 550 550" fill="none" xmlns="http://www.w3.org/2000/svg">
<g clip-path="url(#clip0_140_210)">
<path d="M474 76H76V474H474V76Z" fill="#0B6FBD"/>
<mask id="mask0_140_210" style="mask-type:luminance" maskUnits="userSpaceOnUse" x="167" y="141" width="216" height="115">
<path d="M167.678 141.354H382.225V255.947H167.678V141.354Z" fill="white"/>
</mask>
<g mask="url(#mask0_140_210)">
<path d="M382.233 242.716C382.233 247.242 381.504 251.663 380.095 255.931C377.65 251.558 373.917 247.914 369.221 245.542C351.738 236.683 333.568 230.837 315.219 228.157C300.944 226.076 286.757 225.015 273.049 225.015C248.538 225.015 225.979 228.359 205.995 234.959C199.986 236.95 193.93 239.315 188.018 242.011C186.577 242.667 185.144 243.242 183.751 243.801C178.868 245.76 172.747 248.222 169.289 254.182C168.229 250.457 167.678 246.627 167.678 242.716C167.678 206.537 214.748 177.144 273.178 176.552C271.591 164.164 264.684 159.378 245.615 154.447C242.643 153.669 240.578 150.965 240.635 147.888C240.708 143.766 244.473 140.706 248.53 141.467C266.036 144.754 279.705 158.933 282.239 176.698C338.094 179.006 382.233 207.679 382.233 242.716Z" fill="white"/>
</g>
<mask id="mask1_140_210" style="mask-type:luminance" maskUnits="userSpaceOnUse" x="174" y="233" width="202" height="176">
<path d="M174.642 233.226H375.212V408.59H174.642V233.226Z" fill="white"/>
</mask>
<g mask="url(#mask1_140_210)">
<path d="M197.994 284.45C201.055 304.685 210.132 334.653 236.044 362.233C237.801 364.095 235.234 366.848 233.25 365.229C215.59 350.767 193.606 324.718 193.913 284.757C193.929 282.215 197.614 281.94 197.994 284.45ZM365.488 252.919C349.325 244.732 331.973 238.959 314.029 236.335C279.656 231.315 241.817 231.833 208.594 242.813C202.756 244.74 197.031 246.991 191.435 249.542C182.261 253.704 175.014 254.344 174.828 265.154C174.82 265.607 174.82 266.044 174.812 266.498C174.763 272.32 175.014 278.15 175.492 283.956C177.103 302.952 181.362 321.94 189.395 339.293C196.051 353.666 205.395 366.808 217.476 377.124C224.189 382.848 231.663 387.65 239.606 391.456C242.951 393.059 266.741 398.962 267.324 400.598C267.324 400.598 269.842 407.74 274.312 408.517V408.566C274.538 408.59 274.749 408.59 274.959 408.582C275.17 408.59 275.38 408.59 275.599 408.566V408.517C280.077 407.74 282.595 400.598 282.595 400.598C366.977 383.399 374.978 298.758 375.107 268.636C375.107 267.964 375.075 267.3 375.002 266.644C374.362 260.806 370.816 255.623 365.488 252.919Z" fill="white"/>
</g>
</g>
<defs>
<clipPath id="clip0_140_210">
<rect x="76" y="76" width="398" height="398" rx="199" fill="white"/>
</clipPath>
</defs>
</svg>
