<svg width="128" height="128" viewBox="0 0 128 128" fill="none" xmlns="http://www.w3.org/2000/svg">
<g clip-path="url(#clip0_97_150)">
<path d="M78.2652 58.6467L87.56 42.6965L112.614 82.16L112.625 89.7336L112.543 37.6183C112.484 36.3444 111.815 35.179 110.748 34.4917L65.643 8.25248C64.588 7.72812 63.2498 7.73368 62.1968 8.26872C62.0546 8.34104 61.9206 8.41928 61.793 8.50472L61.6359 8.6048L17.854 34.2637L17.6839 34.3416C17.4656 34.4433 17.2448 34.5723 17.0374 34.7225C16.2075 35.3247 15.656 36.2149 15.4777 37.2135C15.451 37.3649 15.4313 37.519 15.4219 37.6743L15.4907 80.1432L38.8266 43.5636C41.7646 38.713 48.166 37.1507 54.1084 37.2358L61.0828 37.4221L19.9891 104.072L24.8332 106.892L66.4195 37.4896L84.8008 37.4221L43.3216 108.576L60.6068 118.631L62.672 119.832C63.5456 120.191 64.5754 120.209 65.4564 119.888L111.195 93.0808L102.45 98.2056L78.2652 58.6467ZM81.8112 110.302L64.3531 82.5904L75.0103 64.3013L97.9384 100.85L81.8112 110.302Z" fill="#2D374B"/>
<path d="M64.3438 82.5896L81.8024 110.302L97.9296 100.85L75.0013 64.3008L64.3438 82.5896Z" fill="#28A0F0"/>
<path d="M112.61 89.74L112.598 82.1672L87.5448 42.7031L78.25 58.6534L102.435 98.212L111.18 93.0872C112.038 92.3832 112.557 91.3488 112.611 90.2336L112.61 89.74Z" fill="#28A0F0"/>
<path d="M7.6332 96.8776L19.9821 104.074L61.0757 37.4239L54.1013 37.2376C48.159 37.1526 41.7579 38.7149 38.8196 43.5654L15.4836 80.1448L7.63281 92.344L7.6332 96.8776Z" fill="white"/>
<path d="M84.7872 37.4258L66.4066 37.4933L24.8203 106.896L39.3558 115.36L43.3086 108.58L84.7872 37.4258Z" fill="white"/>
<path d="M120.364 37.3281C120.21 33.4404 118.129 29.8813 114.869 27.8093L69.1725 1.2328C65.9474 -0.409739 61.9183 -0.411726 58.6881 1.2316C58.3063 1.42625 14.2491 27.2675 14.2491 27.2675C13.6395 27.563 13.0523 27.9154 12.4997 28.315C9.5892 30.4246 7.81506 33.7026 7.63281 37.3042V92.3448L15.4836 80.1456L15.4149 37.6764C15.4243 37.5211 15.4435 37.3686 15.4706 37.2176C15.6478 36.2182 16.1996 35.3268 17.0303 34.7246C17.2378 34.5745 62.0471 8.3432 62.1897 8.27088C63.2431 7.73581 64.5813 7.73025 65.6359 8.25456L110.741 34.4938C111.808 35.181 112.477 36.3465 112.537 37.6204V90.2288C112.482 91.3448 112.046 92.3784 111.188 93.0832L102.443 98.2072L97.9312 100.852L81.804 110.304L65.449 119.89C64.568 120.211 63.5381 120.194 62.6646 119.834L43.3141 108.578L39.3612 115.358L56.751 125.484C57.326 125.814 57.8386 126.108 58.2588 126.346C58.9101 126.716 59.3535 126.963 59.5102 127.039C60.7462 127.646 62.5244 128 64.1269 128C65.5962 128 67.0287 127.727 68.3846 127.19L115.889 99.3672C118.615 97.2304 120.219 94.0088 120.364 90.5184V37.3281Z" fill="#96BEDC"/>
</g>
<defs>
<clipPath id="clip0_97_150">
<rect width="128" height="128" fill="white"/>
</clipPath>
</defs>
</svg>
