<svg width="1365" height="300" viewBox="0 0 1365 300" fill="none" xmlns="http://www.w3.org/2000/svg">
<path d="M400.393 227H375.362L420.936 97.5455H449.886L495.524 227H470.493L435.917 124.094H434.906L400.393 227ZM401.214 176.242H469.482V195.079H401.214V176.242ZM511.564 227V129.909H533.751V146.091H534.762C536.532 140.486 539.566 136.167 543.864 133.133C548.205 130.057 553.156 128.518 558.719 128.518C559.983 128.518 561.394 128.582 562.954 128.708C564.555 128.792 565.882 128.94 566.936 129.151V150.2C565.967 149.862 564.429 149.567 562.322 149.315C560.257 149.02 558.255 148.872 556.317 148.872C552.145 148.872 548.394 149.778 545.065 151.59C541.778 153.36 539.187 155.825 537.29 158.986C535.394 162.146 534.446 165.791 534.446 169.921V227H511.564ZM583.149 227V97.5455H606.031V145.964H606.98C608.16 143.605 609.824 141.097 611.973 138.442C614.122 135.745 617.03 133.449 620.696 131.553C624.362 129.614 629.04 128.645 634.729 128.645C642.23 128.645 648.993 130.562 655.019 134.397C661.088 138.19 665.892 143.815 669.431 151.274C673.013 158.691 674.804 167.793 674.804 178.581C674.804 189.242 673.055 198.303 669.558 205.761C666.06 213.22 661.298 218.909 655.272 222.828C649.246 226.747 642.419 228.707 634.792 228.707C629.23 228.707 624.615 227.78 620.949 225.925C617.283 224.071 614.333 221.838 612.1 219.225C609.908 216.57 608.202 214.063 606.98 211.703H605.652V227H583.149ZM605.589 178.455C605.589 184.733 606.474 190.233 608.244 194.952C610.056 199.672 612.647 203.359 616.019 206.014C619.432 208.627 623.562 209.933 628.408 209.933C633.465 209.933 637.7 208.585 641.113 205.888C644.526 203.149 647.097 199.419 648.825 194.7C650.595 189.938 651.48 184.523 651.48 178.455C651.48 172.429 650.616 167.077 648.888 162.399C647.16 157.722 644.59 154.055 641.176 151.401C637.763 148.746 633.507 147.418 628.408 147.418C623.52 147.418 619.369 148.704 615.955 151.274C612.542 153.845 609.95 157.448 608.181 162.083C606.453 166.719 605.589 172.176 605.589 178.455ZM694.257 227V129.909H717.139V227H694.257ZM705.761 116.129C702.137 116.129 699.019 114.928 696.406 112.526C693.794 110.082 692.487 107.153 692.487 103.74C692.487 100.285 693.794 97.3558 696.406 94.9538C699.019 92.5097 702.137 91.2876 705.761 91.2876C709.428 91.2876 712.546 92.5097 715.116 94.9538C717.729 97.3558 719.036 100.285 719.036 103.74C719.036 107.153 717.729 110.082 715.116 112.526C712.546 114.928 709.428 116.129 705.761 116.129ZM789.151 129.909V147.608H733.337V129.909H789.151ZM747.117 106.648H769.999V197.797C769.999 200.873 770.462 203.233 771.389 204.876C772.359 206.478 773.623 207.573 775.182 208.163C776.741 208.753 778.469 209.048 780.365 209.048C781.798 209.048 783.104 208.943 784.284 208.732C785.506 208.522 786.433 208.332 787.066 208.163L790.921 226.052C789.699 226.473 787.95 226.937 785.675 227.442C783.441 227.948 780.702 228.243 777.458 228.327C771.727 228.496 766.564 227.632 761.971 225.736C757.378 223.797 753.733 220.805 751.036 216.76C748.381 212.714 747.075 207.658 747.117 201.589V106.648ZM808.288 227V129.909H830.475V146.091H831.487C833.256 140.486 836.29 136.167 840.589 133.133C844.929 130.057 849.881 128.518 855.443 128.518C856.707 128.518 858.119 128.582 859.678 128.708C861.28 128.792 862.607 128.94 863.661 129.151V150.2C862.691 149.862 861.153 149.567 859.046 149.315C856.981 149.02 854.98 148.872 853.041 148.872C848.869 148.872 845.119 149.778 841.79 151.59C838.503 153.36 835.911 155.825 834.015 158.986C832.119 162.146 831.17 165.791 831.17 169.921V227H808.288ZM940.745 186.166V129.909H963.627V227H941.441V209.744H940.429C938.238 215.18 934.635 219.625 929.62 223.081C924.648 226.536 918.516 228.264 911.226 228.264C904.863 228.264 899.237 226.853 894.349 224.029C889.503 221.164 885.71 217.013 882.971 211.577C880.232 206.098 878.863 199.482 878.863 191.729V129.909H901.745V188.189C901.745 194.341 903.43 199.23 906.801 202.854C910.173 206.478 914.597 208.29 920.076 208.29C923.447 208.29 926.713 207.468 929.873 205.825C933.034 204.181 935.625 201.737 937.648 198.492C939.713 195.205 940.745 191.097 940.745 186.166ZM987.157 227V129.909H1009.03V146.407H1010.17C1012.19 140.844 1015.54 136.504 1020.22 133.386C1024.89 130.225 1030.48 128.645 1036.97 128.645C1043.54 128.645 1049.08 130.246 1053.59 133.449C1058.14 136.609 1061.35 140.929 1063.2 146.407H1064.21C1066.36 141.013 1069.98 136.715 1075.08 133.512C1080.22 130.267 1086.31 128.645 1093.35 128.645C1102.28 128.645 1109.57 131.468 1115.22 137.115C1120.87 142.762 1123.69 151 1123.69 161.83V227H1100.75V165.37C1100.75 159.344 1099.14 154.94 1095.94 152.159C1092.74 149.336 1088.82 147.924 1084.19 147.924C1078.66 147.924 1074.35 149.652 1071.23 153.107C1068.15 156.521 1066.61 160.966 1066.61 166.445V227H1044.17V164.422C1044.17 159.407 1042.66 155.404 1039.62 152.412C1036.63 149.42 1032.71 147.924 1027.86 147.924C1024.58 147.924 1021.59 148.767 1018.89 150.452C1016.19 152.096 1014.04 154.435 1012.44 157.469C1010.84 160.461 1010.04 163.958 1010.04 167.962V227H987.157Z" fill="white"/>
<g clip-path="url(#clip0_251_5015)">
<path d="M188.325 136.995L210.691 99.7363L270.976 191.921L271.003 209.612L270.807 87.8741C270.664 84.8983 269.055 82.1759 266.487 80.5704L157.953 19.2773C155.414 18.0524 152.194 18.0654 149.66 19.3152C149.318 19.4842 148.996 19.6669 148.689 19.8665L148.311 20.1003L42.9606 80.0378L42.5513 80.2198C42.026 80.4574 41.4947 80.7588 40.9957 81.1096C38.9987 82.5164 37.6718 84.5957 37.2428 86.9285C37.1785 87.282 37.1311 87.642 37.1084 88.0049L37.2739 187.21L93.426 101.762C100.496 90.4313 115.899 86.7818 130.198 86.9804L146.98 87.4157L48.0982 243.106L59.7545 249.693L159.821 87.5734L204.052 87.4157L104.242 253.627L145.835 277.115L150.804 279.92C152.906 280.759 155.384 280.8 157.504 280.051L267.563 217.431L246.521 229.402L188.325 136.995ZM196.858 257.658L154.849 192.926L180.493 150.204L235.664 235.578L196.858 257.658Z" fill="#2D374B"/>
<path d="M154.827 192.924L196.837 257.658L235.643 235.578L180.472 150.203L154.827 192.924Z" fill="#28A0F0"/>
<path d="M270.967 209.627L270.94 191.937L210.655 99.7517L188.289 137.01L246.485 229.417L267.527 217.446C269.592 215.801 270.84 213.385 270.971 210.78L270.967 209.627Z" fill="#28A0F0"/>
<path d="M18.3672 226.3L48.0816 243.109L146.963 87.4199L130.181 86.9847C115.882 86.7862 100.48 90.4357 93.4094 101.766L37.2572 187.213L18.3662 215.71L18.3672 226.3Z" fill="white"/>
<path d="M204.019 87.4243L159.791 87.582L59.7236 249.702L94.6995 269.474L104.211 253.636L204.019 87.4243Z" fill="white"/>
<path d="M289.626 87.1961C289.256 78.1147 284.247 69.8008 276.403 64.9607L166.446 2.87974C158.686 -0.957125 148.991 -0.961767 141.218 2.87694C140.299 3.33163 34.2867 63.6952 34.2867 63.6952C32.8198 64.3855 31.4069 65.2085 30.0771 66.142C23.0738 71.0701 18.8047 78.7271 18.3662 87.1404V215.712L37.2572 187.215L37.0918 88.0097C37.1145 87.647 37.1607 87.2906 37.226 86.938C37.6522 84.6035 38.98 82.5212 40.979 81.1146C41.4781 80.7638 149.301 19.4892 149.644 19.3203C152.179 18.0704 155.398 18.0574 157.936 19.2821L266.47 80.5755C269.038 82.1807 270.647 84.9031 270.791 87.8789V210.769C270.659 213.376 269.61 215.79 267.546 217.437L246.504 229.406L235.647 235.584L196.841 257.663L157.486 280.055C155.367 280.806 152.888 280.765 150.786 279.926L104.224 253.632L94.7126 269.47L136.557 293.123C137.94 293.895 139.174 294.58 140.185 295.137C141.752 296.001 142.819 296.578 143.196 296.756C146.17 298.174 150.449 299 154.305 299C157.841 299 161.288 298.363 164.55 297.109L278.857 232.116C285.418 227.124 289.277 219.599 289.626 211.445V87.1961Z" fill="#96BEDC"/>
</g>
<defs>
<clipPath id="clip0_251_5015">
<rect width="308" height="299" fill="white"/>
</clipPath>
</defs>
</svg>
