<svg width="450" height="450" viewBox="0 0 450 450" fill="none" xmlns="http://www.w3.org/2000/svg">
<g clip-path="url(#clip0_208_2)">
<mask id="mask0_208_2" style="mask-type:luminance" maskUnits="userSpaceOnUse" x="0" y="0" width="450" height="450">
<path d="M450 225C450 100.736 349.264 0 225 0C100.736 0 0 100.736 0 225C0 349.264 100.736 450 225 450C349.264 450 450 349.264 450 225Z" fill="white"/>
</mask>
<g mask="url(#mask0_208_2)">
<path fill-rule="evenodd" clip-rule="evenodd" d="M450 225C450 349.263 349.088 450 224.607 450C106.507 450 9.62215 359.327 0 243.913H297.918V206.087H0C9.62215 90.6734 106.507 0 224.607 0C349.088 0 450 100.736 450 225Z" fill="#0232FF"/>
</g>
</g>
<defs>
<clipPath id="clip0_208_2">
<rect width="450" height="450" fill="white"/>
</clipPath>
</defs>
</svg>
