<svg width="22" height="23" viewBox="0 0 22 23" fill="none" xmlns="http://www.w3.org/2000/svg">
<path d="M14.1938 11.6221C14.2077 11.3488 14.0958 11.0819 13.8827 10.8801C13.6696 10.6783 13.3728 10.5582 13.0575 10.5461C12.9011 10.5517 12.7475 10.584 12.6055 10.6412C12.4635 10.6983 12.3359 10.7792 12.2301 10.8792C12.1242 10.9791 12.0422 11.0962 11.9886 11.2237C11.935 11.3512 11.911 11.4866 11.9178 11.6221C11.9059 11.8955 12.0189 12.1618 12.2323 12.3633C12.4457 12.5648 12.7423 12.6852 13.0575 12.6982C13.3728 12.6861 13.6696 12.5659 13.8827 12.3641C14.0958 12.1623 14.2077 11.8954 14.1938 11.6221ZM8.97983 10.5461C8.82343 10.5517 8.66984 10.584 8.52787 10.6412C8.38589 10.6983 8.25832 10.7792 8.15246 10.8792C8.0466 10.9791 7.96453 11.0962 7.91095 11.2237C7.85737 11.3512 7.83333 11.4866 7.84022 11.6221C7.82828 11.895 7.94085 12.1609 8.15354 12.3624C8.36623 12.5638 8.66191 12.6844 8.97652 12.6982C9.13293 12.6926 9.28651 12.6603 9.42849 12.6031C9.57046 12.546 9.69803 12.4651 9.80389 12.3651C9.90975 12.2652 9.99182 12.1481 10.0454 12.0206C10.099 11.8931 10.123 11.7577 10.1161 11.6221C10.1239 11.4864 10.1005 11.3507 10.0472 11.2229C9.99399 11.095 9.91197 10.9776 9.80594 10.8775C9.69991 10.7774 9.57199 10.6966 9.4296 10.6397C9.28722 10.5828 9.13321 10.5509 8.97652 10.5461H8.97983ZM20.7782 4.4161C20.779 4.15471 20.7203 3.89575 20.6056 3.65401C20.4909 3.41228 20.3223 3.1925 20.1096 3.00723C19.8969 2.82197 19.6441 2.67485 19.3658 2.57427C19.0874 2.4737 18.7889 2.42165 18.4874 2.42108H3.51348C3.21186 2.42165 2.91332 2.47372 2.63492 2.57434C2.35652 2.67496 2.10373 2.82215 1.89099 3.00749C1.67824 3.19283 1.50972 3.41269 1.39504 3.65451C1.28037 3.89633 1.2218 4.15537 1.22267 4.41682V17.5104C1.2219 17.7718 1.28056 18.0307 1.39528 18.2724C1.51 18.5142 1.67855 18.734 1.89128 18.9192C2.10401 19.1045 2.35677 19.2516 2.63511 19.3522C2.91345 19.4528 3.21193 19.5048 3.51348 19.5054H16.1833L15.5908 17.7119C18.8606 20.3469 17.9602 19.6331 20.7749 21.7895L20.7782 4.4161ZM17.5944 13.5985C17.2059 14.0667 16.6914 14.4455 16.0956 14.7021C15.4998 14.9586 14.8406 15.0851 14.1756 15.0706C14.1756 15.0706 13.7733 14.6545 13.4382 14.2858C14.247 14.1198 14.9622 13.7115 15.4575 13.1329C15.0558 13.3657 14.6249 13.5582 14.1731 13.7068C13.0543 14.1018 11.8481 14.276 10.642 14.2169C9.43588 14.1579 8.26003 13.867 7.19965 13.3654C7.1773 13.3525 6.90585 13.2219 6.74115 13.1229C7.21946 13.6897 7.91118 14.0939 8.69679 14.2657C8.36575 14.6337 7.95194 15.0698 7.95194 15.0698C7.28778 15.0857 6.62931 14.9598 6.03456 14.703C5.4398 14.4463 4.92701 14.0668 4.54137 13.5978C4.57759 11.6343 5.12772 9.70364 6.15024 7.95133C7.04998 7.33898 8.14681 6.98379 9.28936 6.93481L9.40108 7.05102C8.32587 7.28243 7.32273 7.71646 6.46308 8.32221C6.46308 8.32221 6.71136 8.206 7.12516 8.04172C8.44896 7.53375 9.88925 7.29494 11.3359 7.34355C12.7825 7.39217 14.1971 7.72692 15.4716 8.32221C14.6551 7.74599 13.7067 7.32664 12.6892 7.09191L12.8456 6.93696C13.9881 6.98595 15.085 7.34113 15.9847 7.95348C17.006 9.70531 17.5553 11.6352 17.5911 13.5978L17.5944 13.5985Z" fill="#0B6CFF"/>
</svg>
