<svg width="24" height="24" viewBox="0 0 24 24" fill="none" xmlns="http://www.w3.org/2000/svg">
<g clip-path="url(#clip0_290_7455)">
<mask id="mask0_290_7455" style="mask-type:luminance" maskUnits="userSpaceOnUse" x="1" y="2" width="22" height="21">
<path d="M23 2H1V23H23V2Z" fill="white"/>
</mask>
<g mask="url(#mask0_290_7455)">
<mask id="mask1_290_7455" style="mask-type:luminance" maskUnits="userSpaceOnUse" x="1" y="2" width="22" height="21">
<path d="M23 2H1V23H23V2Z" fill="white"/>
</mask>
<g mask="url(#mask1_290_7455)">
<path d="M10.9015 19.4888C10.9861 19.489 11.0699 19.5112 11.148 19.5542C11.2262 19.5972 11.2971 19.6602 11.3569 19.7395C11.4166 19.8188 11.464 19.9129 11.4963 20.0165C11.5285 20.12 11.5451 20.2309 11.545 20.343C11.5449 20.4549 11.5281 20.5658 11.4956 20.6692C11.4631 20.7726 11.4155 20.8666 11.3556 20.9457C11.2957 21.0247 11.2245 21.0874 11.1463 21.1301C11.0681 21.1728 10.9843 21.1947 10.8996 21.1946C10.7287 21.1943 10.5649 21.1041 10.4442 20.9439C10.3236 20.7838 10.2559 20.5667 10.2561 20.3405C10.2564 20.1143 10.3245 19.8975 10.4455 19.7378C10.5666 19.5781 10.7306 19.4885 10.9015 19.4888ZM21.0068 14.2152C20.9222 14.2151 20.8384 14.193 20.7602 14.1501C20.6821 14.1071 20.6111 14.0442 20.5513 13.965C20.4915 13.8857 20.4441 13.7917 20.4117 13.6882C20.3794 13.5846 20.3628 13.4737 20.3629 13.3617C20.3629 13.2497 20.3796 13.1388 20.4121 13.0354C20.4445 12.932 20.492 12.838 20.5519 12.7588C20.6118 12.6797 20.6829 12.617 20.7611 12.5742C20.8393 12.5314 20.9231 12.5094 21.0077 12.5095C21.1787 12.5096 21.3425 12.5996 21.4633 12.7597C21.584 12.9198 21.6518 13.1368 21.6517 13.363C21.6516 13.5891 21.5836 13.806 21.4626 13.9658C21.3417 14.1257 21.1777 14.2154 21.0068 14.2152ZM21.0068 10.7261C20.4784 10.7268 19.9718 11.0048 19.5982 11.4993C19.2246 11.9938 19.0144 12.6642 19.014 13.3635C19.014 13.6462 19.0497 13.9277 19.1194 14.2019L12.5368 18.8398C12.3543 18.4891 12.11 18.2023 11.8252 18.0043C11.5403 17.8063 11.2233 17.7029 10.9015 17.7031C10.1416 17.7031 9.44949 18.2793 9.11399 19.1783L3.20056 15.0511C2.5754 14.6168 2.1079 13.2556 2.1574 12.0157C2.18306 11.3691 2.35173 10.8668 2.60931 10.6727C2.77248 10.5514 2.96865 10.5611 3.17765 10.7055L3.21615 10.7334C4.78363 11.8253 9.91149 15.4005 10.1278 15.5327C10.4606 15.7378 10.6457 15.8202 11.2141 15.4635L21.8144 8.16757C21.9702 8.08989 22.1517 7.89216 22.1517 7.59252C22.1517 7.17759 21.8272 7.01384 21.8263 7.01384C21.2231 6.63168 20.2964 6.05783 19.3926 5.49733C17.4602 4.29996 15.2703 2.94362 14.3087 2.27638C13.4782 1.70134 12.81 2.18661 12.6908 2.28366L12.4598 2.43531C8.1313 5.26808 2.33798 9.0653 2.00798 9.33097C1.41856 9.80653 1.05281 10.754 1.00515 11.9296C0.931814 13.7943 1.64956 15.739 2.67715 16.4511L8.93063 20.719C8.99952 21.346 9.23655 21.9191 9.5984 22.3339C9.96028 22.7487 10.4228 22.9772 10.9015 22.9779C11.4243 22.9768 11.9259 22.7041 12.2984 22.2186C12.6709 21.7331 12.8845 21.0736 12.8934 20.3818L19.7812 15.4405C20.1296 15.802 20.5631 15.9998 21.0068 15.9998C21.5352 15.9991 22.0418 15.721 22.4154 15.2266C22.7891 14.7321 22.9992 14.0616 22.9996 13.3623C22.9992 12.663 22.7891 11.9926 22.4154 11.4981C22.0418 11.0036 21.5352 10.7255 21.0068 10.7249" fill="#5D6588"/>
</g>
</g>
</g>
<defs>
<clipPath id="clip0_290_7455">
<rect width="22" height="21" fill="white" transform="translate(1 2)"/>
</clipPath>
</defs>
</svg>
