<svg width="450" height="450" viewBox="0 0 450 450" fill="none" xmlns="http://www.w3.org/2000/svg">
<g clip-path="url(#clip0_125_2)">
<path d="M225 450C349.264 450 450 349.264 450 225C450 100.736 349.264 0 225 0C100.736 0 0 100.736 0 225C0 349.264 100.736 450 225 450Z" fill="#57B3E4"/>
<path d="M210.586 68.2031C218.32 63.9844 230.273 63.9844 238.008 68.2031L317.109 109.688C321.68 112.148 324.492 116.016 324.844 119.531V329.063C324.492 333.281 322.031 337.148 317.109 339.609L238.008 381.445C230.273 385.664 218.32 385.664 210.586 381.445L131.836 339.961C126.914 337.148 124.453 333.281 124.102 329.063V329.414V119.883C124.453 116.016 126.914 112.5 131.836 110.039L210.586 68.2031ZM136.055 236.602V328.359L210.586 367.734C214.805 370.195 219.375 372.305 223.594 372.305H223.945C227.813 372.305 231.68 370.547 235.547 368.789L236.953 368.086L312.891 328.008V237.305L239.063 275.977C231.328 279.844 220.078 280.195 211.992 276.328L211.641 275.977L136.055 236.602ZM111.445 324.844C111.445 332.93 112.5 338.203 114.258 341.719C115.664 344.883 118.125 346.992 122.344 349.805H122.695C123.75 350.508 124.805 351.211 125.859 351.914L127.266 352.969L131.836 355.781L125.508 366.328L120.586 363.164L119.883 362.813C118.477 361.758 117.07 361.055 116.016 360.352C104.063 352.266 99.4922 343.477 99.4922 325.547V324.844H111.445ZM230.977 181.055V266.133C231.68 265.781 232.383 265.781 233.086 265.43L312.188 223.945C312.188 223.945 312.188 223.945 312.539 223.945H312.188L233.086 181.758C232.383 181.406 231.68 181.055 230.977 181.055ZM219.023 181.055C218.32 181.406 217.969 181.406 217.266 181.758L138.164 223.242C138.164 223.242 138.164 223.242 137.813 223.242H138.164L217.266 264.727C217.617 265.078 218.32 265.078 219.023 265.43V181.055ZM136.055 134.297V210.234L208.477 172.266L136.055 134.297ZM312.891 134.297L240.82 171.914L312.891 209.531V134.297ZM232.031 79.1016C227.813 76.9922 220.43 76.9922 216.211 79.1016L137.461 120.586C137.461 120.586 137.461 120.586 137.109 120.586H137.461L216.562 162.07C220.781 164.18 228.164 164.18 232.383 162.07L311.484 120.586C311.484 120.586 311.484 120.586 311.836 120.586H311.484L232.031 79.1016ZM324.844 83.6719L329.766 86.8359L330.469 87.1875C331.875 88.2422 333.281 88.9453 334.336 89.6484C346.289 97.7344 350.859 106.523 350.859 124.453V125.156H338.555C338.555 117.07 337.5 111.797 335.742 108.281C334.336 105.117 331.875 103.008 327.656 100.195H327.305C326.25 99.4922 325.195 98.7891 324.141 98.0859L322.734 97.0313L318.164 94.2187L324.844 83.6719Z" fill="white"/>
</g>
<defs>
<clipPath id="clip0_125_2">
<rect width="450" height="450" fill="white"/>
</clipPath>
</defs>
</svg>
