<svg width="24" height="24" viewBox="0 0 24 24" fill="none" xmlns="http://www.w3.org/2000/svg">
<path fill-rule="evenodd" clip-rule="evenodd" d="M13.2434 2.2496L19.7624 6.9056C20.0636 7.12074 20.0683 7.73243 19.7704 7.95702L11.3038 14.34C10.8317 14.6959 10.2684 14.7047 9.79102 14.3637L4.47454 10.5666C3.8271 10.1958 3.10344 10.8744 3.10344 11.8965C3.10344 12.7185 3.42857 13.4699 3.94325 13.8375L9.27263 17.6438C9.59797 17.1707 10.0509 16.8773 10.5518 16.8773C11.0385 16.8773 11.48 17.1544 11.803 17.604L18.4415 12.5993C18.4233 12.453 18.4138 12.3024 18.4138 12.1486C18.4138 10.734 19.2166 9.58729 20.2069 9.58729C21.1972 9.58729 22 10.734 22 12.1486C22 13.5632 21.1972 14.71 20.2069 14.71C19.7227 14.71 19.2833 14.4358 18.9606 13.9902L12.3185 18.9977C12.3359 19.1409 12.3449 19.2883 12.3449 19.4387C12.3449 20.8533 11.5421 22 10.5518 22C9.56154 22 8.75874 20.8533 8.75874 19.4387C8.75874 19.3078 8.76561 19.1792 8.77887 19.0536L3.37243 15.1922C2.53132 14.5914 2 13.3634 2 12.0202V11.272C2 10.2489 2.3964 9.30988 3.02978 8.83243L11.7306 2.27333C12.2026 1.91745 12.7659 1.90862 13.2434 2.2496ZM10.5518 20.4238C10.9327 20.4238 11.2415 19.9827 11.2415 19.4387C11.2415 18.8946 10.9327 18.4535 10.5518 18.4535C10.171 18.4535 9.86219 18.8946 9.86219 19.4387C9.86219 19.9827 10.171 20.4238 10.5518 20.4238ZM20.8966 12.1486C20.8966 12.6927 20.5878 13.1338 20.2069 13.1338C19.826 13.1338 19.5172 12.6927 19.5172 12.1486C19.5172 11.6045 19.826 11.1635 20.2069 11.1635C20.5878 11.1635 20.8966 11.6045 20.8966 12.1486Z" fill="#0B6CFF"/>
</svg>
