<svg width="24" height="24" viewBox="0 0 24 24" fill="none" xmlns="http://www.w3.org/2000/svg">
<path fill-rule="evenodd" clip-rule="evenodd" d="M13.3677 1.26208L20.5386 6.15088C20.87 6.37678 20.8752 7.01905 20.5475 7.25487L11.2342 13.957C10.7149 14.3307 10.0953 14.34 9.57012 13.9819L3.722 9.99496C3.00981 9.60555 2.21379 10.3182 2.21379 11.3913C2.21379 12.2544 2.57142 13.0434 3.13757 13.4294L8.99989 17.426C9.35777 16.9293 9.85602 16.6212 10.407 16.6212C10.9424 16.6212 11.428 16.9121 11.7833 17.3842L19.0856 12.1293C19.0656 11.9756 19.0552 11.8175 19.0552 11.6561C19.0552 10.1707 19.9382 8.96666 21.0276 8.96666C22.1169 8.96666 23 10.1707 23 11.6561C23 13.1414 22.1169 14.3455 21.0276 14.3455C20.4949 14.3455 20.0116 14.0576 19.6567 13.5897L12.3503 18.8476C12.3695 18.998 12.3794 19.1527 12.3794 19.3106C12.3794 20.7959 11.4963 22 10.407 22C9.31769 22 8.43462 20.7959 8.43462 19.3106C8.43462 19.1732 8.44217 19.0381 8.45676 18.9062L2.50967 14.8518C1.58445 14.221 1 12.9316 1 11.5212V10.7356C1 9.66134 1.43604 8.67537 2.13276 8.17405L11.7036 1.287C12.2229 0.913319 12.8425 0.904054 13.3677 1.26208ZM10.407 20.345C10.826 20.345 11.1656 19.8819 11.1656 19.3106C11.1656 18.7393 10.826 18.2762 10.407 18.2762C9.98805 18.2762 9.64841 18.7393 9.64841 19.3106C9.64841 19.8819 9.98805 20.345 10.407 20.345ZM21.7862 11.6561C21.7862 12.2273 21.4465 12.6905 21.0276 12.6905C20.6086 12.6905 20.269 12.2273 20.269 11.6561C20.269 11.0848 20.6086 10.6217 21.0276 10.6217C21.4465 10.6217 21.7862 11.0848 21.7862 11.6561Z" fill="#0B6CFF"/>
</svg>
