<svg width="450" height="450" viewBox="0 0 450 450" fill="none" xmlns="http://www.w3.org/2000/svg">
<g clip-path="url(#clip0_161_155)">
<path d="M24.4986 327.02L20.9828 320.27H79.9164L81.3667 322.317C102.895 353.93 134.284 377.537 170.624 389.462C206.964 401.388 246.221 400.963 282.295 388.254C318.368 375.545 349.219 351.265 370.058 319.194C390.897 287.124 400.544 249.062 397.503 210.937L292.293 210.757L323.012 297.633L285.393 349.318L217.956 157.935L439.956 158.363L440.923 161.738C443.459 170.171 445.437 178.763 446.834 187.457C448.966 199.879 449.998 212.463 449.954 225.067C449.881 278.191 431.045 329.579 396.756 370.155C362.467 410.731 314.951 437.883 262.584 446.816C249.962 448.86 237.181 449.91 224.394 449.955C182.958 449.985 142.328 438.507 107.032 416.8C71.7363 395.094 43.1663 364.013 24.4986 327.02ZM62.3374 291.097H9.64436L8.74343 287.722C6.34333 279.398 4.48525 270.927 3.18407 262.363C-5.68977 209.403 4.6551 155.016 32.3652 109.02C60.0753 63.0234 103.331 28.4494 154.298 11.5399C205.264 -5.36966 260.58 -3.50062 310.289 16.8095C359.998 37.1195 400.823 74.532 425.366 122.293L428.86 129.044H369.574L368.124 126.996C346.556 95.4448 315.168 71.8976 278.845 60.0112C242.521 48.1248 203.288 48.5646 167.24 61.2617C131.192 73.9588 100.333 98.2031 79.4769 130.23C58.6206 162.256 48.9341 200.273 51.8999 238.377L157.55 238.557L126.83 151.68L164.625 99.9945L231.865 291.378L62.3374 291.097Z" fill="url(#paint0_linear_161_155)"/>
<g clip-path="url(#clip1_161_155)">
<path d="M385.398 345.97L399.34 322.045L436.92 381.24L436.937 392.6L436.815 314.427C436.726 312.517 435.723 310.768 434.122 309.738L366.464 270.379C364.882 269.592 362.875 269.601 361.295 270.403C361.082 270.512 360.881 270.629 360.689 270.757L360.454 270.907L294.781 309.396L294.526 309.512C294.198 309.665 293.867 309.858 293.556 310.084C292.311 310.987 291.484 312.322 291.217 313.82C291.176 314.047 291.147 314.278 291.133 314.511L291.236 378.215L326.24 323.345C330.647 316.07 340.249 313.726 349.163 313.854L359.624 314.133L297.984 414.108L305.25 418.338L367.629 314.234L395.201 314.133L332.982 420.864L358.91 435.947L362.008 437.748C363.318 438.287 364.863 438.313 366.185 437.832L434.793 397.621L421.676 405.308L385.398 345.97ZM390.717 423.452L364.53 381.886L380.515 354.452L414.908 409.274L390.717 423.452Z" fill="#2D374B"/>
<path d="M364.516 381.884L390.704 423.452L414.894 409.274L380.502 354.451L364.516 381.884Z" fill="#28A0F0"/>
<path d="M436.914 392.61L436.898 381.251L399.317 322.055L385.375 345.98L421.653 405.318L434.77 397.631C436.058 396.575 436.835 395.023 436.917 393.35L436.914 392.61Z" fill="#28A0F0"/>
<path d="M279.45 403.316L297.973 414.11L359.614 314.136L349.152 313.856C340.238 313.729 330.637 316.072 326.229 323.348L291.225 378.217L279.449 396.516L279.45 403.316Z" fill="white"/>
<path d="M395.181 314.139L367.61 314.24L305.23 418.344L327.034 431.04L332.963 420.87L395.181 314.139Z" fill="white"/>
<path d="M448.546 313.992C448.316 308.161 445.193 302.822 440.303 299.714L371.759 259.849C366.921 257.385 360.877 257.382 356.032 259.847C355.459 260.139 289.374 298.901 289.374 298.901C288.459 299.345 287.578 299.873 286.75 300.472C282.384 303.637 279.723 308.554 279.449 313.956V396.517L291.225 378.218L291.122 314.515C291.136 314.282 291.165 314.053 291.206 313.826C291.472 312.327 292.299 310.99 293.545 310.087C293.857 309.862 361.071 270.515 361.285 270.406C362.865 269.604 364.872 269.595 366.454 270.382L434.111 309.741C435.712 310.772 436.715 312.52 436.805 314.431V393.343C436.722 395.017 436.068 396.568 434.782 397.625L421.665 405.311L414.897 409.278L390.706 423.456L366.173 437.834C364.852 438.317 363.307 438.29 361.997 437.752L332.971 420.868L327.042 431.038L353.126 446.226C353.989 446.722 354.758 447.162 355.388 447.52C356.365 448.074 357.03 448.445 357.265 448.559C359.119 449.47 361.787 450 364.19 450C366.394 450 368.543 449.591 370.577 448.786L441.833 407.051C445.923 403.846 448.329 399.013 448.546 393.778V313.992Z" fill="#96BEDC"/>
</g>
</g>
<defs>
<linearGradient id="paint0_linear_161_155" x1="359.982" y1="39.2273" x2="101.31" y2="409.468" gradientUnits="userSpaceOnUse">
<stop stop-color="#03D1CF" stop-opacity="0.988"/>
<stop offset="1" stop-color="#4E09F8"/>
</linearGradient>
<clipPath id="clip0_161_155">
<rect width="450" height="450" fill="white"/>
</clipPath>
<clipPath id="clip1_161_155">
<rect width="192" height="192" fill="white" transform="translate(268 258)"/>
</clipPath>
</defs>
</svg>
