<svg width="450" height="450" viewBox="0 0 450 450" fill="none" xmlns="http://www.w3.org/2000/svg">
<g clip-path="url(#clip0_161_155)">
<path d="M24.4986 327.02L20.9828 320.27H79.9164L81.3667 322.317C102.895 353.93 134.284 377.537 170.624 389.462C206.964 401.388 246.221 400.963 282.295 388.254C318.368 375.545 349.219 351.265 370.058 319.194C390.897 287.124 400.544 249.062 397.503 210.937L292.293 210.757L323.012 297.633L285.393 349.318L217.956 157.935L439.956 158.363L440.923 161.738C443.459 170.171 445.437 178.763 446.834 187.457C448.966 199.879 449.998 212.463 449.954 225.067C449.88 278.191 431.045 329.579 396.756 370.155C362.467 410.731 314.951 437.883 262.584 446.816C249.962 448.86 237.181 449.91 224.394 449.955C182.958 449.985 142.328 438.507 107.032 416.8C71.7363 395.094 43.1663 364.013 24.4986 327.02ZM62.3374 291.097H9.64436L8.74343 287.722C6.34333 279.398 4.48525 270.927 3.18407 262.363C-5.68977 209.403 4.6551 155.016 32.3652 109.02C60.0753 63.0234 103.331 28.4494 154.298 11.5399C205.264 -5.36966 260.58 -3.50062 310.289 16.8095C359.998 37.1195 400.823 74.532 425.366 122.293L428.86 129.044H369.574L368.124 126.996C346.556 95.4448 315.168 71.8976 278.845 60.0112C242.521 48.1248 203.288 48.5646 167.24 61.2617C131.192 73.9588 100.333 98.2031 79.477 130.23C58.6206 162.256 48.9341 200.273 51.8999 238.377L157.55 238.557L126.83 151.68L164.625 99.9945L231.865 291.378L62.3374 291.097Z" fill="url(#paint0_linear_161_155)"/>
</g>
<defs>
<linearGradient id="paint0_linear_161_155" x1="359.982" y1="39.2273" x2="101.31" y2="409.468" gradientUnits="userSpaceOnUse">
<stop stop-color="#03D1CF" stop-opacity="0.988"/>
<stop offset="1" stop-color="#4E09F8"/>
</linearGradient>
<clipPath id="clip0_161_155">
<rect width="450" height="450" fill="white"/>
</clipPath>
</defs>
</svg>
