<svg width="644" height="657" viewBox="0 0 644 657" fill="none" xmlns="http://www.w3.org/2000/svg">
<g clip-path="url(#clip0_244_4443)">
<path fill-rule="evenodd" clip-rule="evenodd" d="M370 643.876C511.813 643.876 626.774 535.863 626.774 402.621C626.774 269.38 511.813 161.366 370 161.366C228.187 161.366 113.226 269.38 113.226 402.621C113.226 535.863 228.187 643.876 370 643.876ZM370 657.242C519.669 657.242 641 543.244 641 402.621C641 261.998 519.669 148 370 148C220.331 148 99 261.998 99 402.621C99 543.244 220.331 657.242 370 657.242Z" fill="url(#paint0_linear_244_4443)" fill-opacity="0.3"/>
<path fill-rule="evenodd" clip-rule="evenodd" d="M258.765 278.068C185.551 335.789 176.001 438.345 237.435 507.134C298.869 575.923 408.022 584.895 481.236 527.174C554.449 469.454 563.999 366.898 502.565 298.109C441.132 229.32 331.979 220.347 258.765 278.068ZM254.193 272.949C177.97 333.042 168.027 439.813 231.986 511.43C295.945 583.046 409.585 592.387 485.808 532.294C562.031 472.201 571.973 365.429 508.014 293.813C444.056 222.197 330.416 212.855 254.193 272.949Z" fill="url(#paint1_linear_244_4443)" fill-opacity="0.3"/>
<path fill-rule="evenodd" clip-rule="evenodd" d="M317.59 343.936C283.094 371.132 278.595 419.453 307.54 451.864C336.485 484.275 387.914 488.502 422.41 461.306C456.906 434.11 461.405 385.789 432.46 353.378C403.515 320.968 352.086 316.74 317.59 343.936ZM313.018 338.817C275.513 368.385 270.621 420.921 302.091 456.159C333.562 491.398 389.477 495.994 426.982 466.426C464.487 436.857 469.379 384.321 437.909 349.083C406.438 313.844 350.523 309.248 313.018 338.817Z" fill="url(#paint2_linear_244_4443)" fill-opacity="0.3"/>
<path opacity="0.5" d="M551.023 359.296L566.086 368.015V402.83L551.023 394.126V359.296Z" fill="#2775CA"/>
<path opacity="0.2" d="M535.961 368.015L551.024 376.719V394.126L535.961 385.423V368.015Z" fill="#2775CA"/>
<path opacity="0.5" d="M520.897 307.059L535.96 315.778V385.423L520.897 376.719V307.059Z" fill="#2775CA"/>
<path opacity="0.2" d="M505.819 280.948L520.897 289.652V376.719L505.819 368.015V280.948Z" fill="#2775CA"/>
<path opacity="0.5" d="M490.757 289.652L505.819 298.355V368.015L490.757 359.296V289.652Z" fill="#2775CA"/>
<path opacity="0.2" d="M475.693 228.711L490.756 237.415V359.296L475.693 350.592V228.711Z" fill="#2775CA"/>
<path opacity="0.5" d="M460.632 237.415L475.694 246.119V350.593L460.632 341.889V237.415Z" fill="#2775CA"/>
<path opacity="0.2" d="M445.569 246.118L460.632 254.822V341.888L445.569 333.185V246.118Z" fill="#2775CA"/>
<path opacity="0.5" d="M430.492 202.585L445.57 211.304V333.186L430.492 324.482V202.585Z" fill="#2775CA"/>
<path opacity="0.2" d="M415.429 159.067L430.491 167.77V324.482L415.429 315.762V159.067Z" fill="#2775CA"/>
<path opacity="0.5" d="M400.366 167.771L415.429 176.474V315.763L400.366 307.059V167.771Z" fill="#2775CA"/>
<path opacity="0.2" d="M385.304 124.237L400.366 132.94V307.059L385.304 298.355V124.237Z" fill="#2775CA"/>
<path opacity="0.5" d="M370.225 115.533L385.303 124.237V298.355L370.225 289.652V115.533Z" fill="#2775CA"/>
<path opacity="0.2" d="M355.163 72L370.226 80.7036V289.652L355.163 280.948V72Z" fill="#2775CA"/>
<path opacity="0.4" d="M369.96 532C446.176 532 507.962 496.296 507.962 452.254C507.962 408.211 446.176 372.507 369.96 372.507C293.744 372.507 231.959 408.211 231.959 452.254C231.959 496.296 293.744 532 369.96 532Z" fill="#052F50"/>
<path d="M369.961 500.294C456.708 500.294 527.031 459.657 527.031 409.528C527.031 359.399 456.708 318.762 369.961 318.762C283.213 318.762 212.891 359.399 212.891 409.528C212.891 459.657 283.213 500.294 369.961 500.294Z" fill="url(#paint3_linear_244_4443)"/>
<path opacity="0.48" d="M527.047 379.641H523.165C516.86 363.477 502.823 348.106 481.036 335.533C419.699 300.081 320.239 300.081 258.979 335.533C238.404 347.422 224.817 361.783 217.969 376.968H213.046V397.095C211.82 421.201 227.131 445.54 258.979 463.926C320.317 499.362 419.776 499.362 481.114 463.926C511.782 446.192 527.125 422.972 527.125 399.737L527.047 379.641Z" fill="url(#paint4_linear_244_4443)"/>
<path opacity="0.48" d="M523.165 371.838C522.948 371.279 522.715 370.719 522.466 370.16V356.933H514.236V355.985C512.086 353.098 509.752 350.351 507.249 347.764V356.933H502.59V343.21C500.406 341.22 498.066 339.272 495.571 337.366V356.965H490.913V333.884C488.661 332.33 486.254 330.776 483.863 329.315V356.887H479.204V326.58C476.906 325.285 474.551 324.041 472.139 322.85V356.887H467.48V320.689C465.151 319.653 462.791 318.617 460.399 317.581V356.887H455.741V325.103H448.644V356.933H443.986V333.884H436.858V356.98H432.2V342.619H425.057V356.98H420.491V351.369H413.395V356.98H326.653V351.369H319.479V356.98H314.913V342.619H307.801V356.98H303.143V333.884H296.015V356.98H291.357V325.103H284.26V356.933H279.602V317.596C277.21 318.57 274.85 319.606 272.521 320.705V356.98H267.862V322.865C265.455 324.062 263.095 325.29 260.797 326.58V356.933H256.138V329.315C253.685 330.786 251.335 332.304 249.088 333.869V356.933H244.43V337.288C241.93 339.184 239.6 341.143 237.411 343.132V356.933H232.752V347.608C230.258 350.199 227.925 352.939 225.764 355.814V356.856H217.534V369.056H214.041V402.798C215.403 409.098 217.756 415.142 221.013 420.703V399.674H225.764V427.914C227.916 430.791 230.25 433.527 232.752 436.105V399.674H237.411V440.674C239.6 442.648 241.945 444.607 244.43 446.503V399.674H249.088V449.922C251.345 451.476 253.695 452.999 256.138 454.491V399.674H260.797V457.18C263.095 458.455 265.45 459.693 267.862 460.895V399.674H272.521V463.133C274.85 464.169 277.21 465.205 279.602 466.241V399.721H284.26V468.106C286.589 468.992 288.919 469.831 291.357 470.64V399.674H296.015V472.007C298.376 472.738 300.674 473.422 303.143 474.074V399.674H307.801V475.318C310.162 475.893 312.537 476.452 314.944 476.965V399.721H319.51V477.913C321.886 478.38 324.277 478.799 326.684 479.203V399.674H331.234V479.856C333.61 480.214 336.016 480.524 338.423 480.82V399.674H342.942V481.317C345.334 481.55 347.74 481.752 350.163 481.939V399.674H354.651V482.234C357.073 482.358 359.48 482.467 361.902 482.545V399.674H366.375V482.638C368.818 482.638 371.256 482.638 373.688 482.638V399.674H378.161V482.545C380.583 482.545 382.99 482.358 385.412 482.234V399.674H389.9V481.939C392.323 481.752 394.729 481.55 397.121 481.301V399.674H401.64V480.804C404.047 480.524 406.453 480.198 408.829 479.856V399.674H413.395V479.141C415.802 478.753 418.193 478.317 420.569 477.851V399.674H425.134V476.872C427.541 476.344 429.917 475.8 432.277 475.209V399.674H436.936V474.059C439.327 473.406 441.703 472.707 444.063 471.992V399.674H448.722V470.5C451.113 469.707 453.489 468.945 455.818 467.982V399.674H460.477V466.163C462.868 465.184 465.229 464.174 467.558 463.055V399.674H472.216V460.895C474.629 459.693 476.984 458.455 479.282 457.18V399.674H483.94V454.46C486.394 452.968 488.744 451.44 490.99 449.875V399.674H495.649V446.456C498.133 444.539 500.473 442.591 502.668 440.612V399.674H507.326V436.058C509.833 433.474 512.167 430.728 514.314 427.837V399.674H518.988V420.641C522.271 415.031 524.625 408.927 525.96 402.565V371.854L523.165 371.838Z" fill="url(#paint5_linear_244_4443)"/>
<path d="M369.961 462.636C456.708 462.636 527.031 421.998 527.031 371.87C527.031 321.741 456.708 281.104 369.961 281.104C283.213 281.104 212.891 321.741 212.891 371.87C212.891 421.998 283.213 462.636 369.961 462.636Z" fill="url(#paint6_linear_244_4443)"/>
<path opacity="0.3" d="M370.023 281.041C334.432 281.041 298.841 287.989 269.865 301.868L223 403.824C230.64 415.558 242.581 426.547 258.902 435.981C269.434 441.983 280.554 446.889 292.086 450.621L370.023 281.041Z" fill="#2775CA"/>
<path opacity="0.3" d="M414.03 284.74L333.406 460.149C352.889 462.797 372.602 463.318 392.197 461.703L466.407 300.236C449.679 292.858 432.078 287.65 414.03 284.74Z" fill="#2775CA"/>
<g opacity="0.05">
<path opacity="0.05" d="M366.961 454.631C443.786 454.631 506.065 418.642 506.065 374.247C506.065 329.852 443.786 293.863 366.961 293.863C290.136 293.863 227.857 329.852 227.857 374.247C227.857 418.642 290.136 454.631 366.961 454.631Z" fill="url(#paint7_linear_244_4443)"/>
<g opacity="0.05">
<path opacity="0.05" d="M118.491 373.905L117 373.035L359.337 233L360.828 233.87L118.491 373.905Z" fill="#0C30E9"/>
<path opacity="0.05" d="M122.761 376.36L121.27 375.505L363.607 235.471L365.098 236.326L122.761 376.36Z" fill="#0C30E9"/>
<path opacity="0.05" d="M127.032 378.832L125.541 377.977L367.878 237.943L369.369 238.797L127.032 378.832Z" fill="#0C30E9"/>
<path opacity="0.05" d="M131.302 381.303L129.811 380.448L372.148 240.414L373.639 241.268L131.302 381.303Z" fill="#0C30E9"/>
<path opacity="0.05" d="M135.572 383.774L134.082 382.904L376.418 242.869L377.909 243.74L135.572 383.774Z" fill="#0C30E9"/>
<path opacity="0.05" d="M139.842 386.23L138.352 385.375L380.688 245.34L382.179 246.195L139.842 386.23Z" fill="#0C30E9"/>
<path opacity="0.05" d="M144.113 388.701L142.622 387.846L384.959 247.811L386.434 248.666L144.113 388.701Z" fill="#0C30E9"/>
<path opacity="0.05" d="M148.383 391.172L146.893 390.317L389.229 250.283L390.705 251.138L148.383 391.172Z" fill="#0C30E9"/>
<path opacity="0.05" d="M152.653 393.644L151.163 392.773L393.499 252.739L394.975 253.594L152.653 393.644Z" fill="#0C30E9"/>
<path opacity="0.05" d="M156.924 396.099L155.433 395.244L397.77 255.21L399.245 256.065L156.924 396.099Z" fill="#0C30E9"/>
<path opacity="0.05" d="M161.178 398.57L159.703 397.715L402.04 257.681L403.515 258.536L161.178 398.57Z" fill="#0C30E9"/>
<path opacity="0.05" d="M165.449 401.041L163.974 400.187L406.311 260.152L407.786 261.007L165.449 401.041Z" fill="#0C30E9"/>
<path opacity="0.05" d="M169.719 403.497L168.244 402.642L410.581 262.607L412.056 263.462L169.719 403.497Z" fill="#0C30E9"/>
<path opacity="0.05" d="M173.99 405.968L172.515 405.113L414.852 265.079L416.327 265.934L173.99 405.968Z" fill="#0C30E9"/>
<path opacity="0.05" d="M178.26 408.439L176.785 407.584L419.122 267.55L420.597 268.405L178.26 408.439Z" fill="#0C30E9"/>
<path opacity="0.05" d="M182.531 410.91L181.04 410.056L423.377 270.006L424.868 270.876L182.531 410.91Z" fill="#0C30E9"/>
<path opacity="0.05" d="M186.801 413.382L185.31 412.512L427.647 272.477L429.138 273.332L186.801 413.382Z" fill="#0C30E9"/>
<path opacity="0.05" d="M191.071 415.838L189.581 414.983L431.917 274.949L433.408 275.803L191.071 415.838Z" fill="#0C30E9"/>
<path opacity="0.05" d="M195.341 418.309L193.851 417.454L436.187 277.419L437.678 278.274L195.341 418.309Z" fill="#0C30E9"/>
<path opacity="0.05" d="M199.612 420.78L198.121 419.91L440.458 279.875L441.949 280.745L199.612 420.78Z" fill="#0C30E9"/>
<path opacity="0.05" d="M203.882 423.235L202.392 422.38L444.728 282.346L446.219 283.201L203.882 423.235Z" fill="#0C30E9"/>
<path opacity="0.05" d="M208.152 425.707L206.662 424.852L448.998 284.817L450.489 285.672L208.152 425.707Z" fill="#0C30E9"/>
<path opacity="0.05" d="M212.423 428.178L210.932 427.323L453.269 287.289L454.76 288.144L212.423 428.178Z" fill="#0C30E9"/>
<path opacity="0.05" d="M216.693 430.649L215.202 429.794L457.539 289.744L459.03 290.615L216.693 430.649Z" fill="#0C30E9"/>
<path opacity="0.05" d="M220.963 433.104L219.473 432.25L461.81 292.215L463.3 293.07L220.963 433.104Z" fill="#0C30E9"/>
<path opacity="0.05" d="M225.234 435.575L223.743 434.721L466.08 294.686L467.555 295.541L225.234 435.575Z" fill="#0C30E9"/>
<path opacity="0.05" d="M229.504 438.047L228.014 437.192L470.351 297.158L471.826 298.012L229.504 438.047Z" fill="#0C30E9"/>
<path opacity="0.05" d="M233.759 440.518L232.284 439.648L474.621 299.613L476.096 300.484L233.759 440.518Z" fill="#0C30E9"/>
<path opacity="0.05" d="M238.029 442.974L236.554 442.119L478.891 302.085L480.366 302.939L238.029 442.974Z" fill="#0C30E9"/>
<path opacity="0.05" d="M242.299 445.445L240.824 444.59L483.161 304.555L484.636 305.41L242.299 445.445Z" fill="#0C30E9"/>
<path opacity="0.05" d="M246.57 447.916L245.095 447.061L487.432 307.026L488.907 307.881L246.57 447.916Z" fill="#0C30E9"/>
<path opacity="0.05" d="M250.84 450.387L249.365 449.517L491.702 309.483L493.177 310.338L250.84 450.387Z" fill="#0C30E9"/>
<path opacity="0.05" d="M255.11 452.843L253.635 451.988L495.957 311.954L497.447 312.808L255.11 452.843Z" fill="#0C30E9"/>
<path opacity="0.05" d="M259.38 455.314L257.905 454.46L500.242 314.425L501.717 315.28L259.38 455.314Z" fill="#0C30E9"/>
<path opacity="0.05" d="M263.651 457.786L262.176 456.931L504.497 316.881L505.988 317.751L263.651 457.786Z" fill="#0C30E9"/>
<path opacity="0.05" d="M267.921 460.257L266.446 459.386L508.768 319.352L510.258 320.222L267.921 460.257Z" fill="#0C30E9"/>
<path opacity="0.05" d="M272.192 462.712L270.701 461.857L513.038 321.823L514.529 322.678L272.192 462.712Z" fill="#0C30E9"/>
<path opacity="0.05" d="M276.462 465.184L274.972 464.329L517.309 324.295L518.799 325.15L276.462 465.184Z" fill="#0C30E9"/>
<path opacity="0.05" d="M280.733 467.655L279.242 466.8L521.579 326.75L523.07 327.62L280.733 467.655Z" fill="#0C30E9"/>
<path opacity="0.05" d="M285.002 470.126L283.512 469.256L525.849 329.221L527.339 330.092L285.002 470.126Z" fill="#0C30E9"/>
<path opacity="0.05" d="M289.273 472.581L287.782 471.727L530.119 331.692L531.61 332.547L289.273 472.581Z" fill="#0C30E9"/>
<path opacity="0.05" d="M293.544 475.052L292.054 474.198L534.391 334.163L535.881 335.018L293.544 475.052Z" fill="#0C30E9"/>
<path opacity="0.05" d="M297.814 477.524L296.323 476.67L538.66 336.635L540.151 337.49L297.814 477.524Z" fill="#0C30E9"/>
<path opacity="0.05" d="M302.084 479.996L300.594 479.125L542.931 339.091L544.421 339.946L302.084 479.996Z" fill="#0C30E9"/>
<path opacity="0.05" d="M306.355 482.451L304.864 481.596L547.201 341.562L548.692 342.417L306.355 482.451Z" fill="#0C30E9"/>
<path opacity="0.05" d="M310.626 484.922L309.135 484.067L551.472 344.033L552.962 344.888L310.626 484.922Z" fill="#0C30E9"/>
<path opacity="0.05" d="M314.895 487.393L313.404 486.538L555.741 346.488L557.232 347.359L314.895 487.393Z" fill="#0C30E9"/>
<path opacity="0.05" d="M319.166 489.849L317.675 488.994L560.012 348.959L561.487 349.814L319.166 489.849Z" fill="#0C30E9"/>
<path opacity="0.05" d="M323.436 492.32L321.945 491.466L564.282 351.431L565.757 352.286L323.436 492.32Z" fill="#0C30E9"/>
<path opacity="0.05" d="M327.69 494.791L326.215 493.937L568.552 353.902L570.027 354.757L327.69 494.791Z" fill="#0C30E9"/>
<path opacity="0.05" d="M331.961 497.263L330.485 496.408L572.822 356.358L574.297 357.228L331.961 497.263Z" fill="#0C30E9"/>
<path opacity="0.05" d="M336.232 499.718L334.757 498.863L577.094 358.829L578.569 359.684L336.232 499.718Z" fill="#0C30E9"/>
<path opacity="0.05" d="M340.503 502.189L339.027 501.334L581.364 361.3L582.839 362.155L340.503 502.189Z" fill="#0C30E9"/>
<path opacity="0.05" d="M344.772 504.661L343.297 503.806L585.634 363.772L587.109 364.627L344.772 504.661Z" fill="#0C30E9"/>
<path opacity="0.05" d="M349.042 507.132L347.551 506.262L589.888 366.228L591.378 367.098L349.042 507.132Z" fill="#0C30E9"/>
<path opacity="0.05" d="M353.312 509.588L351.821 508.733L594.158 368.698L595.649 369.553L353.312 509.588Z" fill="#0C30E9"/>
<path opacity="0.05" d="M357.583 512.058L356.092 511.204L598.429 371.169L599.919 372.024L357.583 512.058Z" fill="#0C30E9"/>
<path opacity="0.05" d="M361.852 514.53L360.361 513.675L602.698 373.641L604.189 374.495L361.852 514.53Z" fill="#0C30E9"/>
<path opacity="0.05" d="M366.123 517L364.632 516.13L606.969 376.096L608.459 376.966L366.123 517Z" fill="#0C30E9"/>
<path opacity="0.05" d="M370.393 519.457L368.902 518.602L611.239 378.568L612.73 379.423L370.393 519.457Z" fill="#0C30E9"/>
<path opacity="0.05" d="M374.663 521.928L373.172 521.073L615.509 381.039L616.999 381.894L374.663 521.928Z" fill="#0C30E9"/>
</g>
</g>
<mask id="mask0_244_4443" style="mask-type:luminance" maskUnits="userSpaceOnUse" x="241" y="279" width="207" height="186">
<path d="M387.518 296.189C335.661 266.813 274.455 276.836 250.811 318.575C227.167 360.315 250.038 417.964 301.896 447.34C353.753 476.715 414.958 466.692 438.602 424.953C462.246 383.214 439.375 325.564 387.518 296.189Z" fill="white"/>
</mask>
<g mask="url(#mask0_244_4443)">
<mask id="mask1_244_4443" style="mask-type:luminance" maskUnits="userSpaceOnUse" x="270" y="284" width="119" height="118">
<path d="M270.474 366.609L339.453 284.473L388.082 318.943L319.102 401.079L270.474 366.609Z" fill="#2775CA"/>
</mask>
<g mask="url(#mask1_244_4443)">
<path d="M385.385 315.699C387.272 317.097 388.871 318.735 390.181 320.581C387.545 320.148 384.784 320.422 382.232 321.451C372.722 325.271 364.239 330.279 357.016 336.33C351.397 341.041 346.234 346.032 341.671 351.172C333.514 360.362 327.4 369.852 323.499 379.382C322.329 382.25 321.299 385.251 320.455 388.299C320.249 389.042 320.012 389.757 319.781 390.451C318.973 392.887 317.961 395.942 319.294 399.078C317.389 398.326 315.61 397.35 313.979 396.143C298.903 384.974 302.319 358.253 321.518 336.163C315.827 332.933 311.535 334.046 303.133 339.673C301.82 340.548 300.006 340.487 298.743 339.515C297.049 338.216 297.027 335.859 298.694 334.573C305.89 329.025 316.348 328.277 324.595 332.811C344.145 312.581 370.784 304.883 385.385 315.699Z" fill="#3594FC"/>
</g>
<mask id="mask2_244_4443" style="mask-type:luminance" maskUnits="userSpaceOnUse" x="309" y="314" width="158" height="144">
<path d="M309.59 393.081L379.935 314.4L466.8 378.656L396.455 457.336L309.59 393.081Z" fill="#2775CA"/>
</mask>
<g mask="url(#mask2_244_4443)">
<path d="M343.153 402.691C354.25 408.905 372.279 416.325 395.029 416.266C396.567 416.259 397.031 418.275 395.533 418.46C382.176 420.089 361.561 419.168 341.874 404.405C340.621 403.467 341.776 401.92 343.153 402.691ZM386.28 325.431C376.556 328.772 367.61 333.463 360.017 339.541C345.474 351.186 332.46 366.22 326.246 383.276C325.153 386.273 324.26 389.343 323.561 392.473C322.405 397.597 320.18 400.674 325.47 404.709C325.692 404.878 325.908 405.038 326.13 405.208C328.996 407.36 331.973 409.397 335.016 411.338C344.991 417.666 355.891 422.953 367.304 426.16C376.758 428.816 386.546 429.966 395.893 429.006C401.083 428.471 406.083 427.298 410.754 425.576C412.722 424.852 423.989 417.683 425.004 418.053C425.004 418.053 429.425 419.682 431.378 418.214L431.402 418.232C431.493 418.151 431.567 418.069 431.637 417.983C431.715 417.904 431.789 417.821 431.854 417.726L431.83 417.709C433.015 415.667 430.36 412.062 430.36 412.062C451.437 372.658 412.315 338.505 397.439 327.416C397.106 327.17 396.766 326.94 396.415 326.728C393.299 324.84 389.488 324.332 386.28 325.431Z" fill="#3594FC"/>
</g>
</g>
<mask id="mask3_244_4443" style="mask-type:luminance" maskUnits="userSpaceOnUse" x="241" y="279" width="207" height="186">
<path d="M387.518 296.189C335.661 266.813 274.455 276.836 250.811 318.575C227.167 360.315 250.038 417.964 301.896 447.34C353.753 476.715 414.958 466.692 438.602 424.953C462.246 383.214 439.375 325.564 387.518 296.189Z" fill="white"/>
</mask>
<g mask="url(#mask3_244_4443)">
<mask id="mask4_244_4443" style="mask-type:luminance" maskUnits="userSpaceOnUse" x="270" y="284" width="119" height="118">
<path d="M270.474 366.609L339.453 284.473L388.082 318.943L319.102 401.079L270.474 366.609Z" fill="#2775CA"/>
</mask>
<g mask="url(#mask4_244_4443)">
<path d="M385.385 315.699C387.272 317.097 388.871 318.735 390.181 320.581C387.545 320.148 384.784 320.422 382.232 321.451C372.722 325.271 364.239 330.279 357.016 336.33C351.397 341.041 346.234 346.032 341.671 351.172C333.514 360.362 327.4 369.852 323.499 379.382C322.329 382.25 321.299 385.251 320.455 388.299C320.249 389.042 320.012 389.757 319.781 390.451C318.973 392.887 317.961 395.942 319.294 399.078C317.389 398.326 315.61 397.35 313.979 396.143C298.903 384.974 302.319 358.253 321.518 336.163C315.827 332.933 311.535 334.046 303.133 339.673C301.82 340.548 300.006 340.487 298.743 339.515C297.049 338.216 297.027 335.859 298.694 334.573C305.89 329.025 316.348 328.277 324.595 332.811C344.145 312.581 370.784 304.883 385.385 315.699Z" fill="#3594FC"/>
</g>
<mask id="mask5_244_4443" style="mask-type:luminance" maskUnits="userSpaceOnUse" x="309" y="314" width="158" height="144">
<path d="M309.59 393.081L379.935 314.4L466.8 378.656L396.455 457.336L309.59 393.081Z" fill="#2775CA"/>
</mask>
<g mask="url(#mask5_244_4443)">
<path d="M343.153 402.691C354.25 408.905 372.279 416.325 395.029 416.266C396.567 416.259 397.031 418.275 395.533 418.46C382.176 420.089 361.561 419.168 341.874 404.405C340.621 403.467 341.776 401.92 343.153 402.691ZM386.28 325.431C376.556 328.772 367.61 333.463 360.017 339.541C345.474 351.186 332.46 366.22 326.246 383.276C325.153 386.273 324.26 389.343 323.561 392.473C322.405 397.597 320.18 400.674 325.47 404.709C325.692 404.878 325.908 405.038 326.13 405.208C328.996 407.36 331.973 409.397 335.016 411.338C344.991 417.666 355.891 422.953 367.304 426.16C376.758 428.816 386.546 429.966 395.893 429.006C401.083 428.471 406.083 427.298 410.754 425.576C412.722 424.852 423.989 417.683 425.004 418.053C425.004 418.053 429.425 419.682 431.378 418.214L431.402 418.232C431.493 418.151 431.567 418.069 431.637 417.983C431.715 417.904 431.789 417.821 431.854 417.726L431.83 417.709C433.015 415.667 430.36 412.062 430.36 412.062C451.437 372.658 412.315 338.505 397.439 327.416C397.106 327.17 396.766 326.94 396.415 326.728C393.299 324.84 389.488 324.332 386.28 325.431Z" fill="#3594FC"/>
</g>
</g>
<mask id="mask6_244_4443" style="mask-type:luminance" maskUnits="userSpaceOnUse" x="241" y="279" width="207" height="186">
<path d="M387.518 296.189C335.661 266.813 274.455 276.836 250.811 318.575C227.167 360.315 250.038 417.964 301.896 447.34C353.753 476.715 414.958 466.692 438.602 424.953C462.246 383.214 439.375 325.564 387.518 296.189Z" fill="white"/>
</mask>
<g mask="url(#mask6_244_4443)">
<mask id="mask7_244_4443" style="mask-type:luminance" maskUnits="userSpaceOnUse" x="270" y="284" width="119" height="118">
<path d="M270.474 366.609L339.453 284.473L388.082 318.943L319.102 401.079L270.474 366.609Z" fill="#2775CA"/>
</mask>
<g mask="url(#mask7_244_4443)">
<path d="M385.385 315.699C387.272 317.097 388.871 318.735 390.181 320.581C387.545 320.148 384.784 320.422 382.232 321.451C372.722 325.271 364.239 330.279 357.016 336.33C351.397 341.041 346.234 346.032 341.671 351.172C333.514 360.362 327.4 369.852 323.499 379.382C322.329 382.25 321.299 385.251 320.455 388.299C320.249 389.042 320.012 389.757 319.781 390.451C318.973 392.887 317.961 395.942 319.294 399.078C317.389 398.326 315.61 397.35 313.979 396.143C298.903 384.974 302.319 358.253 321.518 336.163C315.827 332.933 311.535 334.046 303.133 339.673C301.82 340.548 300.006 340.487 298.743 339.515C297.049 338.216 297.027 335.859 298.694 334.573C305.89 329.025 316.348 328.277 324.595 332.811C344.145 312.581 370.784 304.883 385.385 315.699Z" fill="#3594FC"/>
</g>
<mask id="mask8_244_4443" style="mask-type:luminance" maskUnits="userSpaceOnUse" x="309" y="314" width="158" height="144">
<path d="M309.59 393.081L379.935 314.4L466.8 378.656L396.455 457.336L309.59 393.081Z" fill="#2775CA"/>
</mask>
<g mask="url(#mask8_244_4443)">
<path d="M343.153 402.691C354.25 408.905 372.279 416.325 395.029 416.266C396.567 416.259 397.031 418.275 395.533 418.46C382.176 420.089 361.561 419.168 341.874 404.405C340.621 403.467 341.776 401.92 343.153 402.691ZM386.28 325.431C376.556 328.772 367.61 333.463 360.017 339.541C345.474 351.186 332.46 366.22 326.246 383.276C325.153 386.273 324.26 389.343 323.561 392.473C322.405 397.597 320.18 400.674 325.47 404.709C325.692 404.878 325.908 405.038 326.13 405.208C328.996 407.36 331.973 409.397 335.016 411.338C344.991 417.666 355.891 422.953 367.304 426.16C376.758 428.816 386.546 429.966 395.893 429.006C401.083 428.471 406.083 427.298 410.754 425.576C412.722 424.852 423.989 417.683 425.004 418.053C425.004 418.053 429.425 419.682 431.378 418.214L431.402 418.232C431.493 418.151 431.567 418.069 431.637 417.983C431.715 417.904 431.789 417.821 431.854 417.726L431.83 417.709C433.015 415.667 430.36 412.062 430.36 412.062C451.437 372.658 412.315 338.505 397.439 327.416C397.106 327.17 396.766 326.94 396.415 326.728C393.299 324.84 389.488 324.332 386.28 325.431Z" fill="#3594FC"/>
</g>
</g>
<g clip-path="url(#clip1_244_4443)">
<mask id="mask9_244_4443" style="mask-type:luminance" maskUnits="userSpaceOnUse" x="241" y="279" width="207" height="186">
<path d="M387.518 296.189C335.661 266.813 274.455 276.836 250.811 318.575C227.167 360.315 250.038 417.964 301.896 447.34C353.753 476.715 414.958 466.692 438.602 424.953C462.246 383.214 439.375 325.564 387.518 296.189Z" fill="white"/>
</mask>
<g mask="url(#mask9_244_4443)">
<mask id="mask10_244_4443" style="mask-type:luminance" maskUnits="userSpaceOnUse" x="270" y="284" width="119" height="118">
<path d="M270.474 366.609L339.453 284.473L388.082 318.943L319.102 401.079L270.474 366.609Z" fill="#2775CA"/>
</mask>
<g mask="url(#mask10_244_4443)">
<path d="M385.385 315.699C387.272 317.097 388.871 318.735 390.181 320.581C387.545 320.148 384.784 320.422 382.232 321.451C372.722 325.271 364.239 330.279 357.016 336.33C351.397 341.041 346.234 346.032 341.671 351.172C333.514 360.362 327.4 369.852 323.499 379.382C322.329 382.25 321.299 385.251 320.455 388.299C320.249 389.042 320.012 389.757 319.781 390.451C318.973 392.887 317.961 395.942 319.294 399.078C317.389 398.326 315.61 397.35 313.979 396.143C298.903 384.974 302.319 358.253 321.518 336.163C315.827 332.933 311.535 334.046 303.133 339.673C301.82 340.548 300.006 340.487 298.743 339.515C297.049 338.216 297.027 335.859 298.694 334.573C305.89 329.025 316.348 328.277 324.595 332.811C344.145 312.581 370.784 304.883 385.385 315.699Z" fill="#3594FC"/>
</g>
<mask id="mask11_244_4443" style="mask-type:luminance" maskUnits="userSpaceOnUse" x="309" y="314" width="158" height="144">
<path d="M309.59 393.081L379.935 314.4L466.8 378.656L396.455 457.336L309.59 393.081Z" fill="#2775CA"/>
</mask>
<g mask="url(#mask11_244_4443)">
<path d="M343.153 402.691C354.25 408.905 372.279 416.325 395.029 416.266C396.567 416.259 397.031 418.275 395.533 418.46C382.176 420.089 361.561 419.168 341.874 404.405C340.621 403.467 341.776 401.92 343.153 402.691ZM386.28 325.431C376.556 328.772 367.61 333.463 360.017 339.541C345.474 351.186 332.46 366.22 326.246 383.276C325.153 386.273 324.26 389.343 323.561 392.473C322.405 397.597 320.18 400.674 325.47 404.709C325.692 404.878 325.908 405.038 326.13 405.208C328.996 407.36 331.973 409.397 335.016 411.338C344.991 417.666 355.891 422.953 367.304 426.16C376.758 428.816 386.546 429.966 395.893 429.006C401.083 428.471 406.083 427.298 410.754 425.576C412.722 424.852 423.989 417.683 425.004 418.053C425.004 418.053 429.425 419.682 431.378 418.214L431.402 418.232C431.493 418.151 431.567 418.069 431.637 417.983C431.715 417.904 431.789 417.821 431.854 417.726L431.83 417.709C433.015 415.667 430.36 412.062 430.36 412.062C451.437 372.658 412.315 338.505 397.439 327.416C397.106 327.17 396.766 326.94 396.415 326.728C393.299 324.84 389.488 324.332 386.28 325.431Z" fill="#3594FC"/>
</g>
</g>
<mask id="mask12_244_4443" style="mask-type:luminance" maskUnits="userSpaceOnUse" x="369" y="485" width="207" height="186">
<path d="M515.518 502.189C463.661 472.813 402.455 482.836 378.811 524.575C355.167 566.315 378.038 623.964 429.896 653.34C481.753 682.715 542.958 672.692 566.602 630.953C590.246 589.214 567.375 531.564 515.518 502.189Z" fill="white"/>
</mask>
<g mask="url(#mask12_244_4443)">
<mask id="mask13_244_4443" style="mask-type:luminance" maskUnits="userSpaceOnUse" x="398" y="490" width="119" height="118">
<path d="M398.474 572.609L467.453 490.473L516.082 524.943L447.102 607.079L398.474 572.609Z" fill="#2775CA"/>
</mask>
<g mask="url(#mask13_244_4443)">
<path d="M513.385 521.699C515.272 523.097 516.871 524.735 518.181 526.581C515.545 526.148 512.784 526.422 510.232 527.451C500.722 531.271 492.239 536.279 485.016 542.33C479.397 547.041 474.234 552.032 469.671 557.172C461.514 566.362 455.4 575.852 451.499 585.382C450.329 588.25 449.299 591.251 448.455 594.299C448.249 595.042 448.012 595.757 447.781 596.451C446.973 598.887 445.961 601.942 447.294 605.078C445.389 604.326 443.61 603.35 441.979 602.143C426.903 590.974 430.319 564.253 449.518 542.163C443.827 538.933 439.535 540.046 431.133 545.673C429.82 546.548 428.006 546.487 426.743 545.515C425.049 544.216 425.027 541.859 426.694 540.573C433.89 535.025 444.348 534.277 452.595 538.811C472.145 518.581 498.784 510.883 513.385 521.699Z" fill="#3594FC"/>
</g>
</g>
</g>
<g clip-path="url(#clip2_244_4443)">
<mask id="mask14_244_4443" style="mask-type:luminance" maskUnits="userSpaceOnUse" x="241" y="279" width="207" height="186">
<path d="M387.518 296.189C335.661 266.813 274.455 276.836 250.811 318.575C227.167 360.315 250.038 417.964 301.896 447.34C353.753 476.715 414.958 466.692 438.602 424.953C462.246 383.214 439.375 325.564 387.518 296.189Z" fill="white"/>
</mask>
<g mask="url(#mask14_244_4443)">
<mask id="mask15_244_4443" style="mask-type:luminance" maskUnits="userSpaceOnUse" x="270" y="284" width="119" height="118">
<path d="M270.474 366.609L339.453 284.473L388.082 318.943L319.102 401.079L270.474 366.609Z" fill="#2775CA"/>
</mask>
<g mask="url(#mask15_244_4443)">
<path d="M385.385 315.699C387.272 317.097 388.871 318.735 390.181 320.581C387.545 320.148 384.784 320.422 382.232 321.451C372.722 325.271 364.239 330.279 357.016 336.33C351.397 341.041 346.234 346.032 341.671 351.172C333.514 360.362 327.4 369.852 323.499 379.382C322.329 382.25 321.299 385.251 320.455 388.299C320.249 389.042 320.012 389.757 319.781 390.451C318.973 392.887 317.961 395.942 319.294 399.078C317.389 398.326 315.61 397.35 313.979 396.143C298.903 384.974 302.319 358.253 321.518 336.163C315.827 332.933 311.535 334.046 303.133 339.673C301.82 340.548 300.006 340.487 298.743 339.515C297.049 338.216 297.027 335.859 298.694 334.573C305.89 329.025 316.348 328.277 324.595 332.811C344.145 312.581 370.784 304.883 385.385 315.699Z" fill="#3594FC"/>
</g>
<mask id="mask16_244_4443" style="mask-type:luminance" maskUnits="userSpaceOnUse" x="309" y="314" width="158" height="144">
<path d="M309.59 393.081L379.935 314.4L466.8 378.656L396.455 457.336L309.59 393.081Z" fill="#2775CA"/>
</mask>
<g mask="url(#mask16_244_4443)">
<path d="M343.153 402.691C354.25 408.905 372.279 416.325 395.029 416.266C396.567 416.259 397.031 418.275 395.533 418.46C382.176 420.089 361.561 419.168 341.874 404.405C340.621 403.467 341.776 401.92 343.153 402.691ZM386.28 325.431C376.556 328.772 367.61 333.463 360.017 339.541C345.474 351.186 332.46 366.22 326.246 383.276C325.153 386.273 324.26 389.343 323.561 392.473C322.405 397.597 320.18 400.674 325.47 404.709C325.692 404.878 325.908 405.038 326.13 405.208C328.996 407.36 331.973 409.397 335.016 411.338C344.991 417.666 355.891 422.953 367.304 426.16C376.758 428.816 386.546 429.966 395.893 429.006C401.083 428.471 406.083 427.298 410.754 425.576C412.722 424.852 423.989 417.683 425.004 418.053C425.004 418.053 429.425 419.682 431.378 418.214L431.402 418.232C431.493 418.151 431.567 418.069 431.637 417.983C431.715 417.904 431.789 417.821 431.854 417.726L431.83 417.709C433.015 415.667 430.36 412.062 430.36 412.062C451.437 372.658 412.315 338.505 397.439 327.416C397.106 327.17 396.766 326.94 396.415 326.728C393.299 324.84 389.488 324.332 386.28 325.431Z" fill="#3594FC"/>
</g>
</g>
<mask id="mask17_244_4443" style="mask-type:luminance" maskUnits="userSpaceOnUse" x="369" y="485" width="207" height="186">
<path d="M515.518 502.189C463.661 472.813 402.455 482.836 378.811 524.575C355.167 566.315 378.038 623.964 429.896 653.34C481.753 682.715 542.958 672.692 566.602 630.953C590.246 589.214 567.375 531.564 515.518 502.189Z" fill="white"/>
</mask>
<g mask="url(#mask17_244_4443)">
<mask id="mask18_244_4443" style="mask-type:luminance" maskUnits="userSpaceOnUse" x="398" y="490" width="119" height="118">
<path d="M398.474 572.609L467.453 490.473L516.082 524.943L447.102 607.079L398.474 572.609Z" fill="#2775CA"/>
</mask>
<g mask="url(#mask18_244_4443)">
<path d="M513.385 521.699C515.272 523.097 516.871 524.735 518.181 526.581C515.545 526.148 512.784 526.422 510.232 527.451C500.722 531.271 492.239 536.279 485.016 542.33C479.397 547.041 474.234 552.032 469.671 557.172C461.514 566.362 455.4 575.852 451.499 585.382C450.329 588.25 449.299 591.251 448.455 594.299C448.249 595.042 448.012 595.757 447.781 596.451C446.973 598.887 445.961 601.942 447.294 605.078C445.389 604.326 443.61 603.35 441.979 602.143C426.903 590.974 430.319 564.253 449.518 542.163C443.827 538.933 439.535 540.046 431.133 545.673C429.82 546.548 428.006 546.487 426.743 545.515C425.049 544.216 425.027 541.859 426.694 540.573C433.89 535.025 444.348 534.277 452.595 538.811C472.145 518.581 498.784 510.883 513.385 521.699Z" fill="#3594FC"/>
</g>
</g>
</g>
<g clip-path="url(#clip3_244_4443)">
<mask id="mask19_244_4443" style="mask-type:luminance" maskUnits="userSpaceOnUse" x="241" y="279" width="207" height="186">
<path d="M387.518 296.189C335.661 266.813 274.455 276.836 250.811 318.575C227.167 360.315 250.038 417.964 301.896 447.34C353.753 476.715 414.958 466.692 438.602 424.953C462.246 383.214 439.375 325.564 387.518 296.189Z" fill="white"/>
</mask>
<g mask="url(#mask19_244_4443)">
<mask id="mask20_244_4443" style="mask-type:luminance" maskUnits="userSpaceOnUse" x="270" y="284" width="119" height="118">
<path d="M270.474 366.609L339.453 284.473L388.082 318.943L319.102 401.079L270.474 366.609Z" fill="#2775CA"/>
</mask>
<g mask="url(#mask20_244_4443)">
<path d="M385.385 315.699C387.272 317.097 388.871 318.735 390.181 320.581C387.545 320.148 384.784 320.422 382.232 321.451C372.722 325.271 364.239 330.279 357.016 336.33C351.397 341.041 346.234 346.032 341.671 351.172C333.514 360.362 327.4 369.852 323.499 379.382C322.329 382.25 321.299 385.251 320.455 388.299C320.249 389.042 320.012 389.757 319.781 390.451C318.973 392.887 317.961 395.942 319.294 399.078C317.389 398.326 315.61 397.35 313.979 396.143C298.903 384.974 302.319 358.253 321.518 336.163C315.827 332.933 311.535 334.046 303.133 339.673C301.82 340.548 300.006 340.487 298.743 339.515C297.049 338.216 297.027 335.859 298.694 334.573C305.89 329.025 316.348 328.277 324.595 332.811C344.145 312.581 370.784 304.883 385.385 315.699Z" fill="#3594FC"/>
</g>
<mask id="mask21_244_4443" style="mask-type:luminance" maskUnits="userSpaceOnUse" x="309" y="314" width="158" height="144">
<path d="M309.59 393.081L379.935 314.4L466.8 378.656L396.455 457.336L309.59 393.081Z" fill="#2775CA"/>
</mask>
<g mask="url(#mask21_244_4443)">
<path d="M343.153 402.691C354.25 408.905 372.279 416.325 395.029 416.266C396.567 416.259 397.031 418.275 395.533 418.46C382.176 420.089 361.561 419.168 341.874 404.405C340.621 403.467 341.776 401.92 343.153 402.691ZM386.28 325.431C376.556 328.772 367.61 333.463 360.017 339.541C345.474 351.186 332.46 366.22 326.246 383.276C325.153 386.273 324.26 389.343 323.561 392.473C322.405 397.597 320.18 400.674 325.47 404.709C325.692 404.878 325.908 405.038 326.13 405.208C328.996 407.36 331.973 409.397 335.016 411.338C344.991 417.666 355.891 422.953 367.304 426.16C376.758 428.816 386.546 429.966 395.893 429.006C401.083 428.471 406.083 427.298 410.754 425.576C412.722 424.852 423.989 417.683 425.004 418.053C425.004 418.053 429.425 419.682 431.378 418.214L431.402 418.232C431.493 418.151 431.567 418.069 431.637 417.983C431.715 417.904 431.789 417.821 431.854 417.726L431.83 417.709C433.015 415.667 430.36 412.062 430.36 412.062C451.437 372.658 412.315 338.505 397.439 327.416C397.106 327.17 396.766 326.94 396.415 326.728C393.299 324.84 389.488 324.332 386.28 325.431Z" fill="#3594FC"/>
</g>
</g>
<mask id="mask22_244_4443" style="mask-type:luminance" maskUnits="userSpaceOnUse" x="369" y="485" width="207" height="186">
<path d="M515.518 502.189C463.661 472.813 402.455 482.836 378.811 524.575C355.167 566.315 378.038 623.964 429.896 653.34C481.753 682.715 542.958 672.692 566.602 630.953C590.246 589.214 567.375 531.564 515.518 502.189Z" fill="white"/>
</mask>
<g mask="url(#mask22_244_4443)">
<mask id="mask23_244_4443" style="mask-type:luminance" maskUnits="userSpaceOnUse" x="398" y="490" width="119" height="118">
<path d="M398.474 572.609L467.453 490.473L516.082 524.943L447.102 607.079L398.474 572.609Z" fill="#2775CA"/>
</mask>
<g mask="url(#mask23_244_4443)">
<path d="M513.385 521.699C515.272 523.097 516.871 524.735 518.181 526.581C515.545 526.148 512.784 526.422 510.232 527.451C500.722 531.271 492.239 536.279 485.016 542.33C479.397 547.041 474.234 552.032 469.671 557.172C461.514 566.362 455.4 575.852 451.499 585.382C450.329 588.25 449.299 591.251 448.455 594.299C448.249 595.042 448.012 595.757 447.781 596.451C446.973 598.887 445.961 601.942 447.294 605.078C445.389 604.326 443.61 603.35 441.979 602.143C426.903 590.974 430.319 564.253 449.518 542.163C443.827 538.933 439.535 540.046 431.133 545.673C429.82 546.548 428.006 546.487 426.743 545.515C425.049 544.216 425.027 541.859 426.694 540.573C433.89 535.025 444.348 534.277 452.595 538.811C472.145 518.581 498.784 510.883 513.385 521.699Z" fill="#3594FC"/>
</g>
</g>
</g>
<g clip-path="url(#clip4_244_4443)">
<mask id="mask24_244_4443" style="mask-type:luminance" maskUnits="userSpaceOnUse" x="241" y="279" width="207" height="186">
<path d="M387.518 296.189C335.661 266.813 274.455 276.836 250.811 318.575C227.167 360.315 250.038 417.964 301.896 447.34C353.753 476.715 414.958 466.692 438.602 424.953C462.246 383.214 439.375 325.564 387.518 296.189Z" fill="white"/>
</mask>
<g mask="url(#mask24_244_4443)">
<mask id="mask25_244_4443" style="mask-type:luminance" maskUnits="userSpaceOnUse" x="270" y="284" width="119" height="118">
<path d="M270.474 366.609L339.453 284.473L388.082 318.943L319.102 401.079L270.474 366.609Z" fill="#2775CA"/>
</mask>
<g mask="url(#mask25_244_4443)">
<path d="M385.385 315.699C387.272 317.097 388.871 318.735 390.181 320.581C387.545 320.148 384.784 320.422 382.232 321.451C372.722 325.271 364.239 330.279 357.016 336.33C351.397 341.041 346.234 346.032 341.671 351.172C333.514 360.362 327.4 369.852 323.499 379.382C322.329 382.25 321.299 385.251 320.455 388.299C320.249 389.042 320.012 389.757 319.781 390.451C318.973 392.887 317.961 395.942 319.294 399.078C317.389 398.326 315.61 397.35 313.979 396.143C298.903 384.974 302.319 358.253 321.518 336.163C315.827 332.933 311.535 334.046 303.133 339.673C301.82 340.548 300.006 340.487 298.743 339.515C297.049 338.216 297.027 335.859 298.694 334.573C305.89 329.025 316.348 328.277 324.595 332.811C344.145 312.581 370.784 304.883 385.385 315.699Z" fill="#3594FC"/>
</g>
<mask id="mask26_244_4443" style="mask-type:luminance" maskUnits="userSpaceOnUse" x="309" y="314" width="158" height="144">
<path d="M309.59 393.081L379.935 314.4L466.8 378.656L396.455 457.336L309.59 393.081Z" fill="#2775CA"/>
</mask>
<g mask="url(#mask26_244_4443)">
<path d="M343.153 402.691C354.25 408.905 372.279 416.325 395.029 416.266C396.567 416.259 397.031 418.275 395.533 418.46C382.176 420.089 361.561 419.168 341.874 404.405C340.621 403.467 341.776 401.92 343.153 402.691ZM386.28 325.431C376.556 328.772 367.61 333.463 360.017 339.541C345.474 351.186 332.46 366.22 326.246 383.276C325.153 386.273 324.26 389.343 323.561 392.473C322.405 397.597 320.18 400.674 325.47 404.709C325.692 404.878 325.908 405.038 326.13 405.208C328.996 407.36 331.973 409.397 335.016 411.338C344.991 417.666 355.891 422.953 367.304 426.16C376.758 428.816 386.546 429.966 395.893 429.006C401.083 428.471 406.083 427.298 410.754 425.576C412.722 424.852 423.989 417.683 425.004 418.053C425.004 418.053 429.425 419.682 431.378 418.214L431.402 418.232C431.493 418.151 431.567 418.069 431.637 417.983C431.715 417.904 431.789 417.821 431.854 417.726L431.83 417.709C433.015 415.667 430.36 412.062 430.36 412.062C451.437 372.658 412.315 338.505 397.439 327.416C397.106 327.17 396.766 326.94 396.415 326.728C393.299 324.84 389.488 324.332 386.28 325.431Z" fill="#3594FC"/>
</g>
</g>
<mask id="mask27_244_4443" style="mask-type:luminance" maskUnits="userSpaceOnUse" x="369" y="485" width="207" height="186">
<path d="M515.518 502.189C463.661 472.813 402.455 482.836 378.811 524.575C355.167 566.315 378.038 623.964 429.896 653.34C481.753 682.715 542.958 672.692 566.602 630.953C590.246 589.214 567.375 531.564 515.518 502.189Z" fill="white"/>
</mask>
<g mask="url(#mask27_244_4443)">
<mask id="mask28_244_4443" style="mask-type:luminance" maskUnits="userSpaceOnUse" x="398" y="490" width="119" height="118">
<path d="M398.474 572.609L467.453 490.473L516.082 524.943L447.102 607.079L398.474 572.609Z" fill="#2775CA"/>
</mask>
<g mask="url(#mask28_244_4443)">
<path d="M513.385 521.699C515.272 523.097 516.871 524.735 518.181 526.581C515.545 526.148 512.784 526.422 510.232 527.451C500.722 531.271 492.239 536.279 485.016 542.33C479.397 547.041 474.234 552.032 469.671 557.172C461.514 566.362 455.4 575.852 451.499 585.382C450.329 588.25 449.299 591.251 448.455 594.299C448.249 595.042 448.012 595.757 447.781 596.451C446.973 598.887 445.961 601.942 447.294 605.078C445.389 604.326 443.61 603.35 441.979 602.143C426.903 590.974 430.319 564.253 449.518 542.163C443.827 538.933 439.535 540.046 431.133 545.673C429.82 546.548 428.006 546.487 426.743 545.515C425.049 544.216 425.027 541.859 426.694 540.573C433.89 535.025 444.348 534.277 452.595 538.811C472.145 518.581 498.784 510.883 513.385 521.699Z" fill="#3594FC"/>
</g>
</g>
</g>
<g clip-path="url(#clip5_244_4443)">
<mask id="mask29_244_4443" style="mask-type:luminance" maskUnits="userSpaceOnUse" x="241" y="279" width="207" height="186">
<path d="M387.518 296.189C335.661 266.813 274.455 276.836 250.811 318.575C227.167 360.315 250.038 417.964 301.896 447.34C353.753 476.715 414.958 466.692 438.602 424.953C462.246 383.214 439.375 325.564 387.518 296.189Z" fill="white"/>
</mask>
<g mask="url(#mask29_244_4443)">
<mask id="mask30_244_4443" style="mask-type:luminance" maskUnits="userSpaceOnUse" x="270" y="284" width="119" height="118">
<path d="M270.474 366.609L339.453 284.473L388.082 318.943L319.102 401.079L270.474 366.609Z" fill="#2775CA"/>
</mask>
<g mask="url(#mask30_244_4443)">
<path d="M385.385 315.699C387.272 317.097 388.871 318.735 390.181 320.581C387.545 320.148 384.784 320.422 382.232 321.451C372.722 325.271 364.239 330.279 357.016 336.33C351.397 341.041 346.234 346.032 341.671 351.172C333.514 360.362 327.4 369.852 323.499 379.382C322.329 382.25 321.299 385.251 320.455 388.299C320.249 389.042 320.012 389.757 319.781 390.451C318.973 392.887 317.961 395.942 319.294 399.078C317.389 398.326 315.61 397.35 313.979 396.143C298.903 384.974 302.319 358.253 321.518 336.163C315.827 332.933 311.535 334.046 303.133 339.673C301.82 340.548 300.006 340.487 298.743 339.515C297.049 338.216 297.027 335.859 298.694 334.573C305.89 329.025 316.348 328.277 324.595 332.811C344.145 312.581 370.784 304.883 385.385 315.699Z" fill="#3594FC"/>
</g>
<mask id="mask31_244_4443" style="mask-type:luminance" maskUnits="userSpaceOnUse" x="309" y="314" width="158" height="144">
<path d="M309.59 393.081L379.935 314.4L466.8 378.656L396.455 457.336L309.59 393.081Z" fill="#2775CA"/>
</mask>
<g mask="url(#mask31_244_4443)">
<path d="M343.153 402.691C354.25 408.905 372.279 416.325 395.029 416.266C396.567 416.259 397.031 418.275 395.533 418.46C382.176 420.089 361.561 419.168 341.874 404.405C340.621 403.467 341.776 401.92 343.153 402.691ZM386.28 325.431C376.556 328.772 367.61 333.463 360.017 339.541C345.474 351.186 332.46 366.22 326.246 383.276C325.153 386.273 324.26 389.343 323.561 392.473C322.405 397.597 320.18 400.674 325.47 404.709C325.692 404.878 325.908 405.038 326.13 405.208C328.996 407.36 331.973 409.397 335.016 411.338C344.991 417.666 355.891 422.953 367.304 426.16C376.758 428.816 386.546 429.966 395.893 429.006C401.083 428.471 406.083 427.298 410.754 425.576C412.722 424.852 423.989 417.683 425.004 418.053C425.004 418.053 429.425 419.682 431.378 418.214L431.402 418.232C431.493 418.151 431.567 418.069 431.637 417.983C431.715 417.904 431.789 417.821 431.854 417.726L431.83 417.709C433.015 415.667 430.36 412.062 430.36 412.062C451.437 372.658 412.315 338.505 397.439 327.416C397.106 327.17 396.766 326.94 396.415 326.728C393.299 324.84 389.488 324.332 386.28 325.431Z" fill="#3594FC"/>
</g>
</g>
<mask id="mask32_244_4443" style="mask-type:luminance" maskUnits="userSpaceOnUse" x="369" y="485" width="207" height="186">
<path d="M515.518 502.189C463.661 472.813 402.455 482.836 378.811 524.575C355.167 566.315 378.038 623.964 429.896 653.34C481.753 682.715 542.958 672.692 566.602 630.953C590.246 589.214 567.375 531.564 515.518 502.189Z" fill="white"/>
</mask>
<g mask="url(#mask32_244_4443)">
<mask id="mask33_244_4443" style="mask-type:luminance" maskUnits="userSpaceOnUse" x="398" y="490" width="119" height="118">
<path d="M398.474 572.609L467.453 490.473L516.082 524.943L447.102 607.079L398.474 572.609Z" fill="#2775CA"/>
</mask>
<g mask="url(#mask33_244_4443)">
<path d="M513.385 521.699C515.272 523.097 516.871 524.735 518.181 526.581C515.545 526.148 512.784 526.422 510.232 527.451C500.722 531.271 492.239 536.279 485.016 542.33C479.397 547.041 474.234 552.032 469.671 557.172C461.514 566.362 455.4 575.852 451.499 585.382C450.329 588.25 449.299 591.251 448.455 594.299C448.249 595.042 448.012 595.757 447.781 596.451C446.973 598.887 445.961 601.942 447.294 605.078C445.389 604.326 443.61 603.35 441.979 602.143C426.903 590.974 430.319 564.253 449.518 542.163C443.827 538.933 439.535 540.046 431.133 545.673C429.82 546.548 428.006 546.487 426.743 545.515C425.049 544.216 425.027 541.859 426.694 540.573C433.89 535.025 444.348 534.277 452.595 538.811C472.145 518.581 498.784 510.883 513.385 521.699Z" fill="#3594FC"/>
</g>
</g>
</g>
<g clip-path="url(#clip6_244_4443)">
<mask id="mask34_244_4443" style="mask-type:luminance" maskUnits="userSpaceOnUse" x="241" y="279" width="207" height="186">
<path d="M387.518 296.189C335.661 266.813 274.455 276.836 250.811 318.575C227.167 360.315 250.038 417.964 301.896 447.34C353.753 476.715 414.958 466.692 438.602 424.953C462.246 383.214 439.375 325.564 387.518 296.189Z" fill="white"/>
</mask>
<g mask="url(#mask34_244_4443)">
<mask id="mask35_244_4443" style="mask-type:luminance" maskUnits="userSpaceOnUse" x="270" y="284" width="119" height="118">
<path d="M270.474 366.609L339.453 284.473L388.082 318.943L319.102 401.079L270.474 366.609Z" fill="#2775CA"/>
</mask>
<g mask="url(#mask35_244_4443)">
<path d="M385.385 315.699C387.272 317.097 388.871 318.735 390.181 320.581C387.545 320.148 384.784 320.422 382.232 321.451C372.722 325.271 364.239 330.279 357.016 336.33C351.397 341.041 346.234 346.032 341.671 351.172C333.514 360.362 327.4 369.852 323.499 379.382C322.329 382.25 321.299 385.251 320.455 388.299C320.249 389.042 320.012 389.757 319.781 390.451C318.973 392.887 317.961 395.942 319.294 399.078C317.389 398.326 315.61 397.35 313.979 396.143C298.903 384.974 302.319 358.253 321.518 336.163C315.827 332.933 311.535 334.046 303.133 339.673C301.82 340.548 300.006 340.487 298.743 339.515C297.049 338.216 297.027 335.859 298.694 334.573C305.89 329.025 316.348 328.277 324.595 332.811C344.145 312.581 370.784 304.883 385.385 315.699Z" fill="#3594FC"/>
</g>
<mask id="mask36_244_4443" style="mask-type:luminance" maskUnits="userSpaceOnUse" x="309" y="314" width="158" height="144">
<path d="M309.59 393.081L379.935 314.4L466.8 378.656L396.455 457.336L309.59 393.081Z" fill="#2775CA"/>
</mask>
<g mask="url(#mask36_244_4443)">
<path d="M343.153 402.691C354.25 408.905 372.279 416.325 395.029 416.266C396.567 416.259 397.031 418.275 395.533 418.46C382.176 420.089 361.561 419.168 341.874 404.405C340.621 403.467 341.776 401.92 343.153 402.691ZM386.28 325.431C376.556 328.772 367.61 333.463 360.017 339.541C345.474 351.186 332.46 366.22 326.246 383.276C325.153 386.273 324.26 389.343 323.561 392.473C322.405 397.597 320.18 400.674 325.47 404.709C325.692 404.878 325.908 405.038 326.13 405.208C328.996 407.36 331.973 409.397 335.016 411.338C344.991 417.666 355.891 422.953 367.304 426.16C376.758 428.816 386.546 429.966 395.893 429.006C401.083 428.471 406.083 427.298 410.754 425.576C412.722 424.852 423.989 417.683 425.004 418.053C425.004 418.053 429.425 419.682 431.378 418.214L431.402 418.232C431.493 418.151 431.567 418.069 431.637 417.983C431.715 417.904 431.789 417.821 431.854 417.726L431.83 417.709C433.015 415.667 430.36 412.062 430.36 412.062C451.437 372.658 412.315 338.505 397.439 327.416C397.106 327.17 396.766 326.94 396.415 326.728C393.299 324.84 389.488 324.332 386.28 325.431Z" fill="#3594FC"/>
</g>
</g>
<mask id="mask37_244_4443" style="mask-type:luminance" maskUnits="userSpaceOnUse" x="369" y="485" width="207" height="186">
<path d="M515.518 502.189C463.661 472.813 402.455 482.836 378.811 524.575C355.167 566.315 378.038 623.964 429.896 653.34C481.753 682.715 542.958 672.692 566.602 630.953C590.246 589.214 567.375 531.564 515.518 502.189Z" fill="white"/>
</mask>
<g mask="url(#mask37_244_4443)">
<mask id="mask38_244_4443" style="mask-type:luminance" maskUnits="userSpaceOnUse" x="398" y="490" width="119" height="118">
<path d="M398.474 572.609L467.453 490.473L516.082 524.943L447.102 607.079L398.474 572.609Z" fill="#2775CA"/>
</mask>
<g mask="url(#mask38_244_4443)">
<path d="M513.385 521.699C515.272 523.097 516.871 524.735 518.181 526.581C515.545 526.148 512.784 526.422 510.232 527.451C500.722 531.271 492.239 536.279 485.016 542.33C479.397 547.041 474.234 552.032 469.671 557.172C461.514 566.362 455.4 575.852 451.499 585.382C450.329 588.25 449.299 591.251 448.455 594.299C448.249 595.042 448.012 595.757 447.781 596.451C446.973 598.887 445.961 601.942 447.294 605.078C445.389 604.326 443.61 603.35 441.979 602.143C426.903 590.974 430.319 564.253 449.518 542.163C443.827 538.933 439.535 540.046 431.133 545.673C429.82 546.548 428.006 546.487 426.743 545.515C425.049 544.216 425.027 541.859 426.694 540.573C433.89 535.025 444.348 534.277 452.595 538.811C472.145 518.581 498.784 510.883 513.385 521.699Z" fill="#3594FC"/>
</g>
</g>
</g>
<g clip-path="url(#clip7_244_4443)">
<mask id="mask39_244_4443" style="mask-type:luminance" maskUnits="userSpaceOnUse" x="241" y="279" width="207" height="186">
<path d="M387.518 296.189C335.661 266.813 274.455 276.836 250.811 318.575C227.167 360.315 250.038 417.964 301.896 447.34C353.753 476.715 414.958 466.692 438.602 424.953C462.246 383.214 439.375 325.564 387.518 296.189Z" fill="white"/>
</mask>
<g mask="url(#mask39_244_4443)">
<mask id="mask40_244_4443" style="mask-type:luminance" maskUnits="userSpaceOnUse" x="270" y="284" width="119" height="118">
<path d="M270.474 366.609L339.453 284.473L388.082 318.943L319.102 401.079L270.474 366.609Z" fill="#2775CA"/>
</mask>
<g mask="url(#mask40_244_4443)">
<path d="M385.385 315.699C387.272 317.097 388.871 318.735 390.181 320.581C387.545 320.148 384.784 320.422 382.232 321.451C372.722 325.271 364.239 330.279 357.016 336.33C351.397 341.041 346.234 346.032 341.671 351.172C333.514 360.362 327.4 369.852 323.499 379.382C322.329 382.25 321.299 385.251 320.455 388.299C320.249 389.042 320.012 389.757 319.781 390.451C318.973 392.887 317.961 395.942 319.294 399.078C317.389 398.326 315.61 397.35 313.979 396.143C298.903 384.974 302.319 358.253 321.518 336.163C315.827 332.933 311.535 334.046 303.133 339.673C301.82 340.548 300.006 340.487 298.743 339.515C297.049 338.216 297.027 335.859 298.694 334.573C305.89 329.025 316.348 328.277 324.595 332.811C344.145 312.581 370.784 304.883 385.385 315.699Z" fill="#3594FC"/>
</g>
<mask id="mask41_244_4443" style="mask-type:luminance" maskUnits="userSpaceOnUse" x="309" y="314" width="158" height="144">
<path d="M309.59 393.081L379.935 314.4L466.8 378.656L396.455 457.336L309.59 393.081Z" fill="#2775CA"/>
</mask>
<g mask="url(#mask41_244_4443)">
<path d="M343.153 402.691C354.25 408.905 372.279 416.325 395.029 416.266C396.567 416.259 397.031 418.275 395.533 418.46C382.176 420.089 361.561 419.168 341.874 404.405C340.621 403.467 341.776 401.92 343.153 402.691ZM386.28 325.431C376.556 328.772 367.61 333.463 360.017 339.541C345.474 351.186 332.46 366.22 326.246 383.276C325.153 386.273 324.26 389.343 323.561 392.473C322.405 397.597 320.18 400.674 325.47 404.709C325.692 404.878 325.908 405.038 326.13 405.208C328.996 407.36 331.973 409.397 335.016 411.338C344.991 417.666 355.891 422.953 367.304 426.16C376.758 428.816 386.546 429.966 395.893 429.006C401.083 428.471 406.083 427.298 410.754 425.576C412.722 424.852 423.989 417.683 425.004 418.053C425.004 418.053 429.425 419.682 431.378 418.214L431.402 418.232C431.493 418.151 431.567 418.069 431.637 417.983C431.715 417.904 431.789 417.821 431.854 417.726L431.83 417.709C433.015 415.667 430.36 412.062 430.36 412.062C451.437 372.658 412.315 338.505 397.439 327.416C397.106 327.17 396.766 326.94 396.415 326.728C393.299 324.84 389.488 324.332 386.28 325.431Z" fill="#3594FC"/>
</g>
</g>
<mask id="mask42_244_4443" style="mask-type:luminance" maskUnits="userSpaceOnUse" x="369" y="485" width="207" height="186">
<path d="M515.518 502.189C463.661 472.813 402.455 482.836 378.811 524.575C355.167 566.315 378.038 623.964 429.896 653.34C481.753 682.715 542.958 672.692 566.602 630.953C590.246 589.214 567.375 531.564 515.518 502.189Z" fill="white"/>
</mask>
<g mask="url(#mask42_244_4443)">
<mask id="mask43_244_4443" style="mask-type:luminance" maskUnits="userSpaceOnUse" x="398" y="490" width="119" height="118">
<path d="M398.474 572.609L467.453 490.473L516.082 524.943L447.102 607.079L398.474 572.609Z" fill="#2775CA"/>
</mask>
<g mask="url(#mask43_244_4443)">
<path d="M513.385 521.699C515.272 523.097 516.871 524.735 518.181 526.581C515.545 526.148 512.784 526.422 510.232 527.451C500.722 531.271 492.239 536.279 485.016 542.33C479.397 547.041 474.234 552.032 469.671 557.172C461.514 566.362 455.4 575.852 451.499 585.382C450.329 588.25 449.299 591.251 448.455 594.299C448.249 595.042 448.012 595.757 447.781 596.451C446.973 598.887 445.961 601.942 447.294 605.078C445.389 604.326 443.61 603.35 441.979 602.143C426.903 590.974 430.319 564.253 449.518 542.163C443.827 538.933 439.535 540.046 431.133 545.673C429.82 546.548 428.006 546.487 426.743 545.515C425.049 544.216 425.027 541.859 426.694 540.573C433.89 535.025 444.348 534.277 452.595 538.811C472.145 518.581 498.784 510.883 513.385 521.699Z" fill="#3594FC"/>
</g>
</g>
</g>
<g clip-path="url(#clip8_244_4443)">
<mask id="mask44_244_4443" style="mask-type:luminance" maskUnits="userSpaceOnUse" x="241" y="279" width="207" height="186">
<path d="M387.518 296.189C335.661 266.813 274.455 276.836 250.811 318.575C227.167 360.315 250.038 417.964 301.896 447.34C353.753 476.715 414.958 466.692 438.602 424.953C462.246 383.214 439.375 325.564 387.518 296.189Z" fill="white"/>
</mask>
<g mask="url(#mask44_244_4443)">
<mask id="mask45_244_4443" style="mask-type:luminance" maskUnits="userSpaceOnUse" x="270" y="284" width="119" height="118">
<path d="M270.474 366.609L339.453 284.473L388.082 318.943L319.102 401.079L270.474 366.609Z" fill="#2775CA"/>
</mask>
<g mask="url(#mask45_244_4443)">
<path d="M385.385 315.699C387.272 317.097 388.871 318.735 390.181 320.581C387.545 320.148 384.784 320.422 382.232 321.451C372.722 325.271 364.239 330.279 357.016 336.33C351.397 341.041 346.234 346.032 341.671 351.172C333.514 360.362 327.4 369.852 323.499 379.382C322.329 382.25 321.299 385.251 320.455 388.299C320.249 389.042 320.012 389.757 319.781 390.451C318.973 392.887 317.961 395.942 319.294 399.078C317.389 398.326 315.61 397.35 313.979 396.143C298.903 384.974 302.319 358.253 321.518 336.163C315.827 332.933 311.535 334.046 303.133 339.673C301.82 340.548 300.006 340.487 298.743 339.515C297.049 338.216 297.027 335.859 298.694 334.573C305.89 329.025 316.348 328.277 324.595 332.811C344.145 312.581 370.784 304.883 385.385 315.699Z" fill="#3594FC"/>
</g>
<mask id="mask46_244_4443" style="mask-type:luminance" maskUnits="userSpaceOnUse" x="309" y="314" width="158" height="144">
<path d="M309.59 393.081L379.935 314.4L466.8 378.656L396.455 457.336L309.59 393.081Z" fill="#2775CA"/>
</mask>
<g mask="url(#mask46_244_4443)">
<path d="M343.153 402.691C354.25 408.905 372.279 416.325 395.029 416.266C396.567 416.259 397.031 418.275 395.533 418.46C382.176 420.089 361.561 419.168 341.874 404.405C340.621 403.467 341.776 401.92 343.153 402.691ZM386.28 325.431C376.556 328.772 367.61 333.463 360.017 339.541C345.474 351.186 332.46 366.22 326.246 383.276C325.153 386.273 324.26 389.343 323.561 392.473C322.405 397.597 320.18 400.674 325.47 404.709C325.692 404.878 325.908 405.038 326.13 405.208C328.996 407.36 331.973 409.397 335.016 411.338C344.991 417.666 355.891 422.953 367.304 426.16C376.758 428.816 386.546 429.966 395.893 429.006C401.083 428.471 406.083 427.298 410.754 425.576C412.722 424.852 423.989 417.683 425.004 418.053C425.004 418.053 429.425 419.682 431.378 418.214L431.402 418.232C431.493 418.151 431.567 418.069 431.637 417.983C431.715 417.904 431.789 417.821 431.854 417.726L431.83 417.709C433.015 415.667 430.36 412.062 430.36 412.062C451.437 372.658 412.315 338.505 397.439 327.416C397.106 327.17 396.766 326.94 396.415 326.728C393.299 324.84 389.488 324.332 386.28 325.431Z" fill="#3594FC"/>
</g>
</g>
<mask id="mask47_244_4443" style="mask-type:luminance" maskUnits="userSpaceOnUse" x="369" y="485" width="207" height="186">
<path d="M515.518 502.189C463.661 472.813 402.455 482.836 378.811 524.575C355.167 566.315 378.038 623.964 429.896 653.34C481.753 682.715 542.958 672.692 566.602 630.953C590.246 589.214 567.375 531.564 515.518 502.189Z" fill="white"/>
</mask>
<g mask="url(#mask47_244_4443)">
<mask id="mask48_244_4443" style="mask-type:luminance" maskUnits="userSpaceOnUse" x="398" y="490" width="119" height="118">
<path d="M398.474 572.609L467.453 490.473L516.082 524.943L447.102 607.079L398.474 572.609Z" fill="#2775CA"/>
</mask>
<g mask="url(#mask48_244_4443)">
<path d="M513.385 521.699C515.272 523.097 516.871 524.735 518.181 526.581C515.545 526.148 512.784 526.422 510.232 527.451C500.722 531.271 492.239 536.279 485.016 542.33C479.397 547.041 474.234 552.032 469.671 557.172C461.514 566.362 455.4 575.852 451.499 585.382C450.329 588.25 449.299 591.251 448.455 594.299C448.249 595.042 448.012 595.757 447.781 596.451C446.973 598.887 445.961 601.942 447.294 605.078C445.389 604.326 443.61 603.35 441.979 602.143C426.903 590.974 430.319 564.253 449.518 542.163C443.827 538.933 439.535 540.046 431.133 545.673C429.82 546.548 428.006 546.487 426.743 545.515C425.049 544.216 425.027 541.859 426.694 540.573C433.89 535.025 444.348 534.277 452.595 538.811C472.145 518.581 498.784 510.883 513.385 521.699Z" fill="#3594FC"/>
</g>
</g>
</g>
<g clip-path="url(#clip9_244_4443)">
<mask id="mask49_244_4443" style="mask-type:luminance" maskUnits="userSpaceOnUse" x="241" y="279" width="207" height="186">
<path d="M387.518 296.189C335.661 266.813 274.455 276.836 250.811 318.575C227.167 360.315 250.038 417.964 301.896 447.34C353.753 476.715 414.958 466.692 438.602 424.953C462.246 383.214 439.375 325.564 387.518 296.189Z" fill="white"/>
</mask>
<g mask="url(#mask49_244_4443)">
<mask id="mask50_244_4443" style="mask-type:luminance" maskUnits="userSpaceOnUse" x="270" y="284" width="119" height="118">
<path d="M270.474 366.609L339.453 284.473L388.082 318.943L319.102 401.079L270.474 366.609Z" fill="#2775CA"/>
</mask>
<g mask="url(#mask50_244_4443)">
<path d="M385.385 315.699C387.272 317.097 388.871 318.735 390.181 320.581C387.545 320.148 384.784 320.422 382.232 321.451C372.722 325.271 364.239 330.279 357.016 336.33C351.397 341.041 346.234 346.032 341.671 351.172C333.514 360.362 327.4 369.852 323.499 379.382C322.329 382.25 321.299 385.251 320.455 388.299C320.249 389.042 320.012 389.757 319.781 390.451C318.973 392.887 317.961 395.942 319.294 399.078C317.389 398.326 315.61 397.35 313.979 396.143C298.903 384.974 302.319 358.253 321.518 336.163C315.827 332.933 311.535 334.046 303.133 339.673C301.82 340.548 300.006 340.487 298.743 339.515C297.049 338.216 297.027 335.859 298.694 334.573C305.89 329.025 316.348 328.277 324.595 332.811C344.145 312.581 370.784 304.883 385.385 315.699Z" fill="#3594FC"/>
</g>
<mask id="mask51_244_4443" style="mask-type:luminance" maskUnits="userSpaceOnUse" x="309" y="314" width="158" height="144">
<path d="M309.59 393.081L379.935 314.4L466.8 378.656L396.455 457.336L309.59 393.081Z" fill="#2775CA"/>
</mask>
<g mask="url(#mask51_244_4443)">
<path d="M343.153 402.691C354.25 408.905 372.279 416.325 395.029 416.266C396.567 416.259 397.031 418.275 395.533 418.46C382.176 420.089 361.561 419.168 341.874 404.405C340.621 403.467 341.776 401.92 343.153 402.691ZM386.28 325.431C376.556 328.772 367.61 333.463 360.017 339.541C345.474 351.186 332.46 366.22 326.246 383.276C325.153 386.273 324.26 389.343 323.561 392.473C322.405 397.597 320.18 400.674 325.47 404.709C325.692 404.878 325.908 405.038 326.13 405.208C328.996 407.36 331.973 409.397 335.016 411.338C344.991 417.666 355.891 422.953 367.304 426.16C376.758 428.816 386.546 429.966 395.893 429.006C401.083 428.471 406.083 427.298 410.754 425.576C412.722 424.852 423.989 417.683 425.004 418.053C425.004 418.053 429.425 419.682 431.378 418.214L431.402 418.232C431.493 418.151 431.567 418.069 431.637 417.983C431.715 417.904 431.789 417.821 431.854 417.726L431.83 417.709C433.015 415.667 430.36 412.062 430.36 412.062C451.437 372.658 412.315 338.505 397.439 327.416C397.106 327.17 396.766 326.94 396.415 326.728C393.299 324.84 389.488 324.332 386.28 325.431Z" fill="#3594FC"/>
</g>
</g>
<mask id="mask52_244_4443" style="mask-type:luminance" maskUnits="userSpaceOnUse" x="369" y="485" width="207" height="186">
<path d="M515.518 502.189C463.661 472.813 402.455 482.836 378.811 524.575C355.167 566.315 378.038 623.964 429.896 653.34C481.753 682.715 542.958 672.692 566.602 630.953C590.246 589.214 567.375 531.564 515.518 502.189Z" fill="white"/>
</mask>
<g mask="url(#mask52_244_4443)">
<mask id="mask53_244_4443" style="mask-type:luminance" maskUnits="userSpaceOnUse" x="398" y="490" width="119" height="118">
<path d="M398.474 572.609L467.453 490.473L516.082 524.943L447.102 607.079L398.474 572.609Z" fill="#2775CA"/>
</mask>
<g mask="url(#mask53_244_4443)">
<path d="M513.385 521.699C515.272 523.097 516.871 524.735 518.181 526.581C515.545 526.148 512.784 526.422 510.232 527.451C500.722 531.271 492.239 536.279 485.016 542.33C479.397 547.041 474.234 552.032 469.671 557.172C461.514 566.362 455.4 575.852 451.499 585.382C450.329 588.25 449.299 591.251 448.455 594.299C448.249 595.042 448.012 595.757 447.781 596.451C446.973 598.887 445.961 601.942 447.294 605.078C445.389 604.326 443.61 603.35 441.979 602.143C426.903 590.974 430.319 564.253 449.518 542.163C443.827 538.933 439.535 540.046 431.133 545.673C429.82 546.548 428.006 546.487 426.743 545.515C425.049 544.216 425.027 541.859 426.694 540.573C433.89 535.025 444.348 534.277 452.595 538.811C472.145 518.581 498.784 510.883 513.385 521.699Z" fill="#3594FC"/>
</g>
</g>
</g>
<g clip-path="url(#clip10_244_4443)">
<mask id="mask54_244_4443" style="mask-type:luminance" maskUnits="userSpaceOnUse" x="241" y="279" width="207" height="186">
<path d="M387.518 296.189C335.661 266.813 274.455 276.836 250.811 318.575C227.167 360.315 250.038 417.964 301.896 447.34C353.753 476.715 414.958 466.692 438.602 424.953C462.246 383.214 439.375 325.564 387.518 296.189Z" fill="white"/>
</mask>
<g mask="url(#mask54_244_4443)">
<mask id="mask55_244_4443" style="mask-type:luminance" maskUnits="userSpaceOnUse" x="270" y="284" width="119" height="118">
<path d="M270.474 366.609L339.453 284.473L388.082 318.943L319.102 401.079L270.474 366.609Z" fill="#2775CA"/>
</mask>
<g mask="url(#mask55_244_4443)">
<path d="M385.385 315.699C387.272 317.097 388.871 318.735 390.181 320.581C387.545 320.148 384.784 320.422 382.232 321.451C372.722 325.271 364.239 330.279 357.016 336.33C351.397 341.041 346.234 346.032 341.671 351.172C333.514 360.362 327.4 369.852 323.499 379.382C322.329 382.25 321.299 385.251 320.455 388.299C320.249 389.042 320.012 389.757 319.781 390.451C318.973 392.887 317.961 395.942 319.294 399.078C317.389 398.326 315.61 397.35 313.979 396.143C298.903 384.974 302.319 358.253 321.518 336.163C315.827 332.933 311.535 334.046 303.133 339.673C301.82 340.548 300.006 340.487 298.743 339.515C297.049 338.216 297.027 335.859 298.694 334.573C305.89 329.025 316.348 328.277 324.595 332.811C344.145 312.581 370.784 304.883 385.385 315.699Z" fill="#3594FC"/>
</g>
<mask id="mask56_244_4443" style="mask-type:luminance" maskUnits="userSpaceOnUse" x="309" y="314" width="158" height="144">
<path d="M309.59 393.081L379.935 314.4L466.8 378.656L396.455 457.336L309.59 393.081Z" fill="#2775CA"/>
</mask>
<g mask="url(#mask56_244_4443)">
<path d="M343.153 402.691C354.25 408.905 372.279 416.325 395.029 416.266C396.567 416.259 397.031 418.275 395.533 418.46C382.176 420.089 361.561 419.168 341.874 404.405C340.621 403.467 341.776 401.92 343.153 402.691ZM386.28 325.431C376.556 328.772 367.61 333.463 360.017 339.541C345.474 351.186 332.46 366.22 326.246 383.276C325.153 386.273 324.26 389.343 323.561 392.473C322.405 397.597 320.18 400.674 325.47 404.709C325.692 404.878 325.908 405.038 326.13 405.208C328.996 407.36 331.973 409.397 335.016 411.338C344.991 417.666 355.891 422.953 367.304 426.16C376.758 428.816 386.546 429.966 395.893 429.006C401.083 428.471 406.083 427.298 410.754 425.576C412.722 424.852 423.989 417.683 425.004 418.053C425.004 418.053 429.425 419.682 431.378 418.214L431.402 418.232C431.493 418.151 431.567 418.069 431.637 417.983C431.715 417.904 431.789 417.821 431.854 417.726L431.83 417.709C433.015 415.667 430.36 412.062 430.36 412.062C451.437 372.658 412.315 338.505 397.439 327.416C397.106 327.17 396.766 326.94 396.415 326.728C393.299 324.84 389.488 324.332 386.28 325.431Z" fill="#3594FC"/>
</g>
</g>
<mask id="mask57_244_4443" style="mask-type:luminance" maskUnits="userSpaceOnUse" x="369" y="485" width="207" height="186">
<path d="M515.518 502.189C463.661 472.813 402.455 482.836 378.811 524.575C355.167 566.315 378.038 623.964 429.896 653.34C481.753 682.715 542.958 672.692 566.602 630.953C590.246 589.214 567.375 531.564 515.518 502.189Z" fill="white"/>
</mask>
<g mask="url(#mask57_244_4443)">
<mask id="mask58_244_4443" style="mask-type:luminance" maskUnits="userSpaceOnUse" x="398" y="490" width="119" height="118">
<path d="M398.474 572.609L467.453 490.473L516.082 524.943L447.102 607.079L398.474 572.609Z" fill="#2775CA"/>
</mask>
<g mask="url(#mask58_244_4443)">
<path d="M513.385 521.699C515.272 523.097 516.871 524.735 518.181 526.581C515.545 526.148 512.784 526.422 510.232 527.451C500.722 531.271 492.239 536.279 485.016 542.33C479.397 547.041 474.234 552.032 469.671 557.172C461.514 566.362 455.4 575.852 451.499 585.382C450.329 588.25 449.299 591.251 448.455 594.299C448.249 595.042 448.012 595.757 447.781 596.451C446.973 598.887 445.961 601.942 447.294 605.078C445.389 604.326 443.61 603.35 441.979 602.143C426.903 590.974 430.319 564.253 449.518 542.163C443.827 538.933 439.535 540.046 431.133 545.673C429.82 546.548 428.006 546.487 426.743 545.515C425.049 544.216 425.027 541.859 426.694 540.573C433.89 535.025 444.348 534.277 452.595 538.811C472.145 518.581 498.784 510.883 513.385 521.699Z" fill="#3594FC"/>
</g>
</g>
</g>
<g clip-path="url(#clip11_244_4443)">
<mask id="mask59_244_4443" style="mask-type:luminance" maskUnits="userSpaceOnUse" x="241" y="279" width="207" height="186">
<path d="M387.518 296.189C335.661 266.813 274.455 276.836 250.811 318.575C227.167 360.315 250.038 417.964 301.896 447.34C353.753 476.715 414.958 466.692 438.602 424.953C462.246 383.214 439.375 325.564 387.518 296.189Z" fill="white"/>
</mask>
<g mask="url(#mask59_244_4443)">
<mask id="mask60_244_4443" style="mask-type:luminance" maskUnits="userSpaceOnUse" x="270" y="284" width="119" height="118">
<path d="M270.474 366.609L339.453 284.473L388.082 318.943L319.102 401.079L270.474 366.609Z" fill="#2775CA"/>
</mask>
<g mask="url(#mask60_244_4443)">
<path d="M385.385 315.699C387.272 317.097 388.871 318.735 390.181 320.581C387.545 320.148 384.784 320.422 382.232 321.451C372.722 325.271 364.239 330.279 357.016 336.33C351.397 341.041 346.234 346.032 341.671 351.172C333.514 360.362 327.4 369.852 323.499 379.382C322.329 382.25 321.299 385.251 320.455 388.299C320.249 389.042 320.012 389.757 319.781 390.451C318.973 392.887 317.961 395.942 319.294 399.078C317.389 398.326 315.61 397.35 313.979 396.143C298.903 384.974 302.319 358.253 321.518 336.163C315.827 332.933 311.535 334.046 303.133 339.673C301.82 340.548 300.006 340.487 298.743 339.515C297.049 338.216 297.027 335.859 298.694 334.573C305.89 329.025 316.348 328.277 324.595 332.811C344.145 312.581 370.784 304.883 385.385 315.699Z" fill="#3594FC"/>
</g>
<mask id="mask61_244_4443" style="mask-type:luminance" maskUnits="userSpaceOnUse" x="309" y="314" width="158" height="144">
<path d="M309.59 393.081L379.935 314.4L466.8 378.656L396.455 457.336L309.59 393.081Z" fill="#2775CA"/>
</mask>
<g mask="url(#mask61_244_4443)">
<path d="M343.153 402.691C354.25 408.905 372.279 416.325 395.029 416.266C396.567 416.259 397.031 418.275 395.533 418.46C382.176 420.089 361.561 419.168 341.874 404.405C340.621 403.467 341.776 401.92 343.153 402.691ZM386.28 325.431C376.556 328.772 367.61 333.463 360.017 339.541C345.474 351.186 332.46 366.22 326.246 383.276C325.153 386.273 324.26 389.343 323.561 392.473C322.405 397.597 320.18 400.674 325.47 404.709C325.692 404.878 325.908 405.038 326.13 405.208C328.996 407.36 331.973 409.397 335.016 411.338C344.991 417.666 355.891 422.953 367.304 426.16C376.758 428.816 386.546 429.966 395.893 429.006C401.083 428.471 406.083 427.298 410.754 425.576C412.722 424.852 423.989 417.683 425.004 418.053C425.004 418.053 429.425 419.682 431.378 418.214L431.402 418.232C431.493 418.151 431.567 418.069 431.637 417.983C431.715 417.904 431.789 417.821 431.854 417.726L431.83 417.709C433.015 415.667 430.36 412.062 430.36 412.062C451.437 372.658 412.315 338.505 397.439 327.416C397.106 327.17 396.766 326.94 396.415 326.728C393.299 324.84 389.488 324.332 386.28 325.431Z" fill="#3594FC"/>
</g>
</g>
<mask id="mask62_244_4443" style="mask-type:luminance" maskUnits="userSpaceOnUse" x="369" y="485" width="207" height="186">
<path d="M515.518 502.189C463.661 472.813 402.455 482.836 378.811 524.575C355.167 566.315 378.038 623.964 429.896 653.34C481.753 682.715 542.958 672.692 566.602 630.953C590.246 589.214 567.375 531.564 515.518 502.189Z" fill="white"/>
</mask>
<g mask="url(#mask62_244_4443)">
<mask id="mask63_244_4443" style="mask-type:luminance" maskUnits="userSpaceOnUse" x="398" y="490" width="119" height="118">
<path d="M398.474 572.609L467.453 490.473L516.082 524.943L447.102 607.079L398.474 572.609Z" fill="#2775CA"/>
</mask>
<g mask="url(#mask63_244_4443)">
<path d="M513.385 521.699C515.272 523.097 516.871 524.735 518.181 526.581C515.545 526.148 512.784 526.422 510.232 527.451C500.722 531.271 492.239 536.279 485.016 542.33C479.397 547.041 474.234 552.032 469.671 557.172C461.514 566.362 455.4 575.852 451.499 585.382C450.329 588.25 449.299 591.251 448.455 594.299C448.249 595.042 448.012 595.757 447.781 596.451C446.973 598.887 445.961 601.942 447.294 605.078C445.389 604.326 443.61 603.35 441.979 602.143C426.903 590.974 430.319 564.253 449.518 542.163C443.827 538.933 439.535 540.046 431.133 545.673C429.82 546.548 428.006 546.487 426.743 545.515C425.049 544.216 425.027 541.859 426.694 540.573C433.89 535.025 444.348 534.277 452.595 538.811C472.145 518.581 498.784 510.883 513.385 521.699Z" fill="#3594FC"/>
</g>
</g>
</g>
<g clip-path="url(#clip12_244_4443)">
<mask id="mask64_244_4443" style="mask-type:luminance" maskUnits="userSpaceOnUse" x="241" y="279" width="207" height="186">
<path d="M387.518 296.189C335.661 266.813 274.455 276.836 250.811 318.575C227.167 360.315 250.038 417.964 301.896 447.34C353.753 476.715 414.958 466.692 438.602 424.953C462.246 383.214 439.375 325.564 387.518 296.189Z" fill="white"/>
</mask>
<g mask="url(#mask64_244_4443)">
<mask id="mask65_244_4443" style="mask-type:luminance" maskUnits="userSpaceOnUse" x="270" y="284" width="119" height="118">
<path d="M270.474 366.609L339.453 284.473L388.082 318.943L319.102 401.079L270.474 366.609Z" fill="#2775CA"/>
</mask>
<g mask="url(#mask65_244_4443)">
<path d="M385.385 315.699C387.272 317.097 388.871 318.735 390.181 320.581C387.545 320.148 384.784 320.422 382.232 321.451C372.722 325.271 364.239 330.279 357.016 336.33C351.397 341.041 346.234 346.032 341.671 351.172C333.514 360.362 327.4 369.852 323.499 379.382C322.329 382.25 321.299 385.251 320.455 388.299C320.249 389.042 320.012 389.757 319.781 390.451C318.973 392.887 317.961 395.942 319.294 399.078C317.389 398.326 315.61 397.35 313.979 396.143C298.903 384.974 302.319 358.253 321.518 336.163C315.827 332.933 311.535 334.046 303.133 339.673C301.82 340.548 300.006 340.487 298.743 339.515C297.049 338.216 297.027 335.859 298.694 334.573C305.89 329.025 316.348 328.277 324.595 332.811C344.145 312.581 370.784 304.883 385.385 315.699Z" fill="#3594FC"/>
</g>
<mask id="mask66_244_4443" style="mask-type:luminance" maskUnits="userSpaceOnUse" x="309" y="314" width="158" height="144">
<path d="M309.59 393.081L379.935 314.4L466.8 378.656L396.455 457.336L309.59 393.081Z" fill="#2775CA"/>
</mask>
<g mask="url(#mask66_244_4443)">
<path d="M343.153 402.691C354.25 408.905 372.279 416.325 395.029 416.266C396.567 416.259 397.031 418.275 395.533 418.46C382.176 420.089 361.561 419.168 341.874 404.405C340.621 403.467 341.776 401.92 343.153 402.691ZM386.28 325.431C376.556 328.772 367.61 333.463 360.017 339.541C345.474 351.186 332.46 366.22 326.246 383.276C325.153 386.273 324.26 389.343 323.561 392.473C322.405 397.597 320.18 400.674 325.47 404.709C325.692 404.878 325.908 405.038 326.13 405.208C328.996 407.36 331.973 409.397 335.016 411.338C344.991 417.666 355.891 422.953 367.304 426.16C376.758 428.816 386.546 429.966 395.893 429.006C401.083 428.471 406.083 427.298 410.754 425.576C412.722 424.852 423.989 417.683 425.004 418.053C425.004 418.053 429.425 419.682 431.378 418.214L431.402 418.232C431.493 418.151 431.567 418.069 431.637 417.983C431.715 417.904 431.789 417.821 431.854 417.726L431.83 417.709C433.015 415.667 430.36 412.062 430.36 412.062C451.437 372.658 412.315 338.505 397.439 327.416C397.106 327.17 396.766 326.94 396.415 326.728C393.299 324.84 389.488 324.332 386.28 325.431Z" fill="#3594FC"/>
</g>
</g>
<mask id="mask67_244_4443" style="mask-type:luminance" maskUnits="userSpaceOnUse" x="369" y="485" width="207" height="186">
<path d="M515.518 502.189C463.661 472.813 402.455 482.836 378.811 524.575C355.167 566.315 378.038 623.964 429.896 653.34C481.753 682.715 542.958 672.692 566.602 630.953C590.246 589.214 567.375 531.564 515.518 502.189Z" fill="white"/>
</mask>
<g mask="url(#mask67_244_4443)">
<mask id="mask68_244_4443" style="mask-type:luminance" maskUnits="userSpaceOnUse" x="398" y="490" width="119" height="118">
<path d="M398.474 572.609L467.453 490.473L516.082 524.943L447.102 607.079L398.474 572.609Z" fill="#2775CA"/>
</mask>
<g mask="url(#mask68_244_4443)">
<path d="M513.385 521.699C515.272 523.097 516.871 524.735 518.181 526.581C515.545 526.148 512.784 526.422 510.232 527.451C500.722 531.271 492.239 536.279 485.016 542.33C479.397 547.041 474.234 552.032 469.671 557.172C461.514 566.362 455.4 575.852 451.499 585.382C450.329 588.25 449.299 591.251 448.455 594.299C448.249 595.042 448.012 595.757 447.781 596.451C446.973 598.887 445.961 601.942 447.294 605.078C445.389 604.326 443.61 603.35 441.979 602.143C426.903 590.974 430.319 564.253 449.518 542.163C443.827 538.933 439.535 540.046 431.133 545.673C429.82 546.548 428.006 546.487 426.743 545.515C425.049 544.216 425.027 541.859 426.694 540.573C433.89 535.025 444.348 534.277 452.595 538.811C472.145 518.581 498.784 510.883 513.385 521.699Z" fill="#3594FC"/>
</g>
</g>
</g>
<g clip-path="url(#clip13_244_4443)">
<mask id="mask69_244_4443" style="mask-type:luminance" maskUnits="userSpaceOnUse" x="241" y="279" width="207" height="186">
<path d="M387.518 296.189C335.661 266.813 274.455 276.836 250.811 318.575C227.167 360.315 250.038 417.964 301.896 447.34C353.753 476.715 414.958 466.692 438.602 424.953C462.246 383.214 439.375 325.564 387.518 296.189Z" fill="white"/>
</mask>
<g mask="url(#mask69_244_4443)">
<mask id="mask70_244_4443" style="mask-type:luminance" maskUnits="userSpaceOnUse" x="270" y="284" width="119" height="118">
<path d="M270.474 366.609L339.453 284.473L388.082 318.943L319.102 401.079L270.474 366.609Z" fill="#2775CA"/>
</mask>
<g mask="url(#mask70_244_4443)">
<path d="M385.385 315.699C387.272 317.097 388.871 318.735 390.181 320.581C387.545 320.148 384.784 320.422 382.232 321.451C372.722 325.271 364.239 330.279 357.016 336.33C351.397 341.041 346.234 346.032 341.671 351.172C333.514 360.362 327.4 369.852 323.499 379.382C322.329 382.25 321.299 385.251 320.455 388.299C320.249 389.042 320.012 389.757 319.781 390.451C318.973 392.887 317.961 395.942 319.294 399.078C317.389 398.326 315.61 397.35 313.979 396.143C298.903 384.974 302.319 358.253 321.518 336.163C315.827 332.933 311.535 334.046 303.133 339.673C301.82 340.548 300.006 340.487 298.743 339.515C297.049 338.216 297.027 335.859 298.694 334.573C305.89 329.025 316.348 328.277 324.595 332.811C344.145 312.581 370.784 304.883 385.385 315.699Z" fill="#3594FC"/>
</g>
<mask id="mask71_244_4443" style="mask-type:luminance" maskUnits="userSpaceOnUse" x="309" y="314" width="158" height="144">
<path d="M309.59 393.081L379.935 314.4L466.8 378.656L396.455 457.336L309.59 393.081Z" fill="#2775CA"/>
</mask>
<g mask="url(#mask71_244_4443)">
<path d="M343.153 402.691C354.25 408.905 372.279 416.325 395.029 416.266C396.567 416.259 397.031 418.275 395.533 418.46C382.176 420.089 361.561 419.168 341.874 404.405C340.621 403.467 341.776 401.92 343.153 402.691ZM386.28 325.431C376.556 328.772 367.61 333.463 360.017 339.541C345.474 351.186 332.46 366.22 326.246 383.276C325.153 386.273 324.26 389.343 323.561 392.473C322.405 397.597 320.18 400.674 325.47 404.709C325.692 404.878 325.908 405.038 326.13 405.208C328.996 407.36 331.973 409.397 335.016 411.338C344.991 417.666 355.891 422.953 367.304 426.16C376.758 428.816 386.546 429.966 395.893 429.006C401.083 428.471 406.083 427.298 410.754 425.576C412.722 424.852 423.989 417.683 425.004 418.053C425.004 418.053 429.425 419.682 431.378 418.214L431.402 418.232C431.493 418.151 431.567 418.069 431.637 417.983C431.715 417.904 431.789 417.821 431.854 417.726L431.83 417.709C433.015 415.667 430.36 412.062 430.36 412.062C451.437 372.658 412.315 338.505 397.439 327.416C397.106 327.17 396.766 326.94 396.415 326.728C393.299 324.84 389.488 324.332 386.28 325.431Z" fill="#3594FC"/>
</g>
</g>
<mask id="mask72_244_4443" style="mask-type:luminance" maskUnits="userSpaceOnUse" x="369" y="485" width="207" height="186">
<path d="M515.518 502.189C463.661 472.813 402.455 482.836 378.811 524.575C355.167 566.315 378.038 623.964 429.896 653.34C481.753 682.715 542.958 672.692 566.602 630.953C590.246 589.214 567.375 531.564 515.518 502.189Z" fill="white"/>
</mask>
<g mask="url(#mask72_244_4443)">
<mask id="mask73_244_4443" style="mask-type:luminance" maskUnits="userSpaceOnUse" x="398" y="490" width="119" height="118">
<path d="M398.474 572.609L467.453 490.473L516.082 524.943L447.102 607.079L398.474 572.609Z" fill="#2775CA"/>
</mask>
<g mask="url(#mask73_244_4443)">
<path d="M513.385 521.699C515.272 523.097 516.871 524.735 518.181 526.581C515.545 526.148 512.784 526.422 510.232 527.451C500.722 531.271 492.239 536.279 485.016 542.33C479.397 547.041 474.234 552.032 469.671 557.172C461.514 566.362 455.4 575.852 451.499 585.382C450.329 588.25 449.299 591.251 448.455 594.299C448.249 595.042 448.012 595.757 447.781 596.451C446.973 598.887 445.961 601.942 447.294 605.078C445.389 604.326 443.61 603.35 441.979 602.143C426.903 590.974 430.319 564.253 449.518 542.163C443.827 538.933 439.535 540.046 431.133 545.673C429.82 546.548 428.006 546.487 426.743 545.515C425.049 544.216 425.027 541.859 426.694 540.573C433.89 535.025 444.348 534.277 452.595 538.811C472.145 518.581 498.784 510.883 513.385 521.699Z" fill="#3594FC"/>
</g>
</g>
</g>
<path d="M271.605 320.441C325.954 289.062 414 289.062 468.334 320.441C494.298 335.455 507.839 354.913 508.988 374.574C510.23 353.111 496.689 331.414 468.334 315.032C413.985 283.637 325.923 283.637 271.605 315.032C243.25 331.414 229.678 353.111 230.951 374.574C232.1 354.913 245.688 335.439 271.605 320.441Z" fill="url(#paint8_linear_244_4443)"/>
<path d="M371.887 296.226C366.404 296.34 360.983 295.045 356.141 292.465C351.762 289.947 349.355 286.528 349.355 282.86C349.355 279.192 351.762 275.788 356.141 273.255C364.822 268.25 378.953 268.25 387.649 273.255C392.012 275.788 394.419 279.208 394.419 282.86C394.419 286.512 392.012 289.947 387.649 292.465C382.802 295.045 377.376 296.34 371.887 296.226ZM371.887 271.203C366.702 271.108 361.578 272.333 356.995 274.762C353.191 276.969 351.095 279.845 351.095 282.86C351.095 285.875 353.191 288.766 357.011 290.973C365.21 295.713 378.564 295.713 386.779 290.973C390.583 288.766 392.695 285.891 392.695 282.86C392.695 279.829 390.583 276.969 386.779 274.762C382.197 272.331 377.072 271.106 371.887 271.203Z" fill="#0B6FBD"/>
<path d="M381.22 288.253C378.334 289.722 375.142 290.487 371.903 290.487C368.665 290.487 365.473 289.722 362.586 288.253C357.431 285.284 357.431 280.482 362.586 277.482C365.473 276.014 368.665 275.248 371.903 275.248C375.142 275.248 378.334 276.014 381.22 277.482C386.36 280.451 386.36 285.284 381.22 288.253Z" fill="#2775CA"/>
<path d="M426.282 256.764L417.043 251.433L432.773 242.341L442.028 247.672L426.282 256.764Z" fill="#2775CA"/>
<path opacity="0.8" d="M409.667 248.341L398.021 244.906L408.13 233.452L419.776 236.886L409.667 248.341Z" fill="#2775CA"/>
<path opacity="0.6" d="M389.357 243.274L376.453 242.093L379.931 229.395L392.836 230.576L389.357 243.274Z" fill="#2775CA"/>
<path opacity="0.4" d="M367.337 242.093L354.417 243.274L350.938 230.576L363.843 229.395L367.337 242.093Z" fill="#2775CA"/>
<path opacity="0.2" d="M345.753 244.906L334.106 248.341L324.013 236.871L335.643 233.452L345.753 244.906Z" fill="#2775CA"/>
<path opacity="0.1" d="M326.73 251.433L317.49 256.764L301.76 247.672L310.999 242.341L326.73 251.433Z" fill="#2775CA"/>
<path opacity="0.2" d="M395.444 271.141L392.198 269.26L415.677 255.692L418.923 257.572L395.444 271.141Z" fill="#2775CA"/>
<path opacity="0.4" d="M388.006 267.504L383.922 266.292L399 249.195L403.084 250.408L388.006 267.504Z" fill="#2775CA"/>
<path opacity="0.6" d="M379.015 265.375L374.48 264.955L379.667 246.01L384.201 246.429L379.015 265.375Z" fill="#2775CA"/>
<path opacity="0.8" d="M369.31 264.955L364.775 265.375L359.573 246.429L364.108 246.01L369.31 264.955Z" fill="#2775CA"/>
<path d="M359.853 266.292L355.769 267.504L340.69 250.408L344.79 249.195L359.853 266.292Z" fill="#2775CA"/>
<path d="M351.591 269.26L348.345 271.141L324.866 257.572L328.112 255.692L351.591 269.26Z" fill="#2775CA"/>
<path d="M345.302 273.55L343.221 275.912L313.64 267.193L315.72 264.831L345.302 273.55Z" fill="#2775CA"/>
<path d="M341.621 278.756L340.906 281.367L308.11 278.368L308.825 275.741L341.621 278.756Z" fill="#2775CA"/>
<path d="M340.906 284.352L341.621 286.978L308.825 289.978L308.11 287.351L340.906 284.352Z" fill="#2775CA"/>
<path d="M343.221 289.823L345.302 292.185L315.72 300.889L313.64 298.526L343.221 289.823Z" fill="#2775CA"/>
<path d="M348.345 294.594L351.591 296.475L328.112 310.043L324.866 308.162L348.345 294.594Z" fill="#2775CA"/>
<path opacity="0.6" d="M464.11 238.813C498.63 262.872 500.556 297.267 469.934 322.507L482.356 333.962C524.609 303.531 523.677 259.717 479.608 229.83L464.11 238.813Z" fill="#2775CA"/>
<path opacity="0.2" d="M390.448 350.83C353.941 354.14 315.275 347.721 287.153 331.433C281.012 327.941 275.283 323.771 270.072 319L249 323.196C255.779 329.868 263.407 335.616 271.687 340.292C307.262 360.839 357.093 368.144 402.778 362.222L390.448 350.83Z" fill="#2775CA"/>
<path d="M231.852 294.47L252.924 290.274C249.197 270.193 260.688 249.351 287.273 233.964C331.311 208.522 401.112 207.061 448.132 229.566L463.583 220.645C408.006 193.229 324.401 194.689 271.853 225.059C239.103 243.974 225.78 269.867 231.852 294.47Z" fill="#2775CA"/>
<path d="M358.983 328.585L350.737 323.829L456.61 262.64L464.856 267.396L358.983 328.585Z" fill="#2775CA"/>
<path opacity="0.8" d="M370.691 335.361L362.445 330.59L408.472 303.997L416.717 308.768L370.691 335.361Z" fill="#2775CA"/>
<path opacity="0.6" d="M383.223 342.604L374.978 337.832L448.241 295.511L456.486 300.267L383.223 342.604Z" fill="#2775CA"/>
<path opacity="0.2" d="M395.568 349.722L387.307 344.966L444.343 312.017L452.588 316.773L395.568 349.722Z" fill="#2775CA"/>
</g>
<defs>
<linearGradient id="paint0_linear_244_4443" x1="461.135" y1="-309.522" x2="783.934" y2="532.891" gradientUnits="userSpaceOnUse">
<stop offset="0.00887753" stop-color="#DDEDF9"/>
<stop offset="0.1723" stop-color="#BEDDF5"/>
<stop offset="0.4204" stop-color="#9CC9ED"/>
<stop offset="0.5512" stop-color="#7BB8E8"/>
<stop offset="0.743055" stop-color="#5AA8E4"/>
<stop offset="1" stop-color="#3389CC"/>
</linearGradient>
<linearGradient id="paint1_linear_244_4443" x1="647.486" y1="801.891" x2="103.361" y2="496.387" gradientUnits="userSpaceOnUse">
<stop offset="0.00887753" stop-color="#DEEDF9"/>
<stop offset="0.1723" stop-color="#BCDBF3"/>
<stop offset="0.4204" stop-color="#9DCBEE"/>
<stop offset="0.5512" stop-color="#7CBAEA"/>
<stop offset="0.7154" stop-color="#5DA9E5"/>
<stop offset="1" stop-color="#348ACC"/>
</linearGradient>
<linearGradient id="paint2_linear_244_4443" x1="506.535" y1="599.079" x2="238.802" y2="448.758" gradientUnits="userSpaceOnUse">
<stop offset="0.00887753" stop-color="#DEEDF9"/>
<stop offset="0.1723" stop-color="#BDDCF4"/>
<stop offset="0.4204" stop-color="#9ECCF0"/>
<stop offset="0.5512" stop-color="#7BB8E8"/>
<stop offset="0.7154" stop-color="#5AA6E2"/>
<stop offset="1" stop-color="#338ACE"/>
</linearGradient>
<linearGradient id="paint3_linear_244_4443" x1="99993" y1="-16160.8" x2="118955" y2="14626.1" gradientUnits="userSpaceOnUse">
<stop stop-color="#052F50"/>
<stop offset="0.02" stop-color="#40DDDA"/>
<stop offset="0.09" stop-color="#3AAEC0"/>
<stop offset="0.17" stop-color="#3484A9"/>
<stop offset="0.26" stop-color="#2F6195"/>
<stop offset="0.35" stop-color="#2B4486"/>
<stop offset="0.44" stop-color="#282E79"/>
<stop offset="0.54" stop-color="#261E71"/>
<stop offset="0.66" stop-color="#24156C"/>
<stop offset="0.82" stop-color="#24126A"/>
</linearGradient>
<linearGradient id="paint4_linear_244_4443" x1="189.179" y1="399.675" x2="500.214" y2="399.675" gradientUnits="userSpaceOnUse">
<stop stop-color="#0B6FBD"/>
<stop offset="0.15" stop-color="#0B6FBD"/>
<stop offset="0.33" stop-color="#0B6FBD"/>
<stop offset="0.52" stop-color="#0B6FBD"/>
<stop offset="0.72" stop-color="#052F50"/>
<stop offset="0.93" stop-color="#052F50"/>
<stop offset="1" stop-color="#052F50"/>
</linearGradient>
<linearGradient id="paint5_linear_244_4443" x1="22241.8" y1="45150.4" x2="84897.2" y2="45150.4" gradientUnits="userSpaceOnUse">
<stop stop-color="#0B6FBD"/>
<stop offset="0.15" stop-color="#43E3E0"/>
<stop offset="0.33" stop-color="#45D5DF"/>
<stop offset="0.52" stop-color="#49BDDD"/>
<stop offset="0.72" stop-color="#4E9CDB"/>
<stop offset="0.93" stop-color="#5472D8"/>
<stop offset="1" stop-color="#5761D7"/>
</linearGradient>
<linearGradient id="paint6_linear_244_4443" x1="102728" y1="-22204.8" x2="121690" y2="8582.16" gradientUnits="userSpaceOnUse">
<stop stop-color="#052F50"/>
<stop offset="0.02" stop-color="#40DDDA"/>
<stop offset="0.09" stop-color="#3AAEC0"/>
<stop offset="0.17" stop-color="#3484A9"/>
<stop offset="0.26" stop-color="#2F6195"/>
<stop offset="0.35" stop-color="#2B4486"/>
<stop offset="0.44" stop-color="#282E79"/>
<stop offset="0.54" stop-color="#261E71"/>
<stop offset="0.66" stop-color="#24156C"/>
<stop offset="0.82" stop-color="#24126A"/>
</linearGradient>
<linearGradient id="paint7_linear_244_4443" x1="342.442" y1="251.604" x2="420.293" y2="640.302" gradientUnits="userSpaceOnUse">
<stop stop-color="#42E8E0"/>
<stop offset="0.02" stop-color="#40DDDA"/>
<stop offset="0.09" stop-color="#3AAEC0"/>
<stop offset="0.17" stop-color="#3484A9"/>
<stop offset="0.26" stop-color="#2F6195"/>
<stop offset="0.35" stop-color="#2B4486"/>
<stop offset="0.44" stop-color="#282E79"/>
<stop offset="0.54" stop-color="#261E71"/>
<stop offset="0.66" stop-color="#24156C"/>
<stop offset="0.82" stop-color="#24126A"/>
</linearGradient>
<linearGradient id="paint8_linear_244_4443" x1="230.873" y1="333.03" x2="509.065" y2="333.03" gradientUnits="userSpaceOnUse">
<stop stop-color="#052F50"/>
<stop offset="1" stop-color="#052F50"/>
</linearGradient>
<clipPath id="clip0_244_4443">
<rect width="644" height="657" fill="white"/>
</clipPath>
<clipPath id="clip1_244_4443">
<rect width="173.718" height="215.828" fill="white" transform="translate(208 394.151) rotate(-60.4698)"/>
</clipPath>
<clipPath id="clip2_244_4443">
<rect width="173.718" height="215.828" fill="white" transform="translate(208 394.151) rotate(-60.4698)"/>
</clipPath>
<clipPath id="clip3_244_4443">
<rect width="173.718" height="215.828" fill="white" transform="translate(208 394.151) rotate(-60.4698)"/>
</clipPath>
<clipPath id="clip4_244_4443">
<rect width="173.718" height="215.828" fill="white" transform="translate(208 394.151) rotate(-60.4698)"/>
</clipPath>
<clipPath id="clip5_244_4443">
<rect width="173.718" height="215.828" fill="white" transform="translate(208 394.151) rotate(-60.4698)"/>
</clipPath>
<clipPath id="clip6_244_4443">
<rect width="173.718" height="215.828" fill="white" transform="translate(208 394.151) rotate(-60.4698)"/>
</clipPath>
<clipPath id="clip7_244_4443">
<rect width="173.718" height="215.828" fill="white" transform="translate(208 394.151) rotate(-60.4698)"/>
</clipPath>
<clipPath id="clip8_244_4443">
<rect width="173.718" height="215.828" fill="white" transform="translate(208 394.151) rotate(-60.4698)"/>
</clipPath>
<clipPath id="clip9_244_4443">
<rect width="173.718" height="215.828" fill="white" transform="translate(208 394.151) rotate(-60.4698)"/>
</clipPath>
<clipPath id="clip10_244_4443">
<rect width="173.718" height="215.828" fill="white" transform="translate(208 394.151) rotate(-60.4698)"/>
</clipPath>
<clipPath id="clip11_244_4443">
<rect width="173.718" height="215.828" fill="white" transform="translate(208 394.151) rotate(-60.4698)"/>
</clipPath>
<clipPath id="clip12_244_4443">
<rect width="173.718" height="215.828" fill="white" transform="translate(208 394.151) rotate(-60.4698)"/>
</clipPath>
<clipPath id="clip13_244_4443">
<rect width="173.718" height="215.828" fill="white" transform="translate(208 394.151) rotate(-60.4698)"/>
</clipPath>
</defs>
</svg>
