<svg width="1154" height="299" viewBox="0 0 1154 299" fill="none" xmlns="http://www.w3.org/2000/svg">
<path d="M155.871 48.7501C159.281 61.6264 164.428 73.8233 171.11 84.9608C173.644 82.9922 176.122 81.1308 178.519 79.392C167.057 59.8473 160.471 37.1511 160.471 12.988H151.27C151.27 37.1511 144.685 59.8473 133.223 79.392C135.619 81.1308 138.098 83.0051 140.631 84.9608C147.312 73.8233 152.461 61.6264 155.871 48.7501Z" fill="#E5D540"/>
<path d="M227.058 127.528C224.347 126.02 221.717 124.376 219.185 122.638C216.419 120.804 213.804 118.849 211.215 116.798C208.779 114.923 206.423 112.968 204.123 110.863C201.083 108.078 198.14 105.157 195.332 102.142C192.935 103.826 190.458 105.7 187.965 107.67C191.279 111.364 194.825 114.882 198.549 118.128C200.808 120.179 203.15 122.189 205.588 124.064C208.161 126.114 210.831 128.043 213.556 129.904C216.131 131.643 218.759 133.286 221.43 134.875C232.712 141.503 244.953 146.61 257.933 149.992C244.953 153.375 232.698 158.481 221.43 165.109C218.759 166.711 216.131 168.355 213.556 170.08C210.845 171.955 208.176 173.87 205.588 175.921C203.15 177.795 200.795 179.805 198.549 181.857C194.826 185.102 191.279 188.62 187.965 192.315C190.457 194.283 192.935 196.145 195.332 197.842C198.14 194.826 201.083 191.906 204.123 189.122C206.423 187.017 208.779 185.061 211.215 183.186C213.79 181.136 216.419 179.166 219.185 177.346C221.718 175.608 224.347 173.964 227.058 172.457C246.762 161.089 269.601 154.555 294 154.555V145.428C269.601 145.43 246.762 138.896 227.058 127.528Z" fill="#E5D540"/>
<path d="M92.5692 177.348C95.3346 179.181 97.9505 181.138 100.539 183.188C102.976 185.063 105.331 187.018 107.631 189.124C110.671 191.908 113.615 194.828 116.422 197.844C118.819 196.16 121.296 194.285 123.789 192.317C120.476 188.622 116.929 185.104 113.205 181.859C110.945 179.808 108.604 177.797 106.167 175.923C103.593 173.872 100.923 171.942 98.1979 170.082C95.6235 168.343 92.9947 166.7 90.3253 165.111C79.042 158.483 66.8016 153.377 53.8208 149.994C66.8016 146.612 79.0559 141.505 90.3253 134.877C92.9947 133.274 95.6235 131.631 98.1979 129.906C100.909 128.031 103.578 126.116 106.167 124.066C108.604 122.192 110.959 120.182 113.205 118.13C116.929 114.884 120.476 111.366 123.789 107.672C121.297 105.702 118.819 103.842 116.422 102.144C113.615 105.159 110.671 108.08 107.631 110.865C105.331 112.97 102.976 114.925 100.539 116.8C97.9644 118.851 95.3356 120.82 92.5692 122.64C90.0364 124.379 87.4076 126.023 84.6966 127.53C64.9933 138.896 42.1536 145.43 17.7539 145.43V154.557C42.1536 154.557 64.9933 161.09 84.6966 172.459C87.4076 173.965 90.0364 175.609 92.5692 177.348Z" fill="#E5D540"/>
<path d="M155.871 251.249C152.461 238.373 147.312 226.176 140.631 215.038C138.098 217.007 135.619 218.868 133.223 220.607C144.684 240.152 151.27 262.848 151.27 287.011H160.471C160.471 262.848 167.057 240.152 178.519 220.607C176.122 218.868 173.644 216.994 171.11 215.038C164.428 226.176 159.28 238.373 155.871 251.249Z" fill="#E5D540"/>
<path d="M224.47 184.845C221.759 186.665 219.089 188.635 216.501 190.74C227.921 207.772 233.165 221.287 235.466 228.96C227.73 226.679 214.106 221.476 196.935 210.149C194.498 208.506 191.965 206.767 189.336 204.893C186.94 203.154 184.543 201.334 182.011 199.324C179.71 197.49 177.314 195.534 174.876 193.483C173.179 192.016 171.426 190.468 169.633 188.866H169.591C167.387 186.855 165.169 184.805 162.908 182.604L185.789 159.907L188.732 156.988C190.936 159.229 193.059 161.47 195.045 163.616H195.085C196.646 165.395 198.221 167.134 199.687 168.872C202.26 166.821 204.931 164.852 207.655 163.032C205.903 160.981 204.068 158.875 202.041 156.729C200.056 154.583 197.988 152.247 195.784 150.019C197.988 147.777 200.07 145.455 202.041 143.309C204.068 141.163 205.903 139.058 207.655 137.007C204.944 135.173 202.275 133.217 199.687 131.166C198.208 132.905 196.646 134.644 195.085 136.423H195.045C193.059 138.569 190.95 140.81 188.732 143.051L185.789 140.131L162.908 117.435C165.168 115.248 167.372 113.184 169.591 111.173H169.633C171.426 109.571 173.179 108.021 174.876 106.555C177.313 104.505 179.71 102.534 182.011 100.715C184.543 98.7042 186.94 96.8848 189.336 95.1461C191.965 93.2709 194.498 91.5331 196.935 89.8895C214.106 78.5616 227.73 73.36 235.466 71.0782C233.165 78.752 227.921 92.2674 216.501 109.3C219.075 111.405 221.746 113.36 224.47 115.193C244.311 85.924 246.844 66.1889 246.982 65.0883L247.721 58.9216L241.505 59.655C240.396 59.7905 220.514 62.3039 190.994 81.985C188.557 83.5874 186.023 85.3124 183.45 87.2407C181.053 88.9794 178.616 90.7997 176.123 92.8094C173.782 94.6297 171.386 96.5992 168.935 98.7042C166.867 100.388 164.745 102.263 162.623 104.232H162.581C160.377 106.201 158.159 108.293 155.899 110.494L155.857 110.452L155.816 110.494C153.556 108.307 151.352 106.201 149.134 104.232H149.092C146.97 102.263 144.862 100.402 142.78 98.7042C140.343 96.5992 137.946 94.6434 135.592 92.8094C133.099 90.7997 130.663 88.9794 128.265 87.2407C125.692 85.3261 123.158 83.5874 120.721 81.985C91.2146 62.3057 71.3193 59.7924 70.2098 59.6569L63.9932 58.9235L64.7325 65.0901C64.8691 66.1907 67.4029 85.9121 87.2427 115.195C89.9537 113.375 92.6241 111.406 95.2114 109.301C83.7933 92.2683 78.5486 78.7538 76.2484 71.0792C83.9844 73.3609 97.6085 78.5634 114.779 89.8905C117.216 91.534 119.749 93.2727 122.378 95.147C124.775 96.8857 127.17 98.7051 129.704 100.716C132.004 102.549 134.4 104.505 136.838 106.556C138.535 108.022 140.288 109.572 142.082 111.174H142.123C144.327 113.185 146.545 115.235 148.806 117.436L125.926 140.132L122.981 143.052C120.777 140.811 118.654 138.57 116.668 136.424H116.627C115.066 134.645 113.492 132.906 112.026 131.167C109.453 133.218 106.783 135.188 104.058 137.008C105.811 139.058 107.645 141.164 109.672 143.31C111.656 145.456 113.725 147.793 115.929 150.02C113.725 152.261 111.643 154.584 109.672 156.73C107.645 158.876 105.811 160.981 104.058 163.032C106.769 164.866 109.438 166.822 112.026 168.873C113.505 167.134 115.067 165.396 116.627 163.617H116.668C118.654 161.47 120.763 159.23 122.981 156.989L125.925 159.908L148.805 182.605C146.545 184.791 144.34 186.856 142.122 188.867H142.081C140.287 190.469 138.534 192.018 136.837 193.484C134.4 195.535 132.003 197.504 129.703 199.325C127.169 201.335 124.774 203.155 122.377 204.893C119.749 206.768 117.215 208.506 114.778 210.15C97.6076 221.477 83.9835 226.68 76.2475 228.961C78.5477 221.288 83.7924 207.772 95.2114 190.741C92.6379 188.636 89.9676 186.68 87.2427 184.846C67.402 214.116 64.8691 233.852 64.7325 234.951L63.9932 241.117L70.2098 240.384C71.3193 240.248 91.2007 237.735 120.721 218.054C123.158 216.451 125.692 214.726 128.265 212.798C130.662 211.059 133.099 209.239 135.592 207.228C137.933 205.408 140.329 203.439 142.78 201.334C144.847 199.651 146.97 197.775 149.092 195.806H149.134C151.338 193.837 153.556 191.745 155.816 189.545L155.857 189.586L155.899 189.545C158.158 191.731 160.362 193.837 162.581 195.806H162.623C164.745 197.775 166.853 199.636 168.935 201.334C171.372 203.439 173.769 205.395 176.123 207.228C178.616 209.239 181.052 211.058 183.45 212.798C186.023 214.713 188.557 216.451 190.994 218.054C220.5 237.735 240.397 240.247 241.505 240.384L247.721 241.117L246.982 234.951C246.843 233.85 244.31 214.128 224.47 184.845ZM158.869 172.743L155.871 175.717L152.872 172.743L132.936 152.967L129.938 149.993L132.936 147.018L152.872 127.243L155.871 124.269L158.869 127.243L178.805 147.018L181.804 149.993L178.805 152.967L158.869 172.743Z" fill="#E5D540"/>
<path d="M360.768 215V85.5455H384.219V195.342H441.235V215H360.768ZM502.928 216.896C493.447 216.896 485.229 214.81 478.276 210.638C471.323 206.467 465.929 200.63 462.094 193.129C458.302 185.628 456.406 176.863 456.406 166.834C456.406 156.804 458.302 148.018 462.094 140.475C465.929 132.932 471.323 127.075 478.276 122.903C485.229 118.731 493.447 116.645 502.928 116.645C512.41 116.645 520.627 118.731 527.58 122.903C534.533 127.075 539.906 132.932 543.699 140.475C547.534 148.018 549.451 156.804 549.451 166.834C549.451 176.863 547.534 185.628 543.699 193.129C539.906 200.63 534.533 206.467 527.58 210.638C520.627 214.81 512.41 216.896 502.928 216.896ZM503.055 198.565C508.196 198.565 512.494 197.154 515.95 194.33C519.405 191.465 521.976 187.63 523.661 182.826C525.389 178.022 526.253 172.67 526.253 166.771C526.253 160.829 525.389 155.456 523.661 150.652C521.976 145.806 519.405 141.95 515.95 139.085C512.494 136.219 508.196 134.786 503.055 134.786C497.787 134.786 493.405 136.219 489.907 139.085C486.451 141.95 483.86 145.806 482.132 150.652C480.446 155.456 479.604 160.829 479.604 166.771C479.604 172.67 480.446 178.022 482.132 182.826C483.86 187.63 486.451 191.465 489.907 194.33C493.405 197.154 497.787 198.565 503.055 198.565ZM604.902 216.707C597.275 216.707 590.448 214.747 584.422 210.828C578.396 206.909 573.634 201.22 570.137 193.761C566.639 186.303 564.89 177.242 564.89 166.581C564.89 155.793 566.66 146.691 570.2 139.274C573.782 131.815 578.607 126.19 584.675 122.397C590.743 118.562 597.507 116.645 604.965 116.645C610.654 116.645 615.332 117.614 618.998 119.553C622.664 121.449 625.572 123.745 627.721 126.442C629.87 129.097 631.535 131.605 632.715 133.964H633.663V85.5455H656.608V215H634.105V199.703H632.715C631.535 202.063 629.828 204.57 627.595 207.225C625.361 209.838 622.411 212.071 618.745 213.925C615.079 215.78 610.465 216.707 604.902 216.707ZM611.286 197.933C616.133 197.933 620.262 196.627 623.676 194.014C627.089 191.359 629.681 187.672 631.45 182.952C633.22 178.233 634.105 172.733 634.105 166.455C634.105 160.176 633.22 154.719 631.45 150.083C629.723 145.448 627.152 141.845 623.739 139.274C620.368 136.704 616.217 135.418 611.286 135.418C606.187 135.418 601.931 136.746 598.518 139.401C595.105 142.055 592.534 145.722 590.806 150.399C589.079 155.077 588.215 160.429 588.215 166.455C588.215 172.523 589.079 177.938 590.806 182.7C592.576 187.419 595.168 191.149 598.581 193.888C602.037 196.585 606.272 197.933 611.286 197.933ZM723.974 216.896C714.24 216.896 705.833 214.874 698.754 210.828C691.716 206.741 686.301 200.967 682.509 193.509C678.716 186.008 676.82 177.179 676.82 167.023C676.82 157.036 678.716 148.271 682.509 140.728C686.343 133.143 691.695 127.243 698.564 123.029C705.433 118.773 713.503 116.645 722.773 116.645C728.757 116.645 734.404 117.614 739.714 119.553C745.066 121.449 749.785 124.399 753.873 128.402C758.003 132.405 761.247 137.504 763.607 143.699C765.967 149.851 767.147 157.184 767.147 165.696V172.712H687.565V157.289H745.213C745.171 152.906 744.223 149.009 742.369 145.595C740.514 142.14 737.923 139.422 734.594 137.441C731.307 135.46 727.472 134.47 723.089 134.47C718.412 134.47 714.303 135.608 710.763 137.884C707.224 140.117 704.464 143.067 702.483 146.733C700.545 150.357 699.554 154.339 699.512 158.68V172.143C699.512 177.79 700.545 182.636 702.609 186.682C704.674 190.685 707.561 193.761 711.269 195.911C714.978 198.018 719.318 199.071 724.29 199.071C727.62 199.071 730.633 198.607 733.33 197.68C736.027 196.711 738.365 195.299 740.346 193.445C742.326 191.591 743.822 189.295 744.834 186.555L766.199 188.957C764.85 194.604 762.28 199.535 758.487 203.749C754.737 207.92 749.933 211.165 744.075 213.483C738.218 215.759 731.518 216.896 723.974 216.896ZM863.242 143.572L842.383 145.848C841.793 143.741 840.761 141.76 839.286 139.906C837.853 138.052 835.914 136.556 833.47 135.418C831.026 134.281 828.034 133.712 824.494 133.712C819.733 133.712 815.729 134.744 812.485 136.809C809.282 138.874 807.702 141.55 807.744 144.837C807.702 147.66 808.734 149.957 810.841 151.727C812.99 153.496 816.53 154.95 821.46 156.088L838.021 159.628C847.208 161.608 854.035 164.748 858.502 169.046C863.011 173.344 865.286 178.97 865.328 185.923C865.286 192.034 863.495 197.428 859.955 202.105C856.458 206.741 851.591 210.365 845.354 212.977C839.117 215.59 831.953 216.896 823.862 216.896C811.979 216.896 802.413 214.41 795.165 209.438C787.917 204.423 783.597 197.449 782.207 188.515L804.52 186.366C805.531 190.748 807.681 194.056 810.968 196.29C814.254 198.523 818.532 199.64 823.799 199.64C829.235 199.64 833.597 198.523 836.884 196.29C840.213 194.056 841.877 191.296 841.877 188.009C841.877 185.228 840.803 182.931 838.654 181.119C836.547 179.307 833.26 177.917 828.793 176.947L812.232 173.471C802.919 171.532 796.029 168.267 791.562 163.673C787.095 159.038 784.883 153.18 784.925 146.101C784.883 140.117 786.505 134.934 789.792 130.551C793.121 126.126 797.735 122.713 803.635 120.311C809.577 117.867 816.425 116.645 824.178 116.645C835.556 116.645 844.511 119.068 851.043 123.914C857.617 128.76 861.683 135.313 863.242 143.572ZM932.679 117.909V135.608H876.864V117.909H932.679ZM890.644 94.6477H913.526V185.797C913.526 188.873 913.99 191.233 914.917 192.876C915.886 194.478 917.15 195.573 918.709 196.163C920.269 196.753 921.996 197.048 923.893 197.048C925.325 197.048 926.632 196.943 927.812 196.732C929.034 196.522 929.961 196.332 930.593 196.163L934.449 214.052C933.227 214.473 931.478 214.937 929.202 215.442C926.969 215.948 924.23 216.243 920.985 216.327C915.254 216.496 910.092 215.632 905.498 213.736C900.905 211.797 897.26 208.805 894.563 204.76C891.908 200.714 890.602 195.658 890.644 189.589V94.6477ZM979.755 216.96C973.602 216.96 968.061 215.864 963.13 213.673C958.242 211.439 954.365 208.152 951.5 203.812C948.676 199.471 947.265 194.12 947.265 187.756C947.265 182.278 948.276 177.748 950.299 174.166C952.321 170.584 955.082 167.719 958.579 165.57C962.077 163.42 966.017 161.798 970.4 160.702C974.824 159.565 979.396 158.743 984.116 158.237C989.805 157.647 994.419 157.12 997.959 156.657C1001.5 156.151 1004.07 155.393 1005.67 154.381C1007.31 153.328 1008.14 151.705 1008.14 149.514V149.135C1008.14 144.373 1006.72 140.686 1003.9 138.073C1001.08 135.46 997.011 134.154 991.701 134.154C986.097 134.154 981.651 135.376 978.364 137.82C975.119 140.264 972.928 143.151 971.79 146.48L950.425 143.446C952.111 137.546 954.892 132.616 958.769 128.655C962.646 124.652 967.386 121.66 972.991 119.679C978.596 117.656 984.79 116.645 991.575 116.645C996.252 116.645 1000.91 117.193 1005.54 118.288C1010.18 119.384 1014.41 121.196 1018.25 123.724C1022.08 126.211 1025.16 129.603 1027.48 133.901C1029.84 138.2 1031.02 143.572 1031.02 150.02V215H1009.02V201.663H1008.26C1006.87 204.36 1004.91 206.888 1002.38 209.248C999.898 211.566 996.758 213.441 992.966 214.874C989.215 216.264 984.811 216.96 979.755 216.96ZM985.696 200.146C990.29 200.146 994.272 199.24 997.643 197.428C1001.01 195.573 1003.61 193.129 1005.42 190.095C1007.27 187.061 1008.2 183.753 1008.2 180.171V168.73C1007.48 169.32 1006.26 169.868 1004.53 170.374C1002.85 170.879 1000.95 171.322 998.844 171.701C996.737 172.08 994.651 172.417 992.586 172.712C990.521 173.007 988.73 173.26 987.213 173.471C983.8 173.934 980.745 174.693 978.048 175.746C975.351 176.8 973.223 178.275 971.664 180.171C970.105 182.025 969.325 184.427 969.325 187.377C969.325 191.591 970.863 194.773 973.939 196.922C977.016 199.071 980.935 200.146 985.696 200.146ZM1054.03 215V117.909H1076.21V134.091H1077.22C1078.99 128.486 1082.03 124.167 1086.33 121.133C1090.67 118.057 1095.62 116.518 1101.18 116.518C1102.45 116.518 1103.86 116.582 1105.42 116.708C1107.02 116.792 1108.35 116.94 1109.4 117.151V138.2C1108.43 137.862 1106.89 137.567 1104.78 137.315C1102.72 137.02 1100.72 136.872 1098.78 136.872C1094.61 136.872 1090.86 137.778 1087.53 139.59C1084.24 141.36 1081.65 143.825 1079.75 146.986C1077.86 150.146 1076.91 153.791 1076.91 157.921V215H1054.03Z" fill="white"/>
</svg>
