<svg width="450" height="450" viewBox="0 0 450 450" fill="none" xmlns="http://www.w3.org/2000/svg">
<g clip-path="url(#clip0_160_146)">
<path d="M24.4179 327.028L20.9011 320.276H79.8522L81.3028 322.324C102.838 353.946 134.236 377.56 170.587 389.49C206.937 401.419 246.206 400.993 282.29 388.28C318.374 375.568 349.233 351.281 370.079 319.201C390.924 287.12 400.574 249.047 397.532 210.911L292.291 210.73L323.019 297.633L285.389 349.334L217.932 157.893L439.998 158.321L440.965 161.697C443.501 170.133 445.48 178.727 446.878 187.424C449.01 199.85 450.042 212.438 449.999 225.045C449.925 278.184 431.084 329.588 396.785 370.176C362.486 410.764 314.956 437.924 262.574 446.86C249.948 448.905 237.162 449.955 224.372 450C182.924 450.03 142.281 438.548 106.975 416.835C71.6693 395.123 43.0911 364.032 24.4179 327.028ZM62.2678 291.094H9.55931L8.65809 287.718C6.25729 279.392 4.39865 270.919 3.09709 262.352C-5.77936 209.376 4.56855 154.973 32.2868 108.963C60.0051 62.9532 103.274 28.3689 154.255 11.4543C205.237 -5.46028 260.569 -3.59069 310.293 16.7255C360.017 37.0416 400.852 74.4654 425.403 122.24L428.898 128.993H369.596L368.145 126.945C346.57 95.3843 315.173 71.8301 278.839 59.9401C242.505 48.0502 203.26 48.49 167.202 61.1909C131.143 73.8918 100.275 98.1431 79.4123 130.18C58.5499 162.216 48.8606 200.244 51.8272 238.359L157.508 238.539L126.78 151.635L164.585 99.9355L231.845 291.376L62.2678 291.094Z" fill="url(#paint0_linear_160_146)"/>
</g>
<defs>
<linearGradient id="paint0_linear_160_146" x1="225" y1="-7.8042e-06" x2="225" y2="450" gradientUnits="userSpaceOnUse">
<stop stop-color="#0BCE0D"/>
<stop offset="1" stop-color="#035A0D"/>
</linearGradient>
<clipPath id="clip0_160_146">
<rect width="450" height="450" fill="white"/>
</clipPath>
</defs>
</svg>
