<svg width="450" height="450" viewBox="0 0 450 450" fill="none" xmlns="http://www.w3.org/2000/svg">
<g clip-path="url(#clip0_160_146)">
<path d="M24.4179 327.028L20.9011 320.276H79.8522L81.3028 322.324C102.838 353.946 134.236 377.56 170.587 389.49C206.937 401.419 246.206 400.993 282.29 388.28C318.374 375.568 349.233 351.281 370.079 319.201C390.924 287.12 400.574 249.047 397.532 210.911L292.291 210.73L323.019 297.633L285.389 349.334L217.932 157.893L439.998 158.321L440.965 161.697C443.501 170.133 445.48 178.727 446.878 187.424C449.01 199.85 450.042 212.438 449.999 225.045C449.925 278.184 431.084 329.588 396.785 370.176C362.486 410.764 314.956 437.924 262.574 446.86C249.948 448.905 237.162 449.955 224.372 450C182.924 450.03 142.281 438.548 106.975 416.835C71.6693 395.123 43.0911 364.032 24.4179 327.028ZM62.2678 291.094H9.55931L8.65809 287.718C6.25729 279.392 4.39865 270.919 3.09709 262.352C-5.77936 209.376 4.56855 154.973 32.2868 108.963C60.0051 62.9532 103.274 28.3689 154.255 11.4543C205.237 -5.46028 260.569 -3.59069 310.293 16.7255C360.017 37.0416 400.852 74.4654 425.403 122.24L428.898 128.993H369.596L368.145 126.945C346.57 95.3843 315.173 71.8301 278.839 59.9401C242.505 48.0502 203.26 48.49 167.202 61.1909C131.143 73.8918 100.275 98.1431 79.4123 130.18C58.5499 162.216 48.8606 200.244 51.8272 238.359L157.508 238.539L126.78 151.635L164.585 99.9355L231.845 291.376L62.2678 291.094Z" fill="url(#paint0_linear_160_146)"/>
<g clip-path="url(#clip1_160_146)">
<path d="M385.398 345.97L399.34 322.045L436.92 381.24L436.937 392.6L436.815 314.427C436.726 312.517 435.723 310.768 434.122 309.738L366.464 270.379C364.882 269.592 362.875 269.601 361.295 270.403C361.082 270.512 360.881 270.629 360.689 270.757L360.454 270.907L294.781 309.396L294.526 309.512C294.198 309.665 293.867 309.858 293.556 310.084C292.311 310.987 291.484 312.322 291.217 313.82C291.176 314.047 291.147 314.278 291.133 314.511L291.236 378.215L326.24 323.345C330.647 316.07 340.249 313.726 349.163 313.854L359.624 314.133L297.984 414.108L305.25 418.338L367.629 314.234L395.201 314.133L332.982 420.864L358.91 435.947L362.008 437.748C363.318 438.287 364.863 438.313 366.185 437.832L434.793 397.621L421.676 405.308L385.398 345.97ZM390.717 423.452L364.53 381.886L380.515 354.452L414.908 409.274L390.717 423.452Z" fill="#2D374B"/>
<path d="M364.516 381.884L390.704 423.452L414.894 409.274L380.502 354.451L364.516 381.884Z" fill="#28A0F0"/>
<path d="M436.914 392.61L436.898 381.251L399.317 322.055L385.375 345.98L421.653 405.318L434.77 397.631C436.058 396.575 436.835 395.023 436.917 393.35L436.914 392.61Z" fill="#28A0F0"/>
<path d="M279.45 403.316L297.973 414.11L359.614 314.136L349.152 313.856C340.238 313.729 330.637 316.072 326.229 323.348L291.225 378.217L279.449 396.516L279.45 403.316Z" fill="white"/>
<path d="M395.181 314.139L367.61 314.24L305.23 418.344L327.034 431.04L332.963 420.87L395.181 314.139Z" fill="white"/>
<path d="M448.546 313.992C448.316 308.161 445.193 302.822 440.303 299.714L371.759 259.849C366.921 257.385 360.877 257.382 356.032 259.847C355.459 260.139 289.374 298.901 289.374 298.901C288.459 299.345 287.578 299.873 286.75 300.472C282.384 303.637 279.723 308.554 279.449 313.956V396.517L291.225 378.218L291.122 314.515C291.136 314.282 291.165 314.053 291.206 313.826C291.472 312.327 292.299 310.99 293.545 310.087C293.857 309.862 361.071 270.515 361.285 270.406C362.865 269.604 364.872 269.595 366.454 270.382L434.111 309.741C435.712 310.772 436.715 312.52 436.805 314.431V393.343C436.722 395.017 436.068 396.568 434.782 397.625L421.665 405.311L414.897 409.278L390.706 423.456L366.173 437.834C364.852 438.317 363.307 438.29 361.997 437.752L332.971 420.868L327.042 431.038L353.126 446.226C353.989 446.722 354.758 447.162 355.388 447.52C356.365 448.074 357.03 448.445 357.265 448.559C359.119 449.47 361.787 450 364.19 450C366.394 450 368.543 449.591 370.577 448.786L441.833 407.051C445.923 403.846 448.329 399.013 448.546 393.778V313.992Z" fill="#96BEDC"/>
</g>
</g>
<defs>
<linearGradient id="paint0_linear_160_146" x1="225" y1="-7.8042e-06" x2="225" y2="450" gradientUnits="userSpaceOnUse">
<stop stop-color="#0BCE0D"/>
<stop offset="1" stop-color="#035A0D"/>
</linearGradient>
<clipPath id="clip0_160_146">
<rect width="450" height="450" fill="white"/>
</clipPath>
<clipPath id="clip1_160_146">
<rect width="192" height="192" fill="white" transform="translate(268 258)"/>
</clipPath>
</defs>
</svg>
