<svg width="24" height="24" viewBox="0 0 24 24" fill="none" xmlns="http://www.w3.org/2000/svg">
<g clip-path="url(#clip0_164_174)">
<path d="M19.9443 7.48868C20.744 6.83885 21.439 6.04408 22 5.13786C21.2503 5.50093 20.4558 5.73783 19.6429 5.84073C20.4985 5.27738 21.1393 4.38749 21.445 3.33793C20.6417 3.86779 19.7615 4.239 18.8436 4.43498C18.4599 3.98094 17.996 3.61928 17.4807 3.37253C16.9655 3.12578 16.4099 2.99923 15.8486 3.00075C15.3102 3.00043 14.777 3.11772 14.2795 3.34589C13.782 3.57406 13.33 3.90865 12.9493 4.33053C12.5686 4.75241 12.2667 5.2533 12.0608 5.80457C11.8548 6.35583 11.749 6.94667 11.7493 7.54329C11.751 7.89317 11.7849 8.24194 11.8507 8.58414C10.2194 8.49273 8.62372 8.02227 7.16712 7.20329C5.71053 6.38431 4.4256 5.23511 3.39571 3.83026C3.02768 4.5263 2.83479 5.31896 2.83714 6.12567C2.83663 6.87425 3.00318 7.61135 3.32197 8.27132C3.64075 8.9313 4.10188 9.49367 4.66429 9.90836C4.01432 9.88073 3.37945 9.68329 2.81143 9.33213V9.38833C2.81025 10.4376 3.13688 11.4549 3.73583 12.2675C4.33478 13.0801 5.16913 13.6379 6.09714 13.8462C5.74505 13.9489 5.38267 14.0021 5.01857 14.0045C4.75925 14.0026 4.50042 13.979 4.24429 13.934C4.50858 14.8351 5.02008 15.6222 5.70744 16.1857C6.39479 16.7491 7.22371 17.0608 8.07857 17.0772C6.62736 18.3393 4.8348 19.023 2.99 19.018C2.65928 19.0204 2.32872 19.0014 2 18.961C3.87698 20.2986 6.06268 21.0069 8.29429 21.0007C15.8329 21.0007 19.9571 14.0813 19.9571 8.07678C19.9571 7.87969 19.9571 7.68339 19.9443 7.48868Z" fill="#0B6CFF"/>
</g>
<defs>
<clipPath id="clip0_164_174">
<rect width="20" height="18" fill="white" transform="translate(2 3)"/>
</clipPath>
</defs>
</svg>
