<svg width="450" height="450" viewBox="0 0 450 450" fill="none" xmlns="http://www.w3.org/2000/svg">
<g clip-path="url(#clip0_140_85)">
<path d="M225 450C349.688 450 450 349.688 450 225C450 100.312 349.688 0 225 0C100.312 0 0 100.312 0 225C0 349.688 100.312 450 225 450Z" fill="#2775CA"/>
<path d="M286.875 260.624C286.875 227.813 267.188 216.563 227.813 211.876C199.688 208.125 194.063 200.626 194.063 187.499C194.063 174.373 203.438 165.938 222.188 165.938C239.063 165.938 248.438 171.563 253.125 185.625C254.063 188.438 256.876 190.312 259.688 190.312H274.687C278.438 190.312 281.25 187.499 281.25 183.751V182.813C277.499 162.187 260.624 146.25 239.063 144.376V121.876C239.063 118.125 236.25 115.313 231.563 114.374H217.501C213.75 114.374 210.938 117.187 209.999 121.876V143.438C181.874 147.188 164.063 165.938 164.063 189.376C164.063 220.313 182.813 232.499 222.188 237.188C248.438 241.875 256.876 247.5 256.876 262.501C256.876 277.502 243.749 287.813 225.938 287.813C201.562 287.813 193.124 277.499 190.312 263.437C189.376 259.688 186.563 257.812 183.751 257.812H167.812C164.063 257.812 161.251 260.624 161.251 264.375V265.313C164.999 288.749 180 305.624 210.938 310.313V332.813C210.938 336.562 213.75 339.374 218.437 340.313H232.499C236.25 340.313 239.063 337.5 240.001 332.813V310.313C268.126 305.624 286.875 285.937 286.875 260.624Z" fill="white"/>
<path d="M177.188 359.062C104.063 332.813 66.562 251.251 93.751 179.062C107.813 139.687 138.751 109.687 177.188 95.625C180.938 93.7507 182.813 90.9382 182.813 86.2492V73.125C182.813 69.3742 180.938 66.5617 177.188 65.6257C176.249 65.6257 174.375 65.6257 173.437 66.5617C84.3752 94.6867 35.6245 189.376 63.7495 278.437C80.6245 330.937 120.938 371.25 173.437 388.125C177.188 389.999 180.938 388.125 181.874 384.374C182.813 383.438 182.813 382.5 182.813 380.626V367.499C182.813 364.687 180 360.938 177.188 359.062ZM276.563 66.5617C272.813 64.6875 269.062 66.5617 268.126 70.3125C267.188 71.2507 267.188 72.1867 267.188 74.0632V87.1875C267.188 90.9382 270 94.6867 272.813 96.5632C345.938 122.812 383.438 204.374 356.249 276.563C342.187 315.938 311.249 345.937 272.813 360C269.062 361.874 267.188 364.687 267.188 369.376V382.5C267.188 386.251 269.062 389.063 272.813 389.999C273.751 389.999 275.625 389.999 276.563 389.063C365.625 360.938 414.376 266.249 386.251 177.187C369.376 123.75 328.124 83.4367 276.563 66.5617Z" fill="white"/>
<g clip-path="url(#clip1_140_85)">
<path d="M385.786 345.97L399.656 322.045L437.041 381.24L437.057 392.6L436.936 314.427C436.847 312.517 435.849 310.768 434.257 309.738L366.952 270.379C365.377 269.592 363.38 269.601 361.809 270.403C361.597 270.512 361.397 270.629 361.207 270.757L360.972 270.907L295.641 309.396L295.388 309.512C295.062 309.665 294.732 309.858 294.423 310.084C293.184 310.987 292.362 312.322 292.096 313.82C292.056 314.047 292.026 314.278 292.012 314.511L292.115 378.215L326.936 323.345C331.32 316.07 340.873 313.726 349.74 313.854L360.147 314.133L298.827 414.108L306.056 418.338L368.11 314.234L395.539 314.133L333.644 420.864L359.437 435.947L362.518 437.748C363.822 438.287 365.358 438.313 366.673 437.832L434.924 397.621L421.875 405.308L385.786 345.97ZM391.078 423.452L365.027 381.886L380.929 354.452L415.142 409.274L391.078 423.452Z" fill="#2D374B"/>
<path d="M365.013 381.884L391.065 423.452L415.13 409.274L380.916 354.451L365.013 381.884Z" fill="#28A0F0"/>
<path d="M437.035 392.61L437.018 381.251L399.633 322.055L385.764 345.98L421.853 405.318L434.901 397.631C436.182 396.575 436.956 395.023 437.037 393.35L437.035 392.61Z" fill="#28A0F0"/>
<path d="M280.39 403.316L298.817 414.11L360.137 314.136L349.729 313.856C340.862 313.729 331.311 316.072 326.926 323.348L292.104 378.217L280.39 396.516L280.39 403.316Z" fill="white"/>
<path d="M395.518 314.139L368.091 314.24L306.037 418.344L327.726 431.04L333.625 420.87L395.518 314.139Z" fill="white"/>
<path d="M448.606 313.992C448.376 308.161 445.27 302.822 440.406 299.714L372.218 259.849C367.406 257.385 361.394 257.382 356.574 259.847C356.004 260.139 290.262 298.901 290.262 298.901C289.353 299.345 288.477 299.873 287.652 300.472C283.309 303.637 280.662 308.554 280.39 313.956V396.517L292.104 378.218L292.002 314.515C292.016 314.282 292.045 314.053 292.085 313.826C292.349 312.327 293.173 310.99 294.412 310.087C294.722 309.862 361.586 270.515 361.799 270.406C363.371 269.604 365.367 269.595 366.941 270.382L434.246 309.741C435.839 310.772 436.837 312.52 436.926 314.431V393.343C436.844 395.017 436.193 396.568 434.913 397.625L421.865 405.311L415.132 409.278L391.067 423.456L366.662 437.834C365.348 438.317 363.811 438.29 362.507 437.752L333.633 420.868L327.734 431.038L353.683 446.226C354.541 446.722 355.306 447.162 355.933 447.52C356.905 448.074 357.567 448.445 357.8 448.559C359.645 449.47 362.298 450 364.689 450C366.882 450 369.019 449.591 371.043 448.786L441.928 407.051C445.996 403.846 448.39 399.013 448.606 393.778V313.992Z" fill="#96BEDC"/>
</g>
</g>
<defs>
<clipPath id="clip0_140_85">
<rect width="450" height="450" fill="white"/>
</clipPath>
<clipPath id="clip1_140_85">
<rect width="191" height="192" fill="white" transform="translate(269 258)"/>
</clipPath>
</defs>
</svg>
