<svg width="252" height="77" viewBox="0 0 252 77" fill="none" xmlns="http://www.w3.org/2000/svg">
<g clip-path="url(#clip0_177_406)">
<path d="M90.358 62H82.2018L104.055 19.8182H113.488L121.356 62H113.2L107.536 28.4688H107.206L90.358 62ZM93.3651 45.4609H115.609L114.58 51.5987H92.3353L93.3651 45.4609ZM139.337 62.6179C136.179 62.6179 133.583 61.9245 131.551 60.5376C129.519 59.1508 128.098 57.2353 127.288 54.7912C126.491 52.3333 126.361 49.5047 126.896 46.3054C127.418 43.0923 128.496 40.2569 130.13 37.799C131.778 35.3274 133.851 33.4051 136.35 32.032C138.849 30.6451 141.644 29.9517 144.733 29.9517C147.301 29.9517 149.491 30.4254 151.303 31.3729C153.13 32.3066 154.489 33.6316 155.381 35.348C156.288 37.0507 156.638 39.0417 156.432 41.321H149.285C149.257 39.7969 148.784 38.5268 147.864 37.5107C146.944 36.4808 145.598 35.9659 143.827 35.9659C142.289 35.9659 140.875 36.3778 139.584 37.2017C138.293 38.0118 137.202 39.179 136.309 40.7031C135.417 42.2273 134.799 44.0535 134.455 46.1818C134.098 48.3376 134.105 50.1913 134.476 51.7429C134.86 53.2808 135.554 54.4685 136.556 55.3061C137.572 56.13 138.856 56.5419 140.408 56.5419C141.506 56.5419 142.529 56.3359 143.477 55.924C144.424 55.4983 145.255 54.8873 145.969 54.0909C146.697 53.2945 147.266 52.3265 147.678 51.1868H154.805C154.242 53.425 153.239 55.4091 151.798 57.1392C150.37 58.8556 148.598 60.2012 146.484 61.1761C144.369 62.1373 141.987 62.6179 139.337 62.6179ZM172.976 62.6179C169.859 62.6179 167.264 61.9313 165.191 60.5582C163.131 59.1851 161.682 57.2559 160.845 54.7706C160.007 52.2853 159.856 49.4018 160.392 46.12C160.927 42.8795 161.998 40.044 163.605 37.6136C165.225 35.1832 167.264 33.3021 169.722 31.9702C172.193 30.6245 174.96 29.9517 178.022 29.9517C181.139 29.9517 183.728 30.6451 185.787 32.032C187.847 33.4051 189.295 35.3343 190.133 37.8196C190.984 40.3049 191.142 43.2022 190.607 46.5114C190.085 49.7382 189.007 52.5599 187.373 54.9766C185.753 57.3932 183.714 59.2744 181.256 60.62C178.798 61.9519 176.038 62.6179 172.976 62.6179ZM173.594 56.6449C175.324 56.6449 176.841 56.178 178.146 55.2443C179.464 54.2969 180.542 53.0268 181.38 51.4339C182.231 49.8274 182.821 48.0424 183.151 46.0788C183.453 44.1839 183.46 42.4676 183.171 40.9297C182.883 39.3781 182.265 38.1491 181.318 37.2429C180.384 36.3229 179.086 35.8629 177.425 35.8629C175.695 35.8629 174.164 36.3435 172.832 37.3047C171.514 38.2521 170.436 39.5291 169.598 41.1357C168.761 42.7285 168.184 44.5066 167.868 46.4702C167.552 48.3651 167.539 50.0814 167.827 51.6193C168.115 53.1572 168.733 54.3793 169.681 55.2855C170.628 56.1918 171.933 56.6449 173.594 56.6449ZM194.381 62L199.654 30.3636H206.883L205.998 35.6364H206.327C207.192 33.8101 208.414 32.4027 209.993 31.4141C211.586 30.4117 213.289 29.9105 215.101 29.9105C215.527 29.9105 215.987 29.9311 216.481 29.9723C216.976 29.9998 217.401 30.0478 217.758 30.1165L216.605 36.9751C216.289 36.8653 215.795 36.7692 215.122 36.6868C214.463 36.5907 213.811 36.5426 213.165 36.5426C211.806 36.5426 210.543 36.8378 209.375 37.4283C208.222 38.005 207.247 38.8082 206.451 39.8381C205.654 40.8679 205.139 42.0556 204.906 43.4013L201.837 62H194.381ZM227.979 43.4631L224.931 62H217.454L222.727 30.3636H229.874L228.968 35.7393H229.359C230.348 33.968 231.735 32.5606 233.52 31.517C235.305 30.4735 237.385 29.9517 239.761 29.9517C241.916 29.9517 243.729 30.4186 245.198 31.3523C246.667 32.2723 247.711 33.6248 248.329 35.4098C248.947 37.1811 249.043 39.33 248.617 41.8565L245.239 62H237.783L240.935 43.0099C241.292 40.9091 241.024 39.2614 240.131 38.0668C239.253 36.8584 237.838 36.2543 235.888 36.2543C234.584 36.2543 233.382 36.5426 232.284 37.1193C231.186 37.6823 230.259 38.4993 229.503 39.5703C228.762 40.6413 228.254 41.9389 227.979 43.4631Z" fill="white"/>
<g clip-path="url(#clip1_177_406)">
<path d="M74 6L9 6L9 71H74V6Z" fill="#0B6FBD"/>
<mask id="mask0_177_406" style="mask-type:luminance" maskUnits="userSpaceOnUse" x="23" y="16" width="37" height="20">
<path d="M23.9725 16.6733L59.0116 16.6733V35.3883H23.9725V16.6733Z" fill="white"/>
</mask>
<g mask="url(#mask0_177_406)">
<path d="M59.0129 33.2272C59.0129 33.9665 58.8939 34.6885 58.6638 35.3854C58.2644 34.6713 57.6548 34.0762 56.8878 33.6888C54.0327 32.242 51.0651 31.2872 48.0685 30.8495C45.7371 30.5097 43.4202 30.3364 41.1813 30.3364C37.1783 30.3364 33.494 30.8826 30.2303 31.9604C29.249 32.2857 28.2598 32.6718 27.2945 33.1122C27.0591 33.2193 26.825 33.3132 26.5976 33.4044C25.8001 33.7245 24.8004 34.1265 24.2357 35.0998C24.0625 34.4915 23.9725 33.866 23.9725 33.2272C23.9725 27.3186 31.6598 22.5182 41.2025 22.4217C40.9433 20.3984 39.8152 19.6168 36.7009 18.8115C36.2156 18.6845 35.8784 18.2428 35.8876 17.7403C35.8995 17.0672 36.5144 16.5673 37.177 16.6916C40.0361 17.2285 42.2683 19.5441 42.6823 22.4455C51.8044 22.8224 59.0129 27.5051 59.0129 33.2272Z" fill="white"/>
</g>
<mask id="mask1_177_406" style="mask-type:luminance" maskUnits="userSpaceOnUse" x="25" y="31" width="33" height="30">
<path d="M25.1098 31.6776L57.8664 31.6776V60.3174H25.1098V31.6776Z" fill="white"/>
</mask>
<g mask="url(#mask1_177_406)">
<path d="M28.9237 40.0434C29.4236 43.3481 30.906 48.2425 35.1378 52.7466C35.4248 53.0508 35.0055 53.5004 34.6815 53.2359C31.7973 50.8741 28.2069 46.6198 28.2572 40.0937C28.2598 39.6784 28.8615 39.6334 28.9237 40.0434ZM56.2781 34.8939C53.6386 33.5569 50.8046 32.614 47.8741 32.1855C42.2604 31.3656 36.0807 31.4503 30.6548 33.2435C29.7013 33.5582 28.7663 33.9258 27.8525 34.3424C26.3542 35.0221 25.1706 35.1266 25.1402 36.8921C25.1389 36.9661 25.1389 37.0375 25.1376 37.1116C25.1296 38.0624 25.1706 39.0145 25.2487 39.9627C25.5118 43.0651 26.2074 46.1662 27.5193 49.0002C28.6063 51.3475 30.1324 53.4938 32.1055 55.1786C33.2018 56.1135 34.4224 56.8977 35.7197 57.5193C36.2658 57.7811 40.1511 58.7452 40.2463 59.0123C40.2463 59.0123 40.6576 60.1787 41.3876 60.3056V60.3136C41.4246 60.3175 41.459 60.3175 41.4934 60.3162C41.5278 60.3175 41.5621 60.3175 41.5979 60.3136V60.3056C42.3292 60.1787 42.7404 59.0123 42.7404 59.0123C56.5215 56.2035 57.828 42.3801 57.8492 37.4607C57.8492 37.3509 57.8439 37.2425 57.832 37.1354C57.7275 36.1819 57.1483 35.3356 56.2781 34.8939Z" fill="white"/>
</g>
</g>
</g>
<defs>
<clipPath id="clip0_177_406">
<rect width="252" height="77" fill="white"/>
</clipPath>
<clipPath id="clip1_177_406">
<rect x="9" y="6" width="65" height="65" rx="32.5" fill="white"/>
</clipPath>
</defs>
</svg>
