<svg width="450" height="450" viewBox="0 0 450 450" fill="none" xmlns="http://www.w3.org/2000/svg">
<g clip-path="url(#clip0_140_152)">
<path d="M225 450C349.264 450 450 349.264 450 225C450 100.736 349.264 0 225 0C100.736 0 0 100.736 0 225C0 349.264 100.736 450 225 450Z" fill="#627EEA"/>
<path d="M225.44 58V182.734L330.867 229.844L225.44 58Z" fill="white" fill-opacity="0.602"/>
<path d="M225.441 58L120 229.844L225.441 182.734V58Z" fill="white"/>
<path d="M225.44 310.675V395.43L330.937 249.475L225.44 310.675Z" fill="white" fill-opacity="0.602"/>
<path d="M225.441 395.43V310.661L120 249.475L225.441 395.43Z" fill="white"/>
<path d="M225.44 291.058L330.867 229.844L225.44 182.763V291.058Z" fill="white" fill-opacity="0.2"/>
<path d="M120 229.844L225.441 291.058V182.763L120 229.844Z" fill="white" fill-opacity="0.602"/>
<g clip-path="url(#clip1_140_152)">
<path d="M385.786 335.97L399.656 312.045L437.041 371.24L437.057 382.6L436.936 304.427C436.847 302.517 435.849 300.768 434.257 299.738L366.952 260.379C365.377 259.592 363.38 259.601 361.809 260.403C361.597 260.512 361.397 260.629 361.207 260.757L360.972 260.907L295.641 299.396L295.388 299.512C295.062 299.665 294.732 299.858 294.423 300.084C293.184 300.987 292.362 302.322 292.096 303.82C292.056 304.047 292.026 304.278 292.012 304.511L292.115 368.215L326.936 313.345C331.32 306.07 340.873 303.726 349.74 303.854L360.147 304.133L298.827 404.108L306.056 408.338L368.11 304.234L395.539 304.133L333.644 410.864L359.437 425.947L362.518 427.748C363.822 428.287 365.358 428.313 366.673 427.832L434.924 387.621L421.875 395.308L385.786 335.97ZM391.078 413.452L365.027 371.886L380.929 344.452L415.142 399.274L391.078 413.452Z" fill="#2D374B"/>
<path d="M365.013 371.884L391.064 413.452L415.129 399.274L380.916 344.451L365.013 371.884Z" fill="#28A0F0"/>
<path d="M437.035 382.61L437.018 371.251L399.633 312.055L385.764 335.98L421.853 395.318L434.901 387.631C436.182 386.575 436.956 385.023 437.037 383.35L437.035 382.61Z" fill="#28A0F0"/>
<path d="M280.39 393.316L298.817 404.11L360.137 304.136L349.729 303.856C340.862 303.729 331.311 306.072 326.926 313.348L292.104 368.217L280.39 386.516L280.39 393.316Z" fill="white"/>
<path d="M395.518 304.139L368.091 304.24L306.037 408.344L327.726 421.04L333.625 410.87L395.518 304.139Z" fill="white"/>
<path d="M448.606 303.992C448.376 298.161 445.27 292.822 440.406 289.714L372.218 249.849C367.406 247.385 361.394 247.382 356.574 249.847C356.004 250.139 290.262 288.901 290.262 288.901C289.353 289.345 288.477 289.873 287.652 290.472C283.309 293.637 280.662 298.554 280.39 303.956V386.517L292.104 368.218L292.002 304.515C292.016 304.282 292.045 304.053 292.085 303.826C292.349 302.327 293.173 300.99 294.412 300.087C294.722 299.862 361.586 260.515 361.799 260.406C363.371 259.604 365.367 259.595 366.941 260.382L434.246 299.741C435.839 300.772 436.837 302.52 436.926 304.431V383.343C436.844 385.017 436.193 386.568 434.913 387.625L421.865 395.311L415.132 399.278L391.067 413.456L366.662 427.834C365.348 428.317 363.811 428.29 362.507 427.752L333.633 410.868L327.734 421.038L353.683 436.226C354.541 436.722 355.306 437.162 355.933 437.52C356.905 438.074 357.567 438.445 357.8 438.559C359.645 439.47 362.298 440 364.689 440C366.882 440 369.019 439.591 371.043 438.786L441.928 397.051C445.996 393.846 448.39 389.013 448.606 383.778V303.992Z" fill="#96BEDC"/>
</g>
</g>
<defs>
<clipPath id="clip0_140_152">
<rect width="450" height="450" fill="white"/>
</clipPath>
<clipPath id="clip1_140_152">
<rect width="191" height="192" fill="white" transform="translate(269 248)"/>
</clipPath>
</defs>
</svg>
