<svg width="450" height="450" viewBox="0 0 450 450" fill="none" xmlns="http://www.w3.org/2000/svg">
<g clip-path="url(#clip0_140_89)">
<path d="M0 225C0 349.264 100.736 450 225 450C349.264 450 450 349.264 450 225C450 100.736 349.264 0 225 0C100.736 0 0 100.736 0 225Z" fill="#00A3FF"/>
<path d="M132.704 209.034L130.185 212.898C101.774 256.482 108.12 313.561 145.441 350.13C167.397 371.643 196.174 382.401 224.951 382.404C224.951 382.404 224.951 382.404 132.704 209.034Z" fill="white"/>
<path opacity="0.6" d="M224.943 261.725L132.696 209.034C224.943 382.404 224.943 382.404 224.943 382.404C224.943 344.646 224.943 301.379 224.943 261.725Z" fill="white"/>
<path opacity="0.6" d="M317.296 209.034L319.815 212.898C348.226 256.482 341.881 313.561 304.559 350.13C282.603 371.643 253.826 382.401 225.049 382.404C225.049 382.404 225.049 382.404 317.296 209.034Z" fill="white"/>
<path opacity="0.2" d="M225.039 261.725L317.285 209.034C225.039 382.404 225.039 382.404 225.039 382.404C225.039 344.646 225.039 301.379 225.039 261.725Z" fill="white"/>
<path opacity="0.2" d="M225.055 143.995V234.873L304.515 189.463L225.055 143.995Z" fill="white"/>
<path opacity="0.6" d="M225.068 143.995L145.55 189.462L225.068 234.873V143.995Z" fill="white"/>
<path d="M225.068 67.5659L145.55 189.491L225.068 143.896V67.5659Z" fill="white"/>
<path opacity="0.6" d="M225.055 143.883L304.575 189.48L225.055 67.4938V143.883Z" fill="white"/>
<g clip-path="url(#clip1_140_89)">
<path d="M387.786 345.97L401.656 322.045L439.041 381.24L439.057 392.6L438.936 314.427C438.847 312.517 437.849 310.768 436.257 309.738L368.952 270.379C367.377 269.592 365.38 269.601 363.809 270.403C363.597 270.512 363.397 270.629 363.207 270.757L362.972 270.907L297.641 309.396L297.388 309.512C297.062 309.665 296.732 309.858 296.423 310.084C295.184 310.987 294.362 312.322 294.096 313.82C294.056 314.047 294.026 314.278 294.012 314.511L294.115 378.215L328.936 323.345C333.32 316.07 342.873 313.726 351.74 313.854L362.147 314.133L300.827 414.108L308.056 418.338L370.11 314.234L397.539 314.133L335.644 420.864L361.437 435.947L364.518 437.748C365.822 438.287 367.358 438.313 368.673 437.832L436.924 397.621L423.875 405.308L387.786 345.97ZM393.078 423.452L367.027 381.886L382.929 354.452L417.142 409.274L393.078 423.452Z" fill="#2D374B"/>
<path d="M367.013 381.884L393.065 423.452L417.13 409.274L382.916 354.451L367.013 381.884Z" fill="#28A0F0"/>
<path d="M439.035 392.61L439.018 381.251L401.633 322.055L387.764 345.98L423.853 405.318L436.901 397.631C438.182 396.575 438.956 395.023 439.037 393.35L439.035 392.61Z" fill="#28A0F0"/>
<path d="M282.39 403.316L300.817 414.11L362.137 314.136L351.729 313.856C342.862 313.729 333.311 316.072 328.926 323.348L294.104 378.217L282.39 396.516L282.39 403.316Z" fill="white"/>
<path d="M397.518 314.139L370.091 314.24L308.037 418.344L329.726 431.04L335.625 420.87L397.518 314.139Z" fill="white"/>
<path d="M450.606 313.992C450.376 308.161 447.27 302.822 442.406 299.714L374.218 259.849C369.406 257.385 363.394 257.382 358.574 259.847C358.004 260.139 292.262 298.901 292.262 298.901C291.353 299.345 290.477 299.873 289.652 300.472C285.309 303.637 282.662 308.554 282.39 313.956V396.517L294.104 378.218L294.002 314.515C294.016 314.282 294.045 314.053 294.085 313.826C294.349 312.327 295.173 310.99 296.412 310.087C296.722 309.862 363.586 270.515 363.799 270.406C365.371 269.604 367.367 269.595 368.941 270.382L436.246 309.741C437.839 310.772 438.837 312.52 438.926 314.431V393.343C438.844 395.017 438.193 396.568 436.913 397.625L423.865 405.311L417.132 409.278L393.067 423.456L368.662 437.834C367.348 438.317 365.811 438.29 364.507 437.752L335.633 420.868L329.734 431.038L355.683 446.226C356.541 446.722 357.306 447.162 357.933 447.52C358.905 448.074 359.567 448.445 359.8 448.559C361.645 449.47 364.298 450 366.689 450C368.882 450 371.019 449.591 373.043 448.786L443.928 407.051C447.996 403.846 450.39 399.013 450.606 393.778V313.992Z" fill="#96BEDC"/>
</g>
</g>
<defs>
<clipPath id="clip0_140_89">
<rect width="450" height="450" fill="white"/>
</clipPath>
<clipPath id="clip1_140_89">
<rect width="191" height="192" fill="white" transform="translate(271 258)"/>
</clipPath>
</defs>
</svg>
