<svg width="450" height="450" viewBox="0 0 450 450" fill="none" xmlns="http://www.w3.org/2000/svg">
<g clip-path="url(#clip0_144_243)">
<path d="M0 225C0 349.264 100.736 450 225 450C349.264 450 450 349.264 450 225C450 100.736 349.264 0 225 0C100.736 0 0 100.736 0 225Z" fill="#00A3FF"/>
<path d="M132.704 209.034L130.185 212.898C101.774 256.482 108.12 313.561 145.441 350.13C167.397 371.643 196.174 382.401 224.951 382.404C224.951 382.404 224.951 382.404 132.704 209.034Z" fill="white"/>
<path opacity="0.6" d="M224.943 261.725L132.696 209.034C224.943 382.404 224.943 382.404 224.943 382.404C224.943 344.645 224.943 301.379 224.943 261.725Z" fill="white"/>
<path opacity="0.6" d="M317.296 209.034L319.815 212.898C348.226 256.482 341.881 313.561 304.559 350.13C282.603 371.643 253.826 382.401 225.049 382.404C225.049 382.404 225.049 382.404 317.296 209.034Z" fill="white"/>
<path opacity="0.2" d="M225.039 261.725L317.285 209.034C225.039 382.404 225.039 382.404 225.039 382.404C225.039 344.645 225.039 301.379 225.039 261.725Z" fill="white"/>
<path opacity="0.2" d="M225.055 143.995V234.873L304.515 189.463L225.055 143.995Z" fill="white"/>
<path opacity="0.6" d="M225.068 143.995L145.55 189.462L225.068 234.873V143.995Z" fill="white"/>
<path d="M225.068 67.5659L145.55 189.491L225.068 143.896V67.5659Z" fill="white"/>
<path opacity="0.6" d="M225.055 143.883L304.575 189.48L225.055 67.4939V143.883Z" fill="white"/>
</g>
<defs>
<clipPath id="clip0_144_243">
<rect width="450" height="450" fill="white"/>
</clipPath>
</defs>
</svg>
